<?xml version="1.0" encoding="UTF-8"?>
<!DOCTYPE svg PUBLIC '-//W3C//DTD SVG 1.1//EN' 'http://www.w3.org/Graphics/SVG/1.1/DTD/svg11.dtd'>
<svg width="600" height="480" font-family="Liberation Sans" font-size="24" xmlns="http://www.w3.org/2000/svg">
 <g fill="none">
  <path d="m0 0h600v480h-600z"/>
  <path d="m108.5 408h18m423.3 0h-18m-423.3-74.4h18m423.3 0h-18m-423.3-74.4h18m423.3 0h-18m-423.3-74.3h18m423.3 0h-18m-423.3-74.4h18m423.3 0h-18m-423.3-74.4h18m423.3 0h-18m-423.3 371.9v-18m0-353.9v18m88.3 353.9v-18m0-353.9v18m88.2 353.9v-18m0-353.9v18m88.3 353.9v-18m0-353.9v18m88.2 353.9v-18m0-353.9v18m88.3 353.9v-18m0-353.9v18m-441.3 353.9h441.3m-441.3 0v-371.9m0 0v371.9h441.3v-371.9z" stroke="#000"/>
  <g stroke="#f00">
   <path d="m431.6 72.1h84.8m-407.9-28.7.4 18.6.5 18.6.4 18.6.5 18.6.4 18.7.5 18.6.8 37.2.5 18.6.4 18.6.5 18.6.4 18.7.4 18.6.5 18.6.4 18.6.5 18.6.4 18.6.5 18.6.4 18.7.3 10.9"/>
   <path d="m108.5 50.7.4 9.1.5 9.1.4 9.1.5 9.2.4 9.1.5 9.1.8 18.2.5 9.2.4 9.1.5 9.1.4 9.1.4 9.2.5 9.1.4 9.1.5 9.1.4 9.1.5 9.2.8 18.2.5 9.1.4 9.1.5 9.2.8 18.2.5 9.1.4 9.1.5 9.2.4 9.1.5 9.1.8 18.2.5 9.2.4 9.1.5 9.1.8 18.2.5 9.2.4 9.1.1 1.6"/>
   <path d="m108.5 58 .4 5.9.5 6 .4 5.9.5 6 .4 6 .5 5.9.4 6 .4 5.9.5 6 .4 5.9.5 6 .4 6 .4 5.9.5 6 .4 5.9.5 6 .4 5.9.5 6 .4 5.9.4 6 .5 6 .4 5.9.5 6 .4 5.9.4 6 .5 5.9.4 6 .5 6 .4 5.9.5 6 .4 5.9.4 6 .5 5.9.4 6 .5 5.9.8 12 .5 5.9.4 6 .5 5.9.4 6 .5 5.9.8 12 .5 5.9.4 6 .5 5.9.4 6 .4 5.9.5 6 .4 6 .5 5.9.4 6 .5 5.9.4 6 .4 5.9.5 6 .4 5.9.4 4.6"/>
   <path d="m108.5 65.3.4 4.3.5 4.4.4 4.4.5 4.4.4 4.3.5 4.4.8 8.8.5 4.3.4 4.4.5 4.4.4 4.4.4 4.3.5 4.4.4 4.4.5 4.4.4 4.3.5 4.4.8 8.8.5 4.3.4 4.4.5 4.4.4 4.3.4 4.4.5 4.4.4 4.4.5 4.3.4 4.4.5 4.4.4 4.4.4 4.3.5 4.4.4 4.4.5 4.4.4 4.3.4 4.4.5 4.4.4 4.4.5 4.3.4 4.4.5 4.4.4 4.4.4 4.3.5 4.4.4 4.4.5 4.4.4 4.3.4 4.4.5 4.4.4 4.4.5 4.3.4 4.4.5 4.4.4 4.3.4 4.4.5 4.4.4 4.4.5 4.3.8 8.8.5 4.4.4 4.3.5 4.4.4 4.4.5 4.4.4 4.3.4 4.4.5 4.4.4 4.4.5 4.3.8 8.8.5 4.4.4 4.3.5 4.4.4 4.4.5 4.4.1 1.5"/>
   <path d="m108.5 72.6.4 3.4.5 3.4.4 3.4.5 3.5.4 3.4.5 3.4.4 3.4.4 3.5.5 3.4.4 3.4.5 3.4.4 3.5.4 3.4.5 3.4.4 3.4.5 3.5.4 3.4.5 3.4.4 3.4.4 3.5.5 3.4.4 3.4.5 3.4.4 3.5.4 3.4.5 3.4.4 3.4.5 3.5.4 3.4.5 3.4.4 3.4.4 3.5.5 3.4.4 3.4.5 3.4.4 3.5.4 3.4.5 3.4.4 3.4.5 3.5.4 3.4.5 3.4.4 3.4.4 3.5.5 3.4.4 3.4.5 3.4.4 3.5.4 3.4.5 3.4.4 3.4.5 3.5.4 3.4.5 3.4.4 3.4.4 3.5.5 3.4.4 3.4.5 3.4.4 3.5.4 3.4.5 3.4.4 3.4.5 3.5.4 3.4.5 3.4.4 3.4.4 3.5.5 3.4.4 3.4.5 3.4.4 3.5.4 3.4.5 3.4.4 3.4.5 3.5.4 3.4.5 3.4.4 3.4.4 3.5.5 3.4.4 3.4.5 3.4.4 3.5.4 3.4.5 3.4.4 3.4.5 3.5.4 3.4.5 3.4.4 3.4.4 3.5.5 3.4.4 3.4.5 3.4.4 3.5.4 3.4.5 3.2"/>
   <path d="m108.5 79.9.4 2.7.5 2.8.4 2.8.5 2.8.4 2.8.5 2.8.8 5.6.5 2.8.4 2.8.5 2.8.4 2.8.4 2.7.5 2.8.4 2.8.5 2.8.4 2.8.5 2.8.8 5.6.5 2.8.4 2.8.5 2.8.8 5.6.5 2.7.4 2.8.5 2.8.4 2.8.5 2.8.8 5.6.5 2.8.4 2.8.5 2.8.8 5.6.5 2.8.4 2.7.5 2.8.4 2.8.5 2.8.8 5.6.5 2.8.4 2.8.5 2.8.8 5.6.5 2.8.4 2.7.5 2.8.4 2.8.5 2.8.8 5.6.5 2.8.4 2.8.5 2.8.8 5.6.5 2.8.4 2.8.5 2.7.4 2.8.5 2.8.8 5.6.5 2.8.4 2.8.5 2.8.8 5.6.5 2.8.4 2.8.5 2.7.4 2.8.5 2.8.8 5.6.5 2.8.4 2.8.5 2.8.8 5.6.5 2.8.4 2.8.5 2.8.4 2.7.5 2.8.8 5.6.5 2.8.4 2.8.5 2.8.8 5.6.5 2.8.4 2.8.5 2.8.4 2.7.5 2.8.8 5.6.5 2.8.4 2.8.5 2.8.8 5.6.5 2.8.4 2.8.5 2.8.4 2.8.5 2.7.8 5.6.5 2.8.2 1.5"/>
   <path d="m108.5 87.1.4 2.4.5 2.3.4 2.4.5 2.3.4 2.3.5 2.4.4 2.3.4 2.4.5 2.3.4 2.3.5 2.4.4 2.3.4 2.4.5 2.3.4 2.3.5 2.4.4 2.3.5 2.4.8 4.6.5 2.4.4 2.3.5 2.4.8 4.6.5 2.4.4 2.3.5 2.4.4 2.3.5 2.3.4 2.4.4 2.3.5 2.4.4 2.3.5 2.3.4 2.4.4 2.3.5 2.4.4 2.3.5 2.3.4 2.4.5 2.3.4 2.4.4 2.3.5 2.3.4 2.4.5 2.3.4 2.4.4 2.3.5 2.3.4 2.4.5 2.3.4 2.4.5 2.3.4 2.3.4 2.4.5 2.3.4 2.4.5 2.3.4 2.3.4 2.4.5 2.3.4 2.4.5 2.3.4 2.3.5 2.4.4 2.3.4 2.4.5 2.3.4 2.3.5 2.4.4 2.3.4 2.4.5 2.3.4 2.3.5 2.4.4 2.3.5 2.4.8 4.6.5 2.4.4 2.3.5 2.4.8 4.6.5 2.4.4 2.3.5 2.4.4 2.3.5 2.3.4 2.4.4 2.3.5 2.4.4 2.3.5 2.3.4 2.4.4 2.3.5 2.4.4 2.3.5 2.3.4 2.4.5 2.3.4 2.4.4 2.3.5 2.3.4 2.4.5 2.3.4 2.4.4 2.3.5 2.3.4 2.4.5 2.3.4 2.4.5 2.3.4 2.3.4 2.4.5 2.3.4 2.4.5 2.3.4 2.3.5 2.4.4 2.3.4 2.4.5 2.3.4 2.3.5 2.4.4 2.3.4 2.4.5 2.3.4 2.3.5 2.4.4 2.3.5 2.4.8 4.6.5 2.4.4 2.3.1.3"/>
   <path d="m108.5 94.4.4 2 .5 2 .4 2 .5 2 .4 2 .5 2 .8 4 .5 2 .4 2 .5 2 .8 4 .5 2.1.4 2 .5 2 .4 2 .5 2 .8 4 .5 2 .4 2 .5 2 .8 4 .5 2 .4 2 .5 2 .4 2 .5 2 .8 4 .5 2 .4 2 .5 2 .8 4 .5 2 .4 2 .5 2 .4 2 .5 2 .8 4 .5 2 .4 2 .5 2 .8 4 .5 2 .4 2 .5 2 .4 2 .5 2 .8 4 .5 2 .4 2 .5 2 .8 4 .5 2 .4 2 .5 2 .4 2 .5 2 .8 4 .5 2 .4 2 .5 2 .8 4 .5 2 .4 2 .5 2 .4 2 .5 2 .8 4 .5 2 .4 2 .5 2 .8 4 .5 2 .4 2 .5 2 .4 2 .5 2 .8 4 .5 2 .4 2 .5 2 .8 4 .5 2 .4 2 .5 2 .4 2 .5 2 .8 4 .5 2 .4 2 .5 2 .8 4 .5 2 .4 2 .5 2 .4 2 .5 2 .8 4 .5 2 .4 2.1.5 2 .4 2 .5 2 .8 4 .5 2 .4 2 .5 2 .8 4 .5 2 .4 2 .5 2 .4 2 .5 2 .8 4 .5 2 .4 2 .5 2 .8 4 .5 2 .4 2 .5 2 .4 2 .5 2 .8 4 .5 2 .4 2 .5 2 .8 4 .5 2 .4 2 .5 2 .4 2 .3 1.4"/>
   <path d="m108.5 101.7.4 1.8.5 1.7.4 1.7.5 1.8.4 1.7.5 1.8.8 3.4.5 1.8.4 1.7.5 1.7.4 1.8.4 1.7.5 1.8.4 1.7.5 1.7.4 1.8.5 1.7.4 1.7.4 1.8.5 1.7.4 1.7.5 1.8.4 1.7.4 1.8.5 1.7.4 1.7.5 1.8.4 1.7.5 1.7.4 1.8.4 1.7.5 1.8.4 1.7.5 1.7.4 1.8.4 1.7.5 1.7.4 1.8.5 1.7.4 1.8.5 1.7.4 1.7.4 1.8.5 1.7.4 1.7.5 1.8.4 1.7.4 1.8.5 1.7.4 1.7.5 1.8.4 1.7.5 1.7.4 1.8.4 1.7.5 1.8.4 1.7.5 1.7.4 1.8.4 1.7.5 1.7.4 1.8.5 1.7.4 1.8.5 1.7.4 1.7.4 1.8.5 1.7.4 1.7.5 1.8.4 1.7.4 1.8.5 1.7.4 1.7.5 1.8.4 1.7.5 1.7.4 1.8.4 1.7.5 1.7.4 1.8.5 1.7.4 1.8.4 1.7.5 1.7.4 1.8.5 1.7.4 1.7.5 1.8.4 1.7.4 1.8.5 1.7.4 1.7.5 1.8.8 3.4.5 1.8.4 1.7.5 1.8.4 1.7.5 1.7.4 1.8.4 1.7.5 1.7.4 1.8.5 1.7.4 1.8.4 1.7.5 1.7.4 1.8.5 1.7.4 1.7.5 1.8.4 1.7.4 1.8.5 1.7.4 1.7.5 1.8.4 1.7.5 1.7.4 1.8.4 1.7.5 1.8.4 1.7.5 1.7.4 1.8.4 1.7.5 1.7.4 1.8.5 1.7.4 1.7.5 1.8.4 1.7.4 1.8.5 1.7.4 1.7.5 1.8.8 3.4.5 1.8.4 1.7.5 1.8.4 1.7.5 1.7.4 1.8.4 1.7.5 1.7.4 1.8.5 1.7.4 1.8.4 1.7.5 1.7.4 1.8.5 1.7.4 1.7.5 1.8.4 1.7.4 1.8.5 1.7.4 1.7.5 1.8.8 3.4.5 1.8.4 1.7.5 1.8.4 1.7.5 1.7.4 1.8.4 1.7.5 1.7.4 1.8.5 1.7.4 1.8.4 1.7.2.5"/>
   <path d="m108.5 109 .4 1.5.5 1.6.4 1.5.5 1.5.4 1.6.5 1.5.8 3 .5 1.6.4 1.5.5 1.5.4 1.5.4 1.6.5 1.5.4 1.5.5 1.5.4 1.6.5 1.5.8 3 .5 1.6.4 1.5.5 1.5.4 1.6.4 1.5.5 1.5.4 1.5.5 1.6.4 1.5.5 1.5.4 1.5.4 1.6.5 1.5.4 1.5.5 1.5.4 1.6.4 1.5.5 1.5.4 1.5.5 1.6.4 1.5.5 1.5.4 1.6.4 1.5.5 1.5.4 1.5.5 1.6.8 3 .5 1.5.4 1.6.5 1.5.4 1.5.5 1.5.4 1.6.4 1.5.5 1.5.4 1.5.5 1.6.8 3 .5 1.6.4 1.5.5 1.5.4 1.5.5 1.6.8 3 .5 1.5.4 1.6.5 1.5.8 3 .5 1.6.4 1.5.5 1.5.4 1.5.5 1.6.8 3 .5 1.6.4 1.5.5 1.5.4 1.5.4 1.6.5 1.5.4 1.5.5 1.5.4 1.6.5 1.5.8 3 .5 1.6.4 1.5.5 1.5.4 1.5.4 1.6.5 1.5.4 1.5.5 1.6.4 1.5.5 1.5.4 1.5.4 1.6.5 1.5.4 1.5.5 1.5.4 1.6.4 1.5.5 1.5.4 1.5.5 1.6.4 1.5.5 1.5.4 1.5.4 1.6.5 1.5.4 1.5.5 1.6.4 1.5.5 1.5.4 1.5.4 1.6.5 1.5.4 1.5.5 1.5.4 1.6.4 1.5.5 1.5.4 1.5.5 1.6.4 1.5.5 1.5.4 1.5.4 1.6.5 1.5.4 1.5.5 1.6.8 3 .5 1.5.4 1.6.5 1.5.4 1.5.5 1.5.4 1.6.4 1.5.5 1.5.4 1.5.5 1.6.8 3 .5 1.5.4 1.6.5 1.5.4 1.5.5 1.6.8 3 .5 1.5.4 1.6.5 1.5.8 3 .5 1.6.4 1.5.5 1.5.4 1.5.5 1.6.8 3 .5 1.5.4 1.6.5 1.5.4 1.5.4 1.6.5 1.5.4 1.5.5 1.5.4 1.6.5 1.5.8 3 .5 1.6.4 1.5.5 1.5.4 1.5.4 1.6.5 1.5.4 1.5.5 1.5.4 1.6.5 1.5.4 1.5.4 1.6.4 1.3"/>
   <path d="m108.5 116.3.4 1.4.5 1.3.4 1.4.5 1.3.4 1.4.5 1.3.4 1.4.4 1.3.5 1.4.4 1.4.5 1.3.4 1.4.4 1.3.5 1.4.4 1.3.5 1.4.4 1.3.5 1.4.4 1.3.4 1.4.5 1.3.4 1.4.5 1.3.8 2.8.5 1.3.4 1.4.5 1.3.4 1.4.5 1.3.4 1.4.4 1.3.5 1.4.4 1.3.5 1.4.4 1.3.4 1.4.5 1.4.4 1.3.5 1.4.4 1.3.5 1.4.4 1.3.4 1.4.5 1.3.4 1.4.5 1.3.4 1.4.4 1.3.5 1.4.4 1.4.5 1.3.4 1.4.5 1.3.4 1.4.4 1.3.5 1.4.4 1.3.5 1.4.4 1.3.4 1.4.5 1.3.4 1.4.5 1.4.4 1.3.5 1.4.4 1.3.4 1.4.5 1.3.4 1.4.5 1.3.4 1.4.4 1.3.5 1.4.4 1.3.5 1.4.4 1.3.5 1.4.4 1.4.4 1.3.5 1.4.4 1.3.5 1.4.4 1.3.4 1.4.5 1.3.4 1.4.5 1.3.4 1.4.5 1.3.8 2.8.5 1.3.4 1.4.5 1.3.4 1.4.4 1.3.5 1.4.4 1.3.5 1.4.4 1.3.5 1.4.4 1.3.4 1.4.5 1.4.4 1.3.5 1.4.4 1.3.4 1.4.5 1.3.4 1.4.5 1.3.4 1.4.5 1.3.4 1.4.4 1.3.5 1.4.4 1.4.5 1.3.4 1.4.5 1.3.4 1.4.4 1.3.5 1.4.4 1.3.5 1.4.4 1.3.4 1.4.5 1.3.4 1.4.5 1.4.4 1.3.5 1.4.4 1.3.4 1.4.5 1.3.4 1.4.5 1.3.4 1.4.4 1.3.5 1.4.4 1.3.5 1.4.4 1.3.5 1.4.4 1.4.4 1.3.5 1.4.4 1.3.5 1.4.4 1.3.4 1.4.5 1.3.4 1.4.5 1.3.4 1.4.5 1.3.8 2.8.5 1.3.4 1.4.5 1.3.4 1.4.4 1.3.5 1.4.4 1.3.5 1.4.4 1.3.5 1.4.4 1.3.4 1.4.5 1.4.4 1.3.5 1.4.4 1.3.4 1.4.5 1.3.4 1.4.5 1.3.4 1.4.5 1.3.4 1.4.4 1.3.5 1.4.4 1.4.5 1.3.4 1.4.4 1.3.5 1.4.4 1.3.5 1.4.4 1.3.5 1.4.4 1.3.4 1.4.5 1.3.4 1.4.5 1.3.8 2.8.5 1.3.4 1.4.5 1.3.4 1.4.5 1.3.4 1.4.4 1.3.5 1.4.4 1.3.5 1.4.4 1.3.4 1.4.5 1.4.4 1.3.5 1.4.2.6"/>
   <path d="m108.5 123.6.4 1.2.5 1.2.4 1.2.5 1.2.4 1.3.5 1.2.8 2.4.5 1.2.4 1.2.5 1.2.8 2.4.5 1.2.4 1.3.5 1.2.4 1.2.5 1.2.8 2.4.5 1.2.4 1.2.5 1.2.4 1.2.4 1.3.5 1.2.4 1.2.5 1.2.4 1.2.5 1.2.8 2.4.5 1.2.4 1.2.5 1.3.8 2.4.5 1.2.4 1.2.5 1.2.4 1.2.5 1.2.8 2.4.5 1.3.4 1.2.5 1.2.8 2.4.5 1.2.4 1.2.5 1.2.4 1.2.5 1.2.4 1.2.4 1.3.5 1.2.4 1.2.5 1.2.8 2.4.5 1.2.4 1.2.5 1.2.4 1.2.5 1.3.8 2.4.5 1.2.4 1.2.5 1.2.8 2.4.5 1.2.4 1.2.5 1.3.4 1.2.5 1.2.8 2.4.5 1.2.4 1.2.5 1.2.8 2.4.5 1.3.4 1.2.5 1.2.4 1.2.5 1.2.8 2.4.5 1.2.4 1.2.5 1.2.4 1.3.4 1.2.5 1.2.4 1.2.5 1.2.4 1.2.5 1.2.8 2.4.5 1.2.4 1.3.5 1.2.8 2.4.5 1.2.4 1.2.5 1.2.4 1.2.5 1.2.4 1.2.4 1.3.5 1.2.4 1.2.5 1.2.4 1.2.5 1.2.8 2.4.5 1.2.4 1.2.5 1.3.8 2.4.5 1.2.4 1.2.5 1.2.4 1.2.5 1.2.8 2.4.5 1.3.4 1.2.5 1.2.8 2.4.5 1.2.4 1.2.5 1.2.4 1.2.5 1.2.4 1.2.4 1.3.5 1.2.4 1.2.5 1.2.8 2.4.5 1.2.4 1.2.5 1.2.4 1.2.5 1.3.8 2.4.5 1.2.4 1.2.5 1.2.8 2.4.5 1.2.4 1.2.5 1.3.4 1.2.5 1.2.8 2.4.5 1.2.4 1.2.5 1.2.8 2.4.5 1.3.4 1.2.5 1.2.4 1.2.5 1.2.8 2.4.5 1.2.4 1.2.5 1.2.4 1.3.4 1.2.5 1.2.4 1.2.5 1.2.4 1.2.5 1.2.8 2.4.5 1.2.4 1.3.5 1.2.8 2.4.5 1.2.4 1.2.5 1.2.4 1.2.5 1.2.4 1.2.4 1.3.5 1.2.4 1.2.5 1.2.8 2.4.5 1.2.4 1.2.5 1.2.4 1.2.5 1.3.8 2.4.5 1.2.4 1.2.5 1.2.4 1.2.5 1.2.8 2.4.5 1.2.4 1.3.5 1.2.8 2.4.5 1.2.4 1.2.5 1.2.4 1.2v.1"/>
   <path d="m108.5 130.9.4 1.1.5 1.1.4 1.1.5 1.1.4 1 .5 1.1.8 2.2.5 1.1.4 1.1.5 1.1.4 1.1.4 1 .5 1.1.4 1.1.5 1.1.4 1.1.5 1.1.8 2.2.5 1 .4 1.1.5 1.1.8 2.2.5 1.1.4 1.1.5 1.1.4 1.1.5 1 .8 2.2.5 1.1.4 1.1.5 1.1.8 2.2.5 1 .4 1.1.5 1.1.4 1.1.5 1.1.8 2.2.5 1.1.4 1.1.5 1 .8 2.2.5 1.1.4 1.1.5 1.1.4 1.1.5 1.1.4 1 .4 1.1.5 1.1.4 1.1.5 1.1.8 2.2.5 1.1.4 1.1.5 1 .4 1.1.5 1.1.8 2.2.5 1.1.4 1.1.5 1.1.4 1 .4 1.1.5 1.1.4 1.1.5 1.1.4 1.1.5 1.1.8 2.2.5 1 .4 1.1.5 1.1.8 2.2.5 1.1.4 1.1.5 1.1.4 1 .5 1.1.8 2.2.5 1.1.4 1.1.5 1.1.8 2.2.5 1 .4 1.1.5 1.1.4 1.1.5 1.1.8 2.2.5 1.1.4 1 .5 1.1.8 2.2.5 1.1.4 1.1.5 1.1.4 1.1.5 1.1.4 1 .4 1.1.5 1.1.4 1.1.5 1.1.4 1.1.5 1.1.4 1.1.4 1 .5 1.1.4 1.1.5 1.1.8 2.2.5 1.1.4 1.1.5 1 .4 1.1.5 1.1.8 2.2.5 1.1.4 1.1.5 1.1.4 1.1.4 1 .5 1.1.4 1.1.5 1.1.4 1.1.5 1.1.8 2.2.5 1 .4 1.1.5 1.1.8 2.2.5 1.1.4 1.1.5 1.1.4 1.1.5 1 .8 2.2.5 1.1.4 1.1.5 1.1.8 2.2.5 1 .4 1.1.5 1.1.4 1.1.5 1.1.8 2.2.5 1.1.4 1.1.5 1 .8 2.2.5 1.1.4 1.1.5 1.1.4 1.1.5 1.1.4 1 .4 1.1.5 1.1.4 1.1.5 1.1.8 2.2.5 1.1.4 1.1.5 1 .4 1.1.5 1.1.8 2.2.5 1.1.4 1.1.5 1.1.4 1 .4 1.1.5 1.1.4 1.1.5 1.1.4 1.1.5 1.1.8 2.2.5 1 .4 1.1.5 1.1.8 2.2.5 1.1.4 1.1.5 1.1.4 1 .5 1.1.8 2.2.5 1.1.4 1.1.5 1.1.4 1.1.5 1.1.4 1 .4 1.1.5 1.1.4 1.1.5 1.1.8 2.2.5 1.1.4 1 .5 1.1.4 1.1.5 1.1.8 2.2.5 1.1.4 1.1.5 1 .8 2.2.5 1.1.4 1.1.5 1.1.4 1.1.5 1.1.4 1.1.4 1 .5 1.1.4 1.1.5 1.1.4 1.1.3.7"/>
   <path d="m108.5 138.2.4 1 .5 1 .4.9.5 1 .4 1 .5 1 .8 2 .5.9.4 1 .5 1 .8 2 .5 1 .4.9.5 1 .4 1 .5 1 .8 2 .5 1 .4.9.5 1 .8 2 .5 1 .4 1 .5.9.4 1 .5 1 .8 2 .5 1 .4.9.5 1 .8 2 .5 1 .4 1 .5.9.4 1 .5 1 .8 2 .5 1 .4.9.5 1 .8 2 .5 1 .4 1 .5 1 .4.9.5 1 .8 2 .5 1 .4 1 .5.9.8 2 .5 1 .4 1 .5 1 .4.9.5 1 .8 2 .5 1 .4 1 .5.9.8 2 .5 1 .4 1 .5 1 .4.9.5 1 .8 2 .5 1 .4 1 .5 1 .4.9.4 1 .5 1 .4 1 .5 1 .4 1 .5.9.8 2 .5 1 .4 1 .5 1 .4.9.4 1 .5 1 .4 1 .5 1 .4 1 .5.9.8 2 .5 1 .4 1 .5 1 .4.9.4 1 .5 1 .4 1 .5 1 .4 1 .5 1 .4.9.4 1 .5 1 .4 1 .5 1 .4 1 .5.9.8 2 .5 1 .4 1 .5 1 .4.9.4 1 .5 1 .4 1 .5 1 .4 1 .5.9.8 2 .5 1 .4 1 .5 1 .4.9.4 1 .5 1 .4 1 .5 1 .4 1 .5 1 .4.9.4 1 .5 1 .4 1 .5 1 .4 1 .4.9.5 1 .4 1 .5 1 .4 1 .5 1 .4.9.4 1 .5 1 .4 1 .5 1 .4 1 .4.9.5 1 .4 1 .5 1 .4 1 .5 1 .4.9.4 1 .5 1 .4 1 .5 1 .4 1 .4.9.5 1 .4 1 .5 1 .4 1 .5 1 .4 1 .4.9.5 1 .4 1 .5 1 .8 2 .5.9.4 1 .5 1 .4 1 .5 1 .4 1 .4.9.5 1 .4 1 .5 1 .8 2 .5.9.4 1 .5 1 .4 1 .5 1 .4 1 .4.9.5 1 .4 1 .5 1 .8 2 .5 1 .4.9.5 1 .4 1 .5 1 .8 2 .5.9.4 1 .5 1 .4 1 .5 1 .4 1 .4.9.5 1 .4 1 .5 1 .8 2 .5.9.4 1 .5 1 .4 1 .5 1 .4 1 .4.9.5 1 .4 1 .5 1 .8 2 .5 1 .4.9.5 1 .4 1 .5 1 .8 2 .5.9.4 1 .5 1 .8 2 .5 1 .4.9.5 1 .4 1 .5 1 .8 2 .5.9.4 1 .5 1 .8 2 .5 1 .4.9.5 1 .4 1 .5 1 .8 2 .1.2"/>
   <path d="m108.5 145.5.4.9.5.9.4.9.5.9.4.8.5.9.8 1.8.5.9.4.9.5.9.8 1.8.5.9.4.9.5.9.4.9.5.9.8 1.8.5.8.4.9.5.9.8 1.8.5.9.4.9.5.9.4.9.5.9.8 1.8.5.9.4.9.5.9.4.8.4.9.5.9.4.9.5.9.4.9.5.9.8 1.8.5.9.4.9.5.9.8 1.8.5.9.4.8.5.9.4.9.5.9.8 1.8.5.9.4.9.5.9.8 1.8.5.9.4.9.5.9.4.9.5.9.4.8.4.9.5.9.4.9.5.9.8 1.8.5.9.4.9.5.9.4.9.5.9.8 1.8.5.9.4.8.5.9.8 1.8.5.9.4.9.5.9.4.9.5.9.8 1.8.5.9.4.9.5.9.4.9.4.8.5.9.4.9.5.9.4.9.5.9.8 1.8.5.9.4.9.5.9.8 1.8.5.9.4.9.5.8.4.9.5.9.8 1.8.5.9.4.9.5.9.4.9.5.9.8 1.8.5.9.4.9.5.9.4.9.4.8.5.9.4.9.5.9.4.9.5.9.8 1.8.5.9.4.9.5.9.8 1.8.5.9.4.9.5.8.4.9.5.9.8 1.8.5.9.4.9.5.9.8 1.8.5.9.4.9.5.9.4.9.5.9.4.8.4.9.5.9.4.9.5.9.8 1.8.5.9.4.9.5.9.4.9.5.9.8 1.8.5.9.4.8.5.9.8 1.8.5.9.4.9.5.9.4.9.5.9.8 1.8.5.9.4.9.5.9.8 1.8.5.8.4.9.5.9.4.9.5.9.8 1.8.5.9.4.9.5.9.8 1.8.5.9.4.9.5.9.4.8.5.9.8 1.8.5.9.4.9.5.9.8 1.8.5.9.4.9.5.9.4.9.5.9.4.9.4.8.5.9.4.9.5.9.4.9.5.9.8 1.8.5.9.4.9.5.9.8 1.8.5.9.4.9.5.9.4.8.5.9.8 1.8.5.9.4.9.5.9.8 1.8.5.9.4.9.5.9.4.9.5.9.4.9.4.8.5.9.4.9.5.9.8 1.8.5.9.4.9.5.9.4.9.5.9.8 1.8.5.9.4.9.5.8.8 1.8.5.9.4.9.5.9.4.9.5.9.8 1.8.5.9.4.9.5.9.8 1.8.5.8.4.9.5.9.4.9.5.9.8 1.8.5.9.4.9.5.9.8 1.8.5.9.4.9.4.7"/>
   <path d="m108.5 152.8.4.8.5.8.4.8.5.8.4.8.5.9.8 1.6.5.8.4.8.5.8.4.8.4.9.5.8.4.8.5.8.4.8.5.8.4.8.4.9.5.8.4.8.5.8.8 1.6.5.8.4.9.5.8.4.8.5.8.8 1.6.5.8.4.9.5.8.8 1.6.5.8.4.8.5.8.4.9.5.8.8 1.6.5.8.4.8.5.8.4.9.4.8.5.8.4.8.5.8.4.8.5.8.4.9.4.8.5.8.4.8.5.8.8 1.6.5.9.4.8.5.8.4.8.5.8.4.8.4.9.5.8.4.8.5.8.8 1.6.5.8.4.9.5.8.4.8.5.8.8 1.6.5.8.4.9.5.8.8 1.6.5.8.4.8.5.8.4.9.5.8.8 1.6.5.8.4.8.5.8.4.9.4.8.5.8.4.8.5.8.4.8.5.8.4.9.4.8.5.8.4.8.5.8.8 1.6.5.9.4.8.5.8.4.8.5.8.8 1.6.5.9.4.8.5.8.4.8.5.8.8 1.6.5.9.4.8.5.8.8 1.6.5.8.4.8.5.9.4.8.5.8.8 1.6.5.8.4.8.5.9.8 1.6.5.8.4.8.5.8.4.8.5.9.8 1.6.5.8.4.8.5.8.4.8.4.9.5.8.4.8.5.8.4.8.5.8.4.8.4.9.5.8.4.8.5.8.8 1.6.5.8.4.9.5.8.4.8.5.8.8 1.6.5.8.4.9.5.8.8 1.6.5.8.4.8.5.8.4.9.5.8.8 1.6.5.8.4.8.5.8.4.9.4.8.5.8.4.8.5.8.4.8.5.8.4.9.4.8.5.8.4.8.5.8.8 1.6.5.9.4.8.5.8.4.8.5.8.8 1.6.5.9.4.8.5.8.8 1.6.5.8.4.8.5.9.4.8.5.8.8 1.6.5.8.4.8.5.9.4.8.5.8.8 1.6.5.8.4.8.5.9.8 1.6.5.8.4.8.5.8.4.8.5.9.8 1.6.5.8.4.8.5.8.4.8.4.9.5.8.4.8.5.8.4.8.5.8.4.8.4.9.5.8.4.8.5.8.8 1.6.5.8.4.9.5.8.4.8.5.8.8 1.6.5.8.4.9.5.8.8 1.6.5.8.4.8.5.8.4.9.5.8.8 1.6.5.8.4.8.5.8.4.9.4.8.5.8.4.8.5.8.4.8.5.8.4.9.4.8.5.8.4.8.5.8.8 1.6.5.9.4.8.5.8.4.8.5.8.8 1.6.5.9.4.8.5.8.8 1.6.5.8.4.8.5.9.4.8.5.8.8 1.6.5.8.4.9.5.8.1.3"/>
   <path d="m108.5 160.1.4.7.5.8.4.7.5.7.4.8.5.7.4.8.4.7.5.8.4.7.5.8.8 1.4.5.8.4.7.5.8.4.7.5.8.4.7.4.8.5.7.4.7.5.8.4.7.4.8.5.7.4.8.5.7.4.8.5.7.4.7.4.8.5.7.4.8.5.7.4.8.4.7.5.8.4.7.5.7.4.8.5.7.4.8.4.7.5.8.4.7.5.8.8 1.4.5.8.4.7.5.8.4.7.5.8.4.7.4.8.5.7.4.8.5.7.4.7.4.8.5.7.4.8.5.7.4.8.5.7.4.8.4.7.5.7.4.8.5.7.4.8.4.7.5.8.4.7.5.8.4.7.5.7.4.8.4.7.5.8.4.7.5.8.4.7.4.8.5.7.4.7.5.8.4.7.5.8.4.7.4.8.5.7.4.8.5.7.4.7.4.8.5.7.4.8.5.7.4.8.5.7.4.8.4.7.5.7.4.8.5.7.4.8.4.7.5.8.4.7.5.8.4.7.5.7.4.8.4.7.5.8.4.7.5.8.4.7.5.8.8 1.4.5.8.4.7.5.8.4.7.4.8.5.7.4.8.5.7.4.7.5.8.4.7.4.8.5.7.4.8.5.7.4.8.4.7.5.7.4.8.5.7.4.8.5.7.4.8.4.7.5.8.4.7.5.7.4.8.4.7.5.8.4.7.5.8.4.7.5.8.8 1.4.5.8.4.7.5.8.4.7.4.8.5.7.4.8.5.7.4.8.5.7.4.7.4.8.5.7.4.8.5.7.4.8.4.7.5.8.4.7.5.7.4.8.5.7.4.8.4.7.5.8.4.7.5.8.8 1.4.5.8.4.7.5.8.4.7.5.8.4.7.4.8.5.7.4.7.5.8.4.7.4.8.5.7.4.8.5.7.4.8.5.7.4.7.4.8.5.7.4.8.5.7.4.8.4.7.5.8.4.7.5.7.4.8.5.7.4.8.4.7.5.8.4.7.5.8.4.7.5.7.4.8.4.7.5.8.4.7.5.8.4.7.4.8.5.7.4.7.5.8.4.7.5.8.4.7.4.8.5.7.4.8.5.7.4.7.4.8.5.7.4.8.5.7.4.8.5.7.4.8.4.7.5.7.4.8.5.7.4.8.4.7.5.8.4.7.5.8.4.7.5.7.4.8.4.7.5.8.4.7.5.8.4.7.4.8.5.7.4.7.5.8.4.7.5.8.4.7.4.8.5.7.4.8.5.7.4.8.4.7.5.7.4.8.5.7.4.8.5.7.4.8.4.7.5.8.4.7.5.7.4.8.4.7.5.8.4.7.5.8.4.7.5.8.8 1.4.5.8.4.7.5.8.4.7.4.8.5.7.4.8.5.7.4.7.5.8.4.7.4.8.5.7.4.8.5.7.4.8.4.7.5.7.4.8.5.7.4.8.5.7.4.8.4.7.5.8.4.7.5.7.4.8.4.7.5.8.4.7.5.8.4.7.5.8.4.7"/>
   <path d="m108.5 167.4.4.6.5.7.4.7.5.7.4.7.5.7.4.6.4.7.5.7.4.7.5.7.4.6.4.7.5.7.4.7.5.7.4.7.5.6.8 1.4.5.7.4.7.5.7.4.6.4.7.5.7.4.7.5.7.4.7.5.6.8 1.4.5.7.4.7.5.6.8 1.4.5.7.4.7.5.7.4.6.5.7.8 1.4.5.7.4.7.5.6.8 1.4.5.7.4.7.5.6.4.7.5.7.8 1.4.5.7.4.6.5.7.8 1.4.5.7.4.7.5.6.4.7.5.7.8 1.4.5.7.4.6.5.7.8 1.4.5.7.4.6.5.7.4.7.5.7.8 1.4.5.6.4.7.5.7.8 1.4.5.7.4.6.5.7.4.7.5.7.4.7.4.6.5.7.4.7.5.7.8 1.4.5.6.4.7.5.7.4.7.5.7.4.7.4.6.5.7.4.7.5.7.8 1.4.5.6.4.7.5.7.4.7.5.7.4.6.4.7.5.7.4.7.5.7.4.7.5.6.8 1.4.5.7.4.7.5.7.4.6.4.7.5.7.4.7.5.7.4.6.5.7.8 1.4.5.7.4.7.5.6.8 1.4.5.7.4.7.5.7.4.6.5.7.8 1.4.5.7.4.7.5.6.8 1.4.5.7.4.7.5.6.4.7.5.7.8 1.4.5.7.4.6.5.7.8 1.4.5.7.4.7.5.6.4.7.5.7.8 1.4.5.6.4.7.5.7.8 1.4.5.7.4.6.5.7.4.7.5.7.8 1.4.5.6.4.7.5.7.8 1.4.5.7.4.6.5.7.4.7.5.7.4.7.4.6.5.7.4.7.5.7.8 1.4.5.6.4.7.5.7.4.7.5.7.4.7.4.6.5.7.4.7.5.7.4.7.4.6.5.7.4.7.5.7.4.7.5.7.4.6.4.7.5.7.4.7.5.7.4.7.5.6.8 1.4.5.7.4.7.5.7.4.6.4.7.5.7.4.7.5.7.4.6.5.7.8 1.4.5.7.4.7.5.6.8 1.4.5.7.4.7.5.7.4.6.5.7.8 1.4.5.7.4.6.5.7.8 1.4.5.7.4.7.5.6.4.7.5.7.8 1.4.5.7.4.6.5.7.8 1.4.5.7.4.7.5.6.4.7.5.7.8 1.4.5.6.4.7.5.7.8 1.4.5.7.4.6.5.7.4.7.5.7.8 1.4.5.6.4.7.5.7.8 1.4.5.6.4.7.5.7.4.7.5.7.4.7.4.6.5.7.4.7.5.7.8 1.4.5.6.4.7.5.7.4.7.5.7.4.7.4.6.5.7.4.7.5.7.4.7.4.6.5.7.4.7.5.7.4.7.5.7.4.6.4.7.5.7.4.7.5.7.4.7.4.6.5.7.4.7.5.7.4.7.5.6.8 1.4.5.7.4.7.5.7.4.6.5.7.8 1.4.5.7.4.7.5.6.8 1.4.5.7.4.7.5.7.4.6.5.7.4.7.3.4"/>
   <path d="m108.5 174.7.4.6.5.6.4.6.5.7.4.6.5.6.4.6.4.7.5.6.4.6.5.6.4.7.4.6.5.6.4.7.5.6.4.6.5.6.4.7.4.6.5.6.4.6.5.7.8 1.2.5.7.4.6.5.6.4.6.5.7.8 1.2.5.6.4.7.5.6.8 1.2.5.7.4.6.5.6.4.7.5.6.8 1.2.5.7.4.6.5.6.4.6.4.7.5.6.4.6.5.7.4.6.5.6.4.6.4.7.5.6.4.6.5.6.4.7.4.6.5.6.4.7.5.6.4.6.5.6.4.7.4.6.5.6.4.6.5.7.8 1.2.5.6.4.7.5.6.4.6.5.7.8 1.2.5.6.4.7.5.6.8 1.2.5.7.4.6.5.6.4.7.5.6.8 1.2.5.7.4.6.5.6.4.6.4.7.5.6.4.6.5.6.4.7.5.6.4.6.4.7.5.6.4.6.5.6.4.7.4.6.5.6.4.6.5.7.4.6.5.6.4.7.4.6.5.6.4.6.5.7.4.6.5.6.4.6.4.7.5.6.4.6.5.7.8 1.2.5.6.4.7.5.6.4.6.5.6.4.7.4.6.5.6.4.6.5.7.8 1.2.5.7.4.6.5.6.4.6.5.7.8 1.2.5.6.4.7.5.6.4.6.4.7.5.6.4.6.5.6.4.7.5.6.8 1.2.5.7.4.6.5.6.4.6.4.7.5.6.4.6.5.7.4.6.5.6.4.6.4.7.5.6.4.6.5.6.4.7.4.6.5.6.4.7.5.6.4.6.5.6.4.7.4.6.5.6.4.6.5.7.8 1.2.5.7.4.6.5.6.4.6.5.7.8 1.2.5.6.4.7.5.6.8 1.2.5.7.4.6.5.6.4.7.5.6.8 1.2.5.7.4.6.5.6.4.6.4.7.5.6.4.6.5.7.4.6.5.6.4.6.4.7.5.6.4.6.5.6.4.7.5.6.8 1.2.5.7.4.6.5.6.4.7.4.6.5.6.4.6.5.7.4.6.5.6.4.6.4.7.5.6.4.6.5.7.8 1.2.5.6.4.7.5.6.4.6.5.6.4.7.4.6.5.6.4.7.5.6.8 1.2.5.7.4.6.5.6.4.6.5.7.8 1.2.5.6.4.7.5.6.4.6.4.7.5.6.4.6.5.6.4.7.5.6.8 1.2.5.7.4.6.5.6.4.7.4.6.5.6.4.6.5.7.4.6.5.6.4.6.4.7.5.6.4.6.5.6.4.7.4.6.5.6.4.7.5.6.4.6.5.6.4.7.4.6.5.6.4.6.5.7.8 1.2.5.7.4.6.5.6.4.6.5.7.8 1.2.5.6.4.7.5.6.4.6.4.7.5.6.4.6.5.6.4.7.5.6.8 1.2.5.7.4.6.5.6.4.6.4.7.5.6.4.6.5.7.4.6.5.6.4.6.4.7.5.6.4.6.5.6.4.7.5.6.4.6.4.7.5.6.4.6.5.6.4.7.4.6.5.6.4.6.5.7.4.6.5.6.4.6.4.7.5.6.4.6.5.7.8 1.2.5.6.4.7.5.6.4.6.5.6.4.7.4.6.5.6.4.7.5.6.8 1.2.5.7.4.6.1.1"/>
   <path d="m108.5 181.9.4.6.5.6.4.6.5.6.4.5.5.6.8 1.2.5.5.4.6.5.6.4.6.4.5.5.6.4.6.5.6.4.6.5.5.8 1.2.5.6.4.5.5.6.8 1.2.5.5.4.6.5.6.4.6.5.6.4.5.4.6.5.6.4.6.5.5.8 1.2.5.6.4.5.5.6.4.6.5.6.4.6.4.5.5.6.4.6.5.6.4.5.4.6.5.6.4.6.5.5.4.6.5.6.8 1.2.5.5.4.6.5.6.4.6.4.5.5.6.4.6.5.6.4.5.5.6.8 1.2.5.6.4.5.5.6.8 1.2.5.5.4.6.5.6.4.6.5.6.4.5.4.6.5.6.4.6.5.5.8 1.2.5.6.4.5.5.6.4.6.5.6.4.6.4.5.5.6.4.6.5.6.4.5.4.6.5.6.4.6.5.5.4.6.5.6.8 1.2.5.5.4.6.5.6.4.6.4.5.5.6.4.6.5.6.4.5.5.6.8 1.2.5.6.4.5.5.6.4.6.5.6.4.5.4.6.5.6.4.6.5.5.8 1.2.5.6.4.6.5.5.4.6.5.6.4.6.4.5.5.6.4.6.5.6.4.5.4.6.5.6.4.6.5.6.4.5.5.6.8 1.2.5.5.4.6.5.6.8 1.2.5.5.4.6.5.6.4.6.5.5.8 1.2.5.6.4.5.5.6.8 1.2.5.6.4.5.5.6.4.6.5.6.4.5.4.6.5.6.4.6.5.5.8 1.2.5.6.4.6.5.5.4.6.5.6.4.6.4.5.5.6.4.6.5.6.4.5.4.6.5.6.4.6.5.6.4.5.5.6.8 1.2.5.5.4.6.5.6.4.6.4.5.5.6.4.6.5.6.4.6.5.5.8 1.2.5.6.4.5.5.6.8 1.2.5.5.4.6.5.6.4.6.5.6.4.5.4.6.5.6.4.6.5.5.4.6.5.6.8 1.2.5.5.4.6.5.6.4.6.4.5.5.6.4.6.5.6.4.5.5.6.8 1.2.5.6.4.5.5.6.8 1.2.5.5.4.6.5.6.4.6.5.5.8 1.2.5.6.4.6.5.5.8 1.2.5.6.4.5.5.6.4.6.5.6.4.5.4.6.5.6.4.6.5.6.4.5.4.6.5.6.4.6.5.5.4.6.5.6.4.6.4.5.5.6.4.6.5.6.4.6.4.5.5.6.4.6.5.6.4.5.5.6.8 1.2.5.5.4.6.5.6.8 1.2.5.5.4.6.5.6.4.6.5.5.8 1.2.5.6.4.5.5.6.8 1.2.5.6.4.5.5.6.4.6.5.6.4.5.4.6.5.6.4.6.5.6.4.5.4.6.5.6.4.6.5.5.4.6.5.6.4.6.4.5.5.6.4.6.5.6.4.6.4.5.5.6.4.6.5.6.4.5.5.6.8 1.2.5.5.4.6.5.6.4.6.5.6.4.5.4.6.5.6.4.6.5.5.8 1.2.5.6.4.5.5.6.4.6.5.6.4.6.4.5.5.6.4.6.5.6.4.5.4.6.5.6.4.6.5.5.4.6.5.6.8 1.2.5.5.4.6.5.6.4.6.4.5.5.6.4.6.5.6.4.5.5.6.8 1.2.5.6.4.5.5.6.8 1.2.5.5.4.6.5.6.4.6.5.6.4.5.4.6.5.6.4.6.4.4"/>
   <path d="m108.5 189.2.4.6.5.5.4.5.5.6.4.5.5.5.4.6.4.5.5.5.4.6.5.5.8 1 .5.6.4.5.5.5.4.6.5.5.4.5.4.6.5.5.4.5.5.6.8 1 .5.6.4.5.5.5.4.6.5.5.4.5.4.6.5.5.4.5.5.5.4.6.4.5.5.5.4.6.5.5.4.5.5.6.8 1 .5.6.4.5.5.5.4.6.4.5.5.5.4.6.5.5.4.5.5.6.8 1 .5.5.4.6.5.5.4.5.4.6.5.5.4.5.5.6.4.5.5.5.4.6.4.5.5.5.4.6.5.5.4.5.4.6.5.5.4.5.5.6.4.5.5.5.4.5.4.6.5.5.4.5.5.6.8 1 .5.6.4.5.5.5.4.6.5.5.4.5.4.6.5.5.4.5.5.6.8 1 .5.6.4.5.5.5.4.5.5.6.8 1 .5.6.4.5.5.5.4.6.4.5.5.5.4.6.5.5.4.5.5.6.8 1 .5.6.4.5.5.5.4.6.5.5.8 1 .5.6.4.5.5.5.4.6.4.5.5.5.4.6.5.5.4.5.5.6.8 1 .5.6.4.5.5.5.4.6.4.5.5.5.4.6.5.5.4.5.5.5.4.6.4.5.5.5.4.6.5.5.4.5.4.6.5.5.4.5.5.6.4.5.5.5.4.6.4.5.5.5.4.6.5.5.4.5.4.6.5.5.4.5.5.5.4.6.5.5.4.5.4.6.5.5.4.5.5.6.8 1 .5.6.4.5.5.5.4.6.5.5.4.5.4.6.5.5.4.5.5.6.8 1 .5.5.4.6.5.5.4.5.5.6.8 1 .5.6.4.5.5.5.4.6.4.5.5.5.4.6.5.5.4.5.5.6.8 1 .5.6.4.5.5.5.4.5.4.6.5.5.4.5.5.6.4.5.5.5.4.6.4.5.5.5.4.6.5.5.4.5.5.6.8 1 .5.6.4.5.5.5.4.6.4.5.5.5.4.5.5.6.4.5.5.5.4.6.4.5.5.5.4.6.5.5.4.5.4.6.5.5.4.5.5.6.4.5.5.5.4.6.4.5.5.5.4.6.5.5.8 1 .5.6.4.5.5.5.4.6.5.5.4.5.4.6.5.5.4.5.5.6.8 1 .5.6.4.5.5.5.4.6.5.5.4.5.4.6.5.5.4.5.5.5.4.6.4.5.5.5.4.6.5.5.4.5.5.6.8 1 .5.6.4.5.5.5.4.6.4.5.5.5.4.6.5.5.4.5.5.6.8 1 .5.5.4.6.5.5.4.5.4.6.5.5.4.5.5.6.4.5.5.5.4.6.4.5.5.5.4.6.5.5.4.5.4.6.5.5.4.5.5.6.4.5.5.5.4.5.4.6.5.5.4.5.5.6.8 1 .5.6.4.5.5.5.4.6.5.5.4.5.4.6.5.5.4.5.5.6.4.5.5.5.4.6.4.5.5.5.4.5.5.6.8 1 .5.6.4.5.5.5.4.6.5.5.4.5.4.6.5.5.4.5.5.6.8 1 .5.6.4.5.5.5.4.6.5.5.8 1 .5.6.4.5.5.5.4.6.4.5.5.5.4.6.5.5.4.5.5.6.8 1 .5.6.4.5.5.5.4.6.4.5.5.5.4.6.5.5.4.5.5.5.4.6.4.5.5.5.4.6.5.5.4.5.4.6.5.5.4.5.5.6.4.5.5.5.4.6.4.5.5.5.4.6.5.5.4.5.4.6.5.5.4.5.5.5.4.6.5.5.1.2"/>
   <path d="m108.5 196.5.4.5.5.5.4.5.5.5.4.5.5.5.8 1 .5.4.4.5.5.5.8 1 .5.5.4.5.5.5.4.5.5.5.4.5.9.9.4.5.5.5.8 1 .5.5.4.5.5.5.4.5.5.4.8 1 .5.5.4.5.5.5.8 1 .5.5.4.5 1.4 1.4.8 1 .5.5.4.5.5.5.8 1 .5.5.4.5.5.4.4.5.5.5.8 1 .5.5.4.5.5.5.8 1 1.4 1.4.4.5.5.5.8 1 .5.5.4.5.5.5.8 1 .5.4.4.5.5.5.4.5.5.5.8 1 .5.5.4.5.9.9.4.5.5.5.4.5.5.5.4.5.5.5.8 1 .5.5.4.5.5.4.8 1 .5.5.4.5.5.5.4.5.5.5.8 1 1.4 1.4.8 1 .5.5.4.5.5.5.4.5.5.5.8 1 .5.4.4.5.5.5.4.5.5.5.8 1 .5.5.4.5.9.9.4.5.5.5.4.5.5.5.4.5.5.5.8 1 .5.5.4.5.5.4.8 1 .5.5.4.5.5.5.4.5.5.5.8 1 1.4 1.4.8 1 .5.5.4.5.5.5.4.5.5.5.8 1 .5.4.4.5.5.5.8 1 .5.5.4.5.5.5.4.5.5.5.4.5.9.9.4.5.5.5.8 1 .5.5.4.5.5.5.4.5.5.4.8 1 .5.5.4.5.5.5.8 1 .5.5.4.5 1.4 1.4.8 1 .5.5.4.5.5.5.8 1 .5.5.4.5.5.4.4.5.5.5.8 1 .5.5.4.5.5.5.8 1 1.4 1.4.4.5.5.5.8 1 .5.5.4.5.5.5.4.5.5.4.8 1 .5.5.4.5.5.5.8 1 .5.5.4.5 1.4 1.4.8 1 .5.5.4.5.5.5.8 1 .5.5.4.5.5.4.4.5.5.5.8 1 .5.5.4.5.5.5.8 1 1.4 1.4.4.5.5.5.8 1 .5.5.4.5.5.5.8 1 .5.4.4.5.5.5.4.5.5.5.8 1 .5.5.4.5.9.9.4.5.5.5.4.5.5.5.4.5.5.5.8 1 .5.5.4.5.5.4.8 1 .5.5.4.5.5.5.4.5.5.5.8 1 1.4 1.4.8 1 .5.5.4.5.5.5.4.5.5.5.8 1 .5.4.4.5.5.5.8 1 .5.5.4.5.5.5.4.5.9.9.4.5.5.5.4.5.5.5.8 1 .5.5.4.5.5.5.4.5.5.4.8 1 .5.5.4.5.5.5.4.5.5.5.8 1 1.4 1.4.8 1 .5.5.4.5.5.5.4.5.5.5.8 1 .5.4.4.5.5.5.8 1 .5.5.4.5.5.5.4.5.5.5.4.5.9.9.4.5.5.5.8 1 .5.5.4.5.5.5.4.5.5.4.8 1 .5.5.4.5.5.5.8 1 .5.5.4.5 1.4 1.4.8 1 .5.5.4.5.5.5.8 1 .5.5.4.5.5.4.4.5.5.5.8 1 .5.5.4.5.5.5.8 1 1.4 1.4.4.5.5.5.8 1 .5.5.4.5.5.5.4.5.9.9.4.5.5.5.4.5.5.5.8 1 .5.5.4.5.9.9.4.5.5.5"/>
   <path d="m108.5 203.8.4.5.5.4.4.5.5.4.4.5.5.4.4.5.9.9.4.5.5.4.4.5 3.1 3.1.4.5.5.4.4.5.5.4.4.5.9.9.4.5.5.4.4.5.5.4.4.5 2.2 2.2.4.5.5.4.4.5.5.4.4.5.9.9.4.5.5.4.4.5.5.4.4.5 3.1 3.1.4.5 1.8 1.8.4.5.5.4.4.5.5.4.4.5.5.4.4.5 1.8 1.8.4.5 3.1 3.1.4.5.5.4.4.5.5.4.4.5 1.8 1.8.4.5.5.4.4.5 2.2 2.2.4.5.5.4.4.5.5.4.4.5.5.4.8 1 .5.4.4.5.5.4.4.5 3.1 3.1.4.5.5.4.4.5 1.8 1.8.4.5.5.4.4.5.5.4.4.5 3.1 3.1.4.5 1.8 1.8.4.5.5.4.4.5.5.4.4.5.5.4.4.5 1.8 1.8.4.5 3.1 3.1.4.5.5.4.4.5.5.4.4.5.9.9.4.5.5.4.4.5.5.4.4.5 2.2 2.2.4.5.5.4.4.5.5.4.4.5.5.4.8 1 .5.4.4.5.5.4.4.5 3.1 3.1.4.5.5.4.4.5.9.9.4.5.5.4.4.5.5.4.4.5.5.4.4.5 2.2 2.2.4.5 2.7 2.7.4.5.5.4.4.5.5.4.4.5.5.4.4.5 1.8 1.8.4.5 3.1 3.1.4.5.5.4.4.5.5.4.4.5.9.9.4.5.5.4.4.5.5.4.4.5 2.2 2.2.4.5.5.4.4.5.5.4.4.5.9.9.4.5.5.4.4.5.5.4.4.5 3.1 3.1.4.5.5.4.4.5.9.9.4.5.5.4.4.5.5.4.4.5.5.4.4.5 2.2 2.2.4.5 2.7 2.7.4.5.5.4.4.5.5.4.4.5 1.8 1.8.4.5.5.4.4.5 2.2 2.2.4.5.5.4.4.5.5.4.4.5.5.4.8 1 .5.4.4.5.5.4.4.5 3.1 3.1.4.5.5.4.4.5.5.4.4.5.9.9.4.5.5.4.4.5.5.4.4.5 3.1 3.1.4.5 1.8 1.8.4.5.5.4.4.5.5.4.4.5.5.4.4.5 1.8 1.8.4.5 3.1 3.1.4.5.5.4.4.5.5.4.4.5 1.8 1.8.4.5.5.4.4.5 2.2 2.2.4.5.5.4.4.5.5.4.4.5.5.4.8 1 .5.4.4.5.5.4.4.5 3.1 3.1.4.5.5.4.4.5.9.9.4.5.5.4.4.5.5.4.4.5.5.4.4.5 2.2 2.2.4.5.5.4.4.5 1.8 1.8.4.5.5.4.4.5.5.4.4.5 2.7 2.7.4.5 1.1 1.1"/>
   <path d="m108.5 211.1.4.4.5.4.4.5.5.4.4.4.5.4.4.4.4.5.5.4.4.4.5.4.4.4.4.5.5.4.4.4.5.4 1.7 1.7.5.4.4.4.5.4.4.5.4.4.5.4.4.4.5.4.4.5.5.4.8.8.5.4.4.5.5.4.8.8.5.4 1.3 1.3.5.4 1.7 1.7.5.4 1.7 1.7.5.4.4.4.5.4.4.4.4.5.5.4.4.4.5.4.4.4.4.5.5.4.4.4.5.4 1.7 1.7.5.4.4.4.5.4.4.5.4.4.5.4.4.4.5.4.4.5.5.4.8.8.5.4.4.5.5.4.8.8.5.4 1.3 1.3.5.4 1.7 1.7.5.4 1.7 1.7.5.4.4.4.5.4.4.4.4.5.5.4.4.4.5.4.4.4.4.5.5.4.4.4.5.4 1.7 1.7.5.4.4.4.5.4.4.5.5.4.8.8.5.4.4.5.5.4.8.8.5.4.4.5.5.4.4.4.5.4.4.4.4.5.5.4.4.4.5.4 1.7 1.7.5.4.4.4.5.4.4.5.4.4.5.4.4.4.5.4.4.5.4.4.5.4.4.4.5.4 1.7 1.7.5.4 1.7 1.7.5.4 1.3 1.3.5.4.8.8.5.4.4.5.5.4.8.8.5.4.4.5.5.4.4.4.5.4.4.4.4.5.5.4.4.4.5.4 1.7 1.7.5.4.4.4.5.4.4.5.4.4.5.4.4.4.5.4.4.5.4.4.5.4.4.4.5.4 1.7 1.7.5.4 1.7 1.7.5.4 1.3 1.3.5.4.8.8.5.4.4.5.5.4.4.4.5.4.4.4.4.5.5.4.4.4.5.4.4.4.4.5.5.4.4.4.5.4 1.7 1.7.5.4.4.4.5.4.4.5.4.4.5.4.4.4.5.4.4.5.5.4.8.8.5.4.4.5.5.4.8.8.5.4 1.3 1.3.5.4 1.7 1.7.5.4 1.7 1.7.5.4.4.4.5.4.4.4.4.5.5.4.4.4.5.4.4.4.4.5.5.4.4.4.5.4 1.7 1.7.5.4.4.4.5.4.4.5.4.4.5.4.4.4.5.4.4.5.5.4.8.8.5.4.4.5.5.4.8.8.5.4 1.3 1.3.5.4 1.7 1.7.5.4 1.7 1.7.5.4.4.4.5.4.4.4.4.5.5.4.4.4.5.4.4.4.4.5.5.4.4.4.5.4 1.7 1.7.5.4.4.4.5.4.4.5.5.4.8.8.5.4.4.5.5.4.8.8.5.4.4.5.5.4.4.4.5.4.4.4.4.5.5.4.4.4.5.4 1.7 1.7.5.4.4.4.5.4.4.5.4.4.5.4.4.4.5.4.4.5.4.4.5.4.4.4.5.4 1.7 1.7.5.4 1.7 1.7.5.4 1.3 1.3.5.4.8.8.5.4.4.5.5.4.8.8.5.4.4.5.5.4.4.4.5.4.4.4.4.5.5.4.4.4.5.4 1.7 1.7.5.4.4.4.5.4.4.5.4.4.5.4.4.4.5.4.4.5.4.4.5.4.4.4.5.4 1.7 1.7.5.4 1.7 1.7.5.4 1.3 1.3.5.4.8.8.5.4.4.5.5.4.8.8.5.4.4.5.5.4.4.4.5.4.4.4.4.5.5.4.4.4.5.4.4.4.5.4.4.5.4.4.5.4.4.4.5.4.4.5.4.4.5.4.4.4.5.4.4.5.5.4.8.8.5.4.4.5h.1"/>
   <path d="m108.5 218.4.4.4.5.4.4.4.5.4.4.3.5.4.8.8.5.4.4.4.5.4.4.3.4.4.5.4.4.4.5.4.4.4.5.4.4.4.4.3.5.4.4.4.5.4.8.8.5.4.4.4.5.3.4.4.5.4.8.8.5.4.4.4.5.4.4.3.4.4.5.4.4.4.5.4.4.4.5.4.4.4.4.3.5.4.4.4.5.4.8.8.5.4.4.3.5.4.4.4.5.4.8.8.5.4.4.4.5.3.8.8.5.4.4.4.5.4.4.4.5.4.4.3.4.4.5.4.4.4.5.4.8.8.5.4.4.3.5.4.4.4.5.4.8.8.5.4.4.4.5.3.8.8.5.4.4.4.5.4.4.4.5.3.8.8.5.4.4.4.5.4.8.8.5.3.4.4.5.4.4.4.5.4.8.8.5.4.4.3.5.4.8.8.5.4.4.4.5.4.4.4.5.3.8.8.5.4.4.4.5.4.4.4.5.4.4.3.4.4.5.4.4.4.5.4.8.8.5.3.4.4.5.4.4.4.5.4.8.8.5.4.4.3.5.4.8.8.5.4.4.4.5.4.4.4.5.3.8.8.5.4.4.4.5.4.8.8.5.3.4.4.5.4.4.4.5.4.8.8.5.4.4.3.5.4.8.8.5.4.4.4.5.4.4.3.5.4.8.8.5.4.4.4.5.4.4.4.4.3.5.4.4.4.5.4.4.4.5.4.8.8.5.3.4.4.5.4.8.8.5.4.4.4.5.4.4.3.5.4.8.8.5.4.4.4.5.4.4.3.4.4.5.4.4.4.5.4.4.4.5.4.4.4.4.3.5.4.4.4.5.4.8.8.5.4.4.4.5.3.4.4.5.4.8.8.5.4.4.4.5.4.4.3.5.4.8.8.5.4.4.4.5.4.4.4.4.3.5.4.4.4.5.4.4.4.5.4.4.4.4.3.5.4.4.4.5.4.8.8.5.4.4.4.5.3.4.4.5.4.8.8.5.4.4.4.5.4.4.3.4.4.5.4.4.4.5.4.4.4.5.4.4.4.4.3.5.4.4.4.5.4.8.8.5.4.4.4.5.3.4.4.5.4.8.8.5.4.4.4.5.3.8.8.5.4.4.4.5.4.4.4.5.4.4.3.4.4.5.4.4.4.5.4.8.8.5.4.4.3.5.4.4.4.5.4.8.8.5.4.4.4.5.3.8.8.5.4.4.4.5.4.4.4.5.4.4.3.4.4.5.4.4.4.5.4.8.8.5.3.4.4.5.4.4.4.5.4.8.8.5.4.4.3.5.4.8.8.5.4.4.4.5.4.4.4.5.3.8.8.5.4.4.4.5.4.4.4.5.4.4.3.4.4.5.4.4.4.5.4.8.8.5.3.4.4.5.4.4.4.5.4.8.8.5.4.4.3.5.4.8.8.5.4.4.4.5.4.4.4.5.3.8.8.5.4.4.4.5.4.8.8.5.3.4.4.5.4.4.4.5.4.8.8.5.4.4.3.5.4.8.8.5.4.4.4.5.4.4.3.5.4.8.8.5.4.4.4.5.4.4.4.4.3.5.4.4.4.5.4.4.4.5.4.8.8.5.3.4.4.5.4.8.8.5.4.4.4.5.4.4.3.5.4.8.8.5.4.4.4.5.4.4.4.4.3.5.4.4.4.5.4.4.4.5.4.4.4.4.3.5.4.4.4.5.4.8.8.5.4.4.4.5.3.4.4.5.4.8.8.5.4.4.4.5.4.4.3.4.4.5.4.4.4.5.4.4.4.5.4.4.4.4.3.5.4.4.4.5.4.4.4.5.4.8.8.5.3.4.4.5.4.8.8.5.4.4.4.5.3.4.4.5.4.8.8.5.4.4.4.5.4.4.3.4.4.5.4.4.4.5.4.4.4.5.4.4.4.4.3.5.4.4.4.5.4.8.8.5.4.4.4.5.3.7.7"/>
   <path d="m108.5 225.7.4.4.5.3.4.4.5.3.4.4.5.3.8.8.5.3.4.4.5.3.4.4.4.3.5.4.4.4.5.3.4.4.5.3.8.8.5.3.4.4.5.3.4.4.4.3.5.4.4.4.5.3.4.4.5.3.8.8.5.3.4.4.5.3.4.4.4.3.5.4.4.4.5.3.4.4.5.3.4.4.4.3.5.4.4.4.5.3.4.4.4.3.5.4.4.4.5.3.4.4.5.3.4.4.4.3.5.4.4.4.5.3.4.4.4.3.5.4.4.3.5.4.4.4.5.3.4.4.4.3.5.4.4.4.5.3.4.4.4.3.5.4.4.3.5.4.4.4.5.3.4.4.4.3.5.4.4.3.5.4.4.4.4.3.5.4.4.3.5.4.4.4.5.3.4.4.4.3.5.4.4.3.5.4.4.4.4.3.5.4.4.3.5.4.4.3.5.4.4.4.4.3.5.4.4.3.5.4.4.4.4.3.5.4.4.3.5.4.4.3.5.4.4.4.4.3.5.4.4.3.5.4.4.4.5.3.4.4.4.3.5.4.4.3.5.4.4.4.4.3.5.4.4.3.5.4.4.3.5.4.4.4.4.3.5.4.4.3.5.4.4.4.4.3.5.4.4.3.5.4.4.3.5.4.4.4.4.3.5.4.4.3.5.4.4.3.4.4.5.4.4.3.5.4.4.3.5.4.4.4.4.3.5.4.4.3.5.4.4.3.4.4.5.4.4.3.5.4.4.3.5.4.4.3.4.4.5.4.4.3.5.4.4.3.4.4.5.4.4.3.5.4.4.3.5.4.4.3.4.4.5.4.4.3.5.4.4.3.4.4.5.3.4.4.5.4.4.3.5.4.4.3.4.4.5.4.4.3.5.4.4.3.4.4.5.3.4.4.5.4.4.3.5.4.4.3.4.4.5.4.4.3.5.4.4.3.4.4.5.3.4.4.5.4.4.3.5.4.4.3.4.4.5.3.4.4.5.4.4.3.5.4.4.3.4.4.5.4.4.3.5.4.4.3.4.4.5.3.4.4.5.4.4.3.5.4.4.3.4.4.5.3.4.4.5.4.4.3.4.4.5.3.4.4.5.4.4.3.5.4.4.3.4.4.5.3.4.4.5.4.4.3.4.4.5.3.4.4.5.3.4.4.5.4.4.3.4.4.5.3.4.4.5.4.4.3.4.4.5.3.4.4.5.3.4.4.5.4.4.3.4.4.5.3.4.4.5.3.8.8.5.3.4.4.5.3.4.4.5.4.4.3.4.4.5.3.4.4.5.3.8.8.5.3.4.4.5.3.4.4.5.4.4.3.4.4.5.3.4.4.5.3.8.8.5.3.4.4.5.3.4.4.5.3.8.8.5.3.4.4.5.3.8.8.5.3.4.4.5.3.4.4.5.3.8.8.5.3.4.4.5.3.4.4.4.3.5.4.4.4.5.3.4.4.5.3.8.8.5.3.4.4.5.3.4.4.5.3.8.8.5.3.4.4.5.3.4.4.4.3.5.4.4.4.5.3.4.4.5.3.8.8.5.3.4.4.5.3.4.4.4.3.5.4.4.4.5.3.4.4.5.3.4.4.4.3.5.4.4.4.5.3.4.4.4.3.5.4.4.4.5.3.4.4.5.3.4.4.4.3.5.4.4.4.5.3.4.4.4.3.5.4.4.4.5.3.4.4.5.3.4.4.4.3.5.4.4.4.5.3.4.4.4.3.5.4.4.3.5.4.4.4.5.3.4.4.4.3.5.4.4.4.5.3.4.4.4.3.5.4.4.3.5.4.4.4.5.3.4.4.4.3.5.4.4.3.5.4.4.4.4.3.5.4.4.3.5.4.4.4.5.3.4.4.4.3.5.4.4.3.5.4.4.4.4.3.5.4.4.3.5.4.4.3.5.4.4.4.4.3.5.4.4.3.5.4.4.4.4.3.5.4.4.3.5.4.4.3.5.4.4.4.4.3.5.4.4.3.5.4.4.3.5.4.4.4.4.3.5.4.4.3.5.4.4.4.4.3.5.4.4.3.5.4.4.3.5.4.4.4.4.3.5.4.4.3.5.4.4.4.4.3.5.4.4.3.5.4.4.3.5.4.4.4.4.3.5.4.4.3.5.4.4.3.4.4.5.4.4.3.5.4.4.3.5.4.4.4.4.3.5.4.4.3.5.4.4.3.4.4.5.4.4.3.5.4.4.3.5.4.4.3.4.4.5.4.4.3.5.4.4.3.4.4.2.1"/>
   <path d="m108.5 233 .4.3.5.4.4.3.5.3.4.3.5.4.8.6.5.4.4.3.5.3.4.4.4.3.5.3.4.4.5.3.4.3.5.3.4.4.4.3.5.3.4.4.5.3.4.3.4.4.5.3.4.3.5.4.4.3.5.3.4.3.4.4.5.3.4.3.5.4.8.6.5.4.4.3.5.3.4.4.5.3.8.6.5.4.4.3.5.3.4.4.4.3.5.3.4.4.5.3.4.3.5.4.8.6.5.4.4.3.5.3.4.3.4.4.5.3.4.3.5.4.4.3.5.3.4.4.4.3.5.3.4.4.5.3.8.6.5.4.4.3.5.3.4.4.5.3.4.3.4.4.5.3.4.3.5.4.8.6.5.3.4.4.5.3.4.3.5.4.8.6.5.4.4.3.5.3.4.4.4.3.5.3.4.3.5.4.4.3.5.3.4.4.4.3.5.3.4.4.5.3.4.3.4.4.5.3.4.3.5.4.4.3.5.3.4.3.4.4.5.3.4.3.5.4.4.3.5.3.4.4.4.3.5.3.4.4.5.3.8.6.5.4.4.3.5.3.4.4.5.3.4.3.4.4.5.3.4.3.5.4.8.6.5.3.4.4.5.3.4.3.5.4.8.6.5.4.4.3.5.3.4.4.4.3.5.3.4.3.5.4.4.3.5.3.4.4.4.3.5.3.4.4.5.3.4.3.4.4.5.3.4.3.5.3.4.4.5.3.4.3.4.4.5.3.4.3.5.4.8.6.5.4.4.3.5.3.4.4.5.3.8.6.5.4.4.3.5.3.4.4.4.3.5.3.4.4.5.3.4.3.5.4.8.6.5.3.4.4.5.3.4.3.4.4.5.3.4.3.5.4.4.3.5.3.4.4.4.3.5.3.4.3.5.4.8.6.5.4.4.3.5.3.4.4.5.3.4.3.4.4.5.3.4.3.5.3.4.4.5.3.4.3.4.4.5.3.4.3.5.4.8.6.5.4.4.3.5.3.4.4.5.3.8.6.5.4.4.3.5.3.4.4.4.3.5.3.4.4.5.3.4.3.5.4.8.6.5.3.4.4.5.3.4.3.4.4.5.3.4.3.5.4.4.3.5.3.4.4.4.3.5.3.4.3.5.4.8.6.5.4.4.3.5.3.4.4.5.3.4.3.4.4.5.3.4.3.5.3.4.4.4.3.5.3.4.4.5.3.4.3.5.4.8.6.5.4.4.3.5.3.4.4.4.3.5.3.4.3.5.4.4.3.5.3.4.4.4.3.5.3.4.4.5.3.4.3.4.4.5.3.4.3.5.3.4.4.5.3.4.3.4.4.5.3.4.3.5.4.8.6.5.4.4.3.5.3.4.3.5.4.8.6.5.4.4.3.5.3.4.4.4.3.5.3.4.4.5.3.4.3.5.3.4.4.4.3.5.3.4.4.5.3.4.3.5.4.8.6.5.4.4.3.5.3.4.4.4.3.5.3.4.3.5.4.4.3.5.3.4.4.4.3.5.3.4.4.5.3.4.3.4.4.5.3.4.3.5.3.4.4.5.3.4.3.4.4.5.3.4.3.5.4.8.6.5.4.4.3.5.3.4.3.5.4.8.6.5.4.4.3.5.3.4.4.4.3.5.3.4.4.5.3.4.3.5.3.4.4.4.3.5.3.4.4.5.3.4.3.4.4.5.3.4.3.5.4.4.3.5.3.4.4.4.3.5.3.4.3.5.4.8.6.5.4.4.3.5.3.4.4.5.3.4.3.4.4.5.3.4.3.5.3.4.4.4.3.5.3.4.4.5.3.4.3.5.4.8.6.5.4.4.3.5.3.4.3.4.4.5.3.4.3.5.4.4.3.5.3.4.4.4.3.5.3.4.4.5.3.8.6.5.4.4.3.5.3.4.4.5.3.4.3.4.4.5.3.4.3.5.4.4.3.5.3.4.4.4.3.5.3.4.3.5.4.8.6.5.4.4.3.5.3.4.4.5.3.4.3.4.4.5.3.4.3.5.3.4.4.4.3.5.3.4.4.5.3.4.3.5.4.8.6.5.4.4.3.5.3.4.3.4.4.5.3.4.3.5.4.4.3.5.3.4.4.4.3.5.3.4.4.5.3.8.6.5.4.4.3.5.3.4.4.5.3.4.3.4.4.5.3.4.3.5.4.8.6.5.4.4.3.5.3.4.3.5.4.8.6.5.4.4.3.5.3.4.4.4.3.5.3.4.4.5.3.4.3.5.3.4.4.8.6"/>
   <path d="m108.5 240.3.4.3.5.3.4.3.5.3.4.3.5.3.8.6.5.3.4.3.5.3.4.3.4.4.5.3.4.3.5.3.4.3.5.3.8.6.5.3.4.3.5.3.8.6.5.3.4.3.5.3.4.3.5.4.8.6.5.3.4.3.5.3.8.6.5.3.4.3.5.3.4.3.5.3.8.6.5.3.4.3.5.4.8.6.5.3.4.3.5.3.4.3.5.3.8.6.5.3.4.3.5.3.8.6.5.3.4.3.5.4.4.3.5.3.8.6.5.3.4.3.5.3.8.6.5.3.4.3.5.3.4.3.5.3.8.6.5.3.4.4.5.3.8.6.5.3.4.3.5.3.4.3.5.3.8.6.5.3.4.3.5.3.8.6.5.3.4.4.5.3.4.3.5.3.8.6.5.3.4.3.5.3.8.6.5.3.4.3.5.3.4.3.5.3.4.3.4.4.5.3.4.3.5.3.4.3.5.3.8.6.5.3.4.3.5.3.8.6.5.3.4.3.5.3.4.3.5.4.8.6.5.3.4.3.5.3.8.6.5.3.4.3.5.3.4.3.5.3.8.6.5.3.4.3.5.3.4.4.4.3.5.3.4.3.5.3.4.3.5.3.8.6.5.3.4.3.5.3.8.6.5.3.4.3.5.3.4.4.5.3.8.6.5.3.4.3.5.3.8.6.5.3.4.3.5.3.4.3.5.3.8.6.5.3.4.4.5.3.8.6.5.3.4.3.5.3.4.3.5.3.8.6.5.3.4.3.5.3.8.6.5.3.4.4.5.3.4.3.5.3.8.6.5.3.4.3.5.3.8.6.5.3.4.3.5.3.4.3.5.3.8.6.5.4.4.3.5.3.4.3.5.3.8.6.5.3.4.3.5.3.8.6.5.3.4.3.5.3.4.3.5.3.4.4.4.3.5.3.4.3.5.3.8.6.5.3.4.3.5.3.4.3.5.3.8.6.5.3.4.3.5.3.4.4.4.3.5.3.4.3.5.3.4.3.5.3.8.6.5.3.4.3.5.3.8.6.5.3.4.3.5.3.4.4.5.3.8.6.5.3.4.3.5.3.8.6.5.3.4.3.5.3.4.3.5.3.8.6.5.3.4.3.5.4.8.6.5.3.4.3.5.3.4.3.5.3.8.6.5.3.4.3.5.3.8.6.5.3.4.3.5.4.4.3.5.3.8.6.5.3.4.3.5.3.8.6.5.3.4.3.5.3.4.3.5.3.8.6.5.4.4.3.5.3.8.6.5.3.4.3.5.3.4.3.5.3.8.6.5.3.4.3.5.3.4.3.5.3.4.4.4.3.5.3.4.3.5.3.8.6.5.3.4.3.5.3.4.3.5.3.8.6.5.3.4.3.5.3.4.3.4.4.5.3.4.3.5.3.4.3.5.3.8.6.5.3.4.3.5.3.8.6.5.3.4.3.5.3.4.3.5.4.8.6.5.3.4.3.5.3.8.6.5.3.4.3.5.3.4.3.5.3.8.6.5.3.4.3.5.4.8.6.5.3.4.3.5.3.4.3.5.3.8.6.5.3.4.3.5.3.8.6.5.3.4.3.5.4.4.3.5.3.8.6.5.3.4.3.5.3.8.6.5.3.4.3.5.3.4.3.5.3.8.6.5.3.4.4.5.3.8.6.5.3.4.3.5.3.4.3.5.3.8.6.5.3.4.3.5.3.8.6.5.3.4.4.5.3.4.3.5.3.8.6.5.3.4.3.5.3.4.3.5.3.8.6.5.3.4.3.5.3.4.3.4.4.5.3.4.3.5.3.4.3.5.3.8.6.5.3.4.3.5.3.8.6.5.3.4.3.5.3.4.3.5.4.8.6.5.3.4.3.5.3.8.6.5.3.4.3.5.3.4.3.5.3.8.6.5.3.4.3.5.3.4.4.4.3.5.3.4.3.5.3.4.3.5.3.8.6.5.3.4.3.5.3.8.6.5.3.4.3.5.3.4.4.5.3.8.6.5.3.4.3.5.3.8.6.5.3.4.3.5.3.4.3.5.3.8.6.5.3.4.4.5.3.8.6.5.3.4.3.5.3.4.3.5.3.8.6.5.3.4.3.5.3.8.6.5.3.4.4.5.3.2.1"/>
   <path d="m108.5 247.6.4.3.5.2.4.3.5.3.4.3.5.3.4.2.4.3.5.3.4.3.5.3.4.3.4.2.5.3.4.3.5.3.4.3.5.3.4.2.4.3.5.3.4.3.5.3.4.3.4.2.5.3.4.3.5.3.4.3.5.2.8.6.5.3.4.3.5.3.4.2.4.3.5.3.4.3.5.3.4.3.5.2.8.6.5.3.4.3.5.2.8.6.5.3.4.3.5.3.4.2.5.3.8.6.5.3.4.3.5.2.8.6.5.3.4.3.5.2.4.3.5.3.8.6.5.3.4.2.5.3.8.6.5.3.4.3.5.2.4.3.5.3.8.6.5.2.4.3.5.3.8.6.5.3.4.2.5.3.4.3.5.3.8.6.5.2.4.3.5.3.8.6.5.2.4.3.5.3.4.3.5.3.4.3.4.2.5.3.4.3.5.3.8.6.5.2.4.3.5.3.4.3.5.3.4.3.4.2.5.3.4.3.5.3.4.3.5.2.8.6.5.3.4.3.5.3.4.2.4.3.5.3.4.3.5.3.4.3.5.2.8.6.5.3.4.3.5.2.8.6.5.3.4.3.5.3.4.2.5.3.8.6.5.3.4.3.5.2.8.6.5.3.4.3.5.2.4.3.5.3.8.6.5.3.4.2.5.3.8.6.5.3.4.3.5.2.4.3.5.3.8.6.5.2.4.3.5.3.8.6.5.3.4.2.5.3.4.3.5.3.8.6.5.2.4.3.5.3.8.6.5.2.4.3.5.3.4.3.5.3.4.3.4.2.5.3.4.3.5.3.8.6.5.2.4.3.5.3.4.3.5.3.4.2.4.3.5.3.4.3.5.3.4.3.4.2.5.3.4.3.5.3.4.3.5.3.4.2.4.3.5.3.4.3.5.3.4.3.5.2.8.6.5.3.4.3.5.2.8.6.5.3.4.3.5.3.4.2.5.3.8.6.5.3.4.3.5.2.8.6.5.3.4.3.5.2.4.3.5.3.8.6.5.3.4.2.5.3.8.6.5.3.4.3.5.2.4.3.5.3.8.6.5.2.4.3.5.3.8.6.5.3.4.2.5.3.4.3.5.3.8.6.5.2.4.3.5.3.8.6.5.2.4.3.5.3.4.3.5.3.4.3.4.2.5.3.4.3.5.3.8.6.5.2.4.3.5.3.4.3.5.3.4.2.4.3.5.3.4.3.5.3.4.3.4.2.5.3.4.3.5.3.4.3.5.3.4.2.4.3.5.3.4.3.5.3.4.3.4.2.5.3.4.3.5.3.4.3.5.2.8.6.5.3.4.3.5.3.4.2.4.3.5.3.4.3.5.3.4.3.5.2.8.6.5.3.4.3.5.2.4.3.5.3.8.6.5.3.4.2.5.3.8.6.5.3.4.3.5.2.4.3.5.3.8.6.5.2.4.3.5.3.8.6.5.3.4.2.5.3.4.3.5.3.8.6.5.2.4.3.5.3.8.6.5.2.4.3.5.3.4.3.5.3.4.3.4.2.5.3.4.3.5.3.8.6.5.2.4.3.5.3.4.3.5.3.4.2.4.3.5.3.4.3.5.3.4.3.4.2.5.3.4.3.5.3.4.3.5.3.4.2.4.3.5.3.4.3.5.3.4.2.4.3.5.3.4.3.5.3.4.3.5.2.8.6.5.3.4.3.5.3.4.2.4.3.5.3.4.3.5.3.4.3.5.2.8.6.5.3.4.3.5.2.8.6.5.3.4.3.5.3.4.2.5.3.8.6.5.3.4.3.5.2.8.6.5.3.4.3.5.2.4.3.5.3.8.6.5.3.4.2.5.3.4.3.5.3.8.6.5.2.4.3.5.3.8.6.5.2.4.3.5.3.4.3.5.3.4.3.4.2.5.3.4.3.5.3.8.6.5.2.4.3.5.3.4.3.5.3.4.2.4.3.5.3.4.3.5.3.4.3.4.2.5.3.4.3.5.3.4.3.5.3.4.2.4.3.5.3.4.3.5.3.4.2.4.3.5.3.4.3.5.3.4.3.5.2.8.6.5.3.4.3.5.3.4.2.4.3.5.3.4.3.5.3.4.3.5.2.8.6.5.3.4.3.5.2.8.6.5.3.4.3.5.3.4.2.5.3.8.6.5.3.4.3.5.2.8.6.5.3.4.3.5.2.4.3.5.3.8.6.5.3.4.2.5.3.8.6.5.3.4.3.5.2.4.3.5.3.8.6.5.2.4.3.5.3.4.3.5.3.4.3.4.2.5.3.4.3.5.3.8.6.5.2.4.3.5.3.4.3"/>
   <path d="m108.5 254.9.4.2.5.3.4.2.5.3.4.3.5.2.4.3.4.2.5.3.4.3.5.2.8.6.5.2.4.3.5.2.4.3.5.3.4.2.4.3.5.2.4.3.5.3.4.2.4.3.5.2.4.3.5.3.4.2.5.3.4.2.4.3.5.3.4.2.5.3.4.2.4.3.5.3.4.2.5.3.4.2.5.3.4.3.4.2.5.3.4.3.5.2.4.3.4.2.5.3.4.3.5.2.4.3.5.2.8.6.5.2.4.3.5.2.8.6.5.2.4.3.5.2.4.3.5.3.4.2.4.3.5.2.4.3.5.3.4.2.4.3.5.2.4.3.5.3.4.2.5.3.4.3.4.2.5.3.4.2.5.3.4.3.4.2.5.3.4.2.5.3.4.3.5.2.4.3.4.2.5.3.4.3.5.2.4.3.4.2.5.3.4.3.5.2.4.3.5.2.8.6.5.2.4.3.5.2.8.6.5.2.4.3.5.3.4.2.5.3.4.2.4.3.5.3.4.2.5.3.4.2.5.3.4.3.4.2.5.3.4.2.5.3.4.3.4.2.5.3.4.2.5.3.4.3.5.2.4.3.4.2.5.3.4.3.5.2.4.3.4.2.5.3.4.3.5.2.4.3.5.3.4.2.4.3.5.2.4.3.5.3.4.2.4.3.5.2.4.3.5.3.4.2.5.3.4.2.4.3.5.3.4.2.5.3.4.2.4.3.5.3.4.2.5.3.4.2.5.3.4.3.4.2.5.3.4.2.5.3.4.3.4.2.5.3.4.2.5.3.4.3.5.2.8.6.5.2.4.3.5.2.8.6.5.2.4.3.5.2.4.3.5.3.4.2.4.3.5.2.4.3.5.3.4.2.4.3.5.2.4.3.5.3.4.2.5.3.4.2.4.3.5.3.4.2.5.3.4.2.4.3.5.3.4.2.5.3.4.3.5.2.4.3.4.2.5.3.4.3.5.2.4.3.5.2.8.6.5.2.4.3.5.2.8.6.5.2.4.3.5.2.4.3.5.3.4.2.4.3.5.2.4.3.5.3.4.2.4.3.5.2.4.3.5.3.4.2.5.3.4.3.4.2.5.3.4.2.5.3.4.3.4.2.5.3.4.2.5.3.4.3.5.2.4.3.4.2.5.3.4.3.5.2.4.3.4.2.5.3.4.3.5.2.4.3.5.2.8.6.5.2.4.3.5.2.8.6.5.2.4.3.5.3.4.2.5.3.4.2.4.3.5.3.4.2.5.3.4.2.4.3.5.3.4.2.5.3.4.2.5.3.4.3.4.2.5.3.4.2.5.3.4.3.4.2.5.3.4.2.5.3.4.3.5.2.4.3.4.2.5.3.4.3.5.2.8.6.5.2.4.3.5.2.4.3.5.3.4.2.4.3.5.2.4.3.5.3.4.2.4.3.5.2.4.3.5.3.4.2.5.3.4.2.4.3.5.3.4.2.5.3.4.2.5.3.4.3.4.2.5.3.4.2.5.3.4.3.4.2.5.3.4.3.5.2.4.3.5.2.8.6.5.2.4.3.5.2.8.6.5.2.4.3.5.2.4.3.5.3.4.2.4.3.5.2.4.3.5.3.4.2.4.3.5.2.4.3.5.3.4.2.5.3.4.2.4.3.5.3.4.2.5.3.4.2.4.3.5.3.4.2.5.3.4.3.5.2.4.3.4.2.5.3.4.3.5.2.4.3.4.2.5.3.4.3.5.2.4.3.5.2.8.6.5.2.4.3.5.2.8.6.5.2.4.3.5.2.4.3.5.3.4.2.4.3.5.2.4.3.5.3.4.2.4.3.5.3.4.2.5.3.4.2.5.3.4.3.4.2.5.3.4.2.5.3.4.3.4.2.5.3.4.2.5.3.4.3.5.2.4.3.4.2.5.3.4.3.5.2.4.3.4.2.5.3.4.3.5.2.4.3.5.2.8.6.5.2.4.3.5.3.4.2.5.3.4.2.4.3.5.3.4.2.5.3.4.2.4.3.5.3.4.2.5.3.4.2.5.3.4.3.4.2.5.3.4.2.5.3.4.3.4.2.5.3.4.2.5.3.4.3.5.2.4.3.4.2.5.3.4.3.5.2.8.6.5.2.4.3.5.2.4.3.5.3.4.2.4.3.5.2.4.3.5.3.4.2.4.3.5.2.4.3.5.3.4.2.5.3.4.2.4.3.5.3.4.2.5.3.4.2.4.3.5.3.4.2.5.3.4.2.5.3.4.3.4.2.5.3.4.3.5.2.4.3.4.2.5.3.4.3.5.2.4.3.5.2.8.6.5.2.4.3.5.2.8.6.5.2.4.3.5.2.4.3.5.3.4.2.4.3.5.2.4.3.5.3.4.2.4.3.5.2.4.3.5.3.4.2.5.3.4.3.4.2.5.3.4.2.5.3.4.3.5.2.4.3.4.2.5.3.4.3.5.2.4.3.4.2.5.3.4.3.5.2.4.3.5.2.8.6.5.2.4.3.5.2.8.6.5.2.4.3.5.2.4.3.5.3.4.2.4.3.5.2.4.3.5.3.4.2.3.2"/>
   <path d="m108.5 262.2.4.2.5.2.4.3.5.2.4.3.5.2.4.2.4.3.5.2.4.3.5.2.4.2.4.3.5.2.4.3.5.2.4.2.5.3.4.2.4.3.5.2.4.2.5.3.4.2.4.3.5.2.4.2.5.3.4.2.5.3.8.4.5.3.4.2.5.3.8.4.5.3.4.2.5.3.4.2.5.2.4.3.4.2.5.3.4.2.5.2.4.3.4.2.5.3.4.2.5.2.4.3.5.2.4.3.4.2.5.2.4.3.5.2.4.3.4.2.5.2.4.3.5.2.4.3.5.2.4.2.4.3.5.2.4.3.5.2.4.2.4.3.5.2.4.3.5.2.4.3.5.2.4.2.4.3.5.2.4.3.5.2.4.2.4.3.5.2.4.3.5.2.4.2.5.3.4.2.4.3.5.2.4.2.5.3.4.2.4.3.5.2.4.2.5.3.4.2.5.3.8.4.5.3.4.2.5.3.8.4.5.3.4.2.5.3.4.2.5.2.4.3.4.2.5.3.4.2.5.2.4.3.5.2.4.3.4.2.5.2.4.3.5.2.4.3.4.2.5.2.4.3.5.2.4.3.5.2.4.2.4.3.5.2.4.3.5.2.4.2.4.3.5.2.4.3.5.2.4.2.5.3.4.2.4.3.5.2.4.2.5.3.4.2.4.3.5.2.4.2.5.3.4.2.5.3.8.4.5.3.4.2.5.3.8.4.5.3.4.2.5.3.4.2.5.2.4.3.4.2.5.3.4.2.5.2.4.3.4.2.5.3.4.2.5.2.4.3.5.2.4.3.4.2.5.2.4.3.5.2.4.3.4.2.5.3.4.2.5.2.4.3.5.2.4.3.4.2.5.2.4.3.5.2.4.3.4.2.5.2.4.3.5.2.4.3.5.2.4.2.4.3.5.2.4.3.5.2.4.2.4.3.5.2.4.3.5.2.4.2.5.3.4.2.4.3.5.2.4.2.5.3.4.2.5.3.8.4.5.3.4.2.5.3.8.4.5.3.4.2.5.3.4.2.5.2.4.3.4.2.5.3.4.2.5.2.4.3.4.2.5.3.4.2.5.2.4.3.5.2.4.3.4.2.5.2.4.3.5.2.4.3.4.2.5.2.4.3.5.2.4.3.5.2.4.2.4.3.5.2.4.3.5.2.4.2.4.3.5.2.4.3.5.2.4.2.5.3.4.2.4.3.5.2.4.2.5.3.4.2.4.3.5.2.4.2.5.3.4.2.5.3.8.4.5.3.4.2.5.3.8.4.5.3.4.2.5.3.4.2.5.2.4.3.4.2.5.3.4.2.5.2.4.3.4.2.5.3.4.2.5.3.4.2.5.2.4.3.4.2.5.3.4.2.5.2.4.3.4.2.5.3.4.2.5.2.4.3.5.2.4.3.4.2.5.2.4.3.5.2.4.3.4.2.5.2.4.3.5.2.4.3.5.2.4.2.4.3.5.2.4.3.5.2.4.2.5.3.4.2.4.3.5.2.4.2.5.3.4.2.4.3.5.2.4.2.5.3.4.2.5.3.8.4.5.3.4.2.5.3.8.4.5.3.4.2.5.3.4.2.5.2.4.3.4.2.5.3.4.2.5.2.4.3.4.2.5.3.4.2.5.2.4.3.5.2.4.3.4.2.5.2.4.3.5.2.4.3.4.2.5.2.4.3.5.2.4.3.5.2.4.2.4.3.5.2.4.3.5.2.4.2.4.3.5.2.4.3.5.2.4.2.5.3.4.2.4.3.5.2.4.2.5.3.4.2.4.3.5.2.4.2.5.3.4.2.5.3.8.4.5.3.4.2.5.3.4.2.4.3.5.2.4.2.5.3.4.2.5.3.8.4.5.3.4.2.5.3.8.4.5.3.4.2.5.3.4.2.5.2.4.3.4.2.5.3.4.2.5.2.4.3.4.2.5.3.4.2.5.2.4.3.5.2.4.3.4.2.5.2.4.3.5.2.4.3.5.2.4.2.4.3.5.2.4.3.5.2.4.2.4.3.5.2.4.3.5.2.4.2.5.3.4.2.4.3.5.2.4.2.5.3.4.2.4.3.5.2.4.2.5.3.4.2.5.3.8.4.5.3.4.2.5.3.8.4.5.3.4.2.5.3.4.2.5.2.4.3.4.2.5.3.4.2.5.2.4.3.4.2.5.3.4.2.5.2.4.3.5.2.4.3.4.2.5.2.4.3.5.2.4.3.4.2.5.2.4.3.5.2.4.3.5.2.4.2.4.3.5.2.4.3.5.2.4.2.4.3.5.2.4.3.5.2.4.2.5.3.4.2.4.3.5.2.4.2.5.3.4.2.4.3.5.2.4.3.5.2.4.2.5.3.4.2.4.3.5.2.4.2.5.3.4.2.4.3.5.2.4.2.5.3.4.2.5.3.8.4.5.3.4.2.5.3.4.2.5.2.4.3.4.2.5.3.4.2.5.2.4.3.4.2.5.3.4.2.5.2.4.3.5.2.4.3.4.2.5.2.4.3.5.2.4.3.4.2.5.2.4.3.5.2.4.3.5.2.4.2.4.3.5.2.4.3.5.2.4.2.4.3.5.2.4.3.5.2.4.2.5.3.4.2.4.3.5.2.4.2.5.3.4.2.4.3.5.2.4.2.5.3.4.2.5.3.8.4.1.1"/>
   <path d="m108.5 269.4.4.3.5.2.4.2.5.2.4.3.5.2.8.4.5.2.4.3.5.2.8.4.5.2.4.3.5.2.4.2.5.2.4.2.4.3.5.2.4.2.5.2.4.3.4.2.5.2.4.2.5.2.4.3.5.2.8.4.5.2.4.3.5.2.8.4.5.2.4.3.5.2.4.2.5.2.4.3.4.2.5.2.4.2.5.2.4.3.4.2.5.2.4.2.5.2.4.3.5.2.8.4.5.2.4.3.5.2.8.4.5.3.4.2.5.2.4.2.5.2.4.3.4.2.5.2.4.2.5.2.4.3.4.2.5.2.4.2.5.2.4.3.5.2.8.4.5.3.4.2.5.2.8.4.5.3.4.2.5.2.4.2.5.2.4.3.4.2.5.2.4.2.5.2.4.3.4.2.5.2.4.2.5.3.4.2.5.2.8.4.5.3.4.2.5.2.8.4.5.3.4.2.5.2.4.2.5.2.4.3.4.2.5.2.4.2.5.3.4.2.5.2.8.4.5.3.4.2.5.2.8.4.5.3.4.2.5.2.4.2.5.2.4.3.4.2.5.2.4.2.5.3.8.4.5.2.4.2.5.3.4.2.5.2.8.4.5.3.4.2.5.2.8.4.5.3.4.2.5.2.4.2.5.3.8.4.5.2.4.2.5.3.8.4.5.2.4.2.5.3.4.2.5.2.8.4.5.3.4.2.5.2.4.2.4.3.5.2.4.2.5.2.4.2.5.3.8.4.5.2.4.2.5.3.8.4.5.2.4.2.5.3.4.2.5.2.4.2.4.3.5.2.4.2.5.2.4.2.4.3.5.2.4.2.5.2.4.2.5.3.8.4.5.2.4.2.5.3.8.4.5.2.4.3.5.2.4.2.5.2.4.2.4.3.5.2.4.2.5.2.4.2.5.3.8.4.5.2.4.2.5.3.8.4.5.2.4.3.5.2.4.2.5.2.4.2.4.3.5.2.4.2.5.2.4.2.4.3.5.2.4.2.5.2.4.2.5.3.8.4.5.2.4.3.5.2.8.4.5.2.4.3.5.2.4.2.5.2.4.2.4.3.5.2.4.2.5.2.4.2.4.3.5.2.4.2.5.2.4.2.5.3.8.4.5.2.4.3.5.2.8.4.5.2.4.3.5.2.4.2.5.2.4.2.4.3.5.2.4.2.5.2.4.2.4.3.5.2.4.2.5.2.4.3.5.2.8.4.5.2.4.3.5.2.8.4.5.2.4.3.5.2.4.2.5.2.4.2.4.3.5.2.4.2.5.2.4.3.4.2.5.2.4.2.5.2.4.3.5.2.8.4.5.2.4.3.5.2.8.4.5.2.4.3.5.2.4.2.5.2.4.3.4.2.5.2.4.2.5.2.4.3.5.2.8.4.5.2.4.3.5.2.8.4.5.2.4.3.5.2.4.2.5.2.4.3.4.2.5.2.4.2.5.2.4.3.4.2.5.2.4.2.5.2.4.3.5.2.8.4.5.2.4.3.5.2.8.4.5.3.4.2.5.2.4.2.5.2.4.3.4.2.5.2.4.2.5.2.4.3.4.2.5.2.4.2.5.2.4.3.5.2.8.4.5.3.4.2.5.2.8.4.5.3.4.2.5.2.4.2.5.2.4.3.4.2.5.2.4.2.5.2.4.3.4.2.5.2.4.2.5.3.4.2.5.2.8.4.5.3.4.2.5.2.8.4.5.3.4.2.5.2.4.2.5.2.4.3.4.2.5.2.4.2.5.3.8.4.5.2.4.2.5.3.4.2.5.2.8.4.5.3.4.2.5.2.8.4.5.3.4.2.5.2.4.2.5.3.8.4.5.2.4.2.5.3.4.2.5.2.8.4.5.3.4.2.5.2.8.4.5.3.4.2.5.2.4.2.5.3.8.4.5.2.4.2.5.3.8.4.5.2.4.2.5.3.4.2.5.2.8.4.5.3.4.2.5.2.4.2.4.3.5.2.4.2.5.2.4.2.5.3.8.4.5.2.4.2.5.3.8.4.5.2.4.2.5.3.4.2.5.2.4.2.4.3.5.2.4.2.5.2.4.2.4.3.5.2.4.2.5.2.4.2.5.3.8.4.5.2.4.2.5.3.8.4.5.2.4.3.5.2.4.2.5.2.4.2.4.3.5.2.4.2.5.2.4.2.4.3.5.2.4.2.5.2.4.2.5.3.8.4.5.2.4.3.5.2.8.4.5.2.4.3.5.2.4.2.5.2.4.2.4.3.5.2.4.2.5.2.4.2.5.3.8.4.5.2.4.3.5.2.8.4.5.2.4.3.5.2.4.2.5.2.4.2.4.3.5.2.4.2.5.2.4.2.4.3.5.2.4.2.5.2.4.3.5.2.8.4.5.2.4.3.5.2.8.4.5.2.4.3.5.2.4.2.5.2.4.2.4.3.5.2.4.2.5.2.4.2.4.3.5.2.4.2.5.2.4.3.5.2.8.4.5.2.4.3.5.2.8.4.5.2.4.3.5.2.4.2.5.2.4.2.4.3.5.2.4.2.5.2.4.3.4.2.5.2.8.4"/>
   <path d="m108.5 276.7.4.2.5.2.4.3.5.2.4.2.5.2.8.4.5.2.4.2.5.2.8.4.5.2.4.2.5.2.4.2.5.2.8.4.5.2.4.2.5.2.8.4.5.2.4.2.5.2.4.2.5.2.8.4.5.2.4.2.5.2.4.3.4.2.5.2.4.2.5.2.4.2.5.2.8.4.5.2.4.2.5.2.8.4.5.2.4.2.5.2.4.2.5.2.8.4.5.2.4.2.5.2.8.4.5.2.4.2.5.2.4.2.5.2.8.4.5.3.4.2.5.2.8.4.5.2.4.2.5.2.4.2.5.2.8.4.5.2.4.2.5.2.8.4.5.2.4.2.5.2.4.2.5.2.8.4.5.2.4.2.5.2.8.4.5.2.4.2.5.2.4.2.5.3.8.4.5.2.4.2.5.2.8.4.5.2.4.2.5.2.4.2.5.2.8.4.5.2.4.2.5.2.4.2.5.2.8.4.5.2.4.2.5.2.8.4.5.2.4.2.5.2.4.2.5.2.4.3.4.2.5.2.4.2.5.2.8.4.5.2.4.2.5.2.4.2.5.2.8.4.5.2.4.2.5.2.8.4.5.2.4.2.5.2.4.2.5.2.8.4.5.2.4.2.5.2.8.4.5.2.4.2.5.3.4.2.5.2.8.4.5.2.4.2.5.2.8.4.5.2.4.2.5.2.4.2.5.2.8.4.5.2.4.2.5.2.8.4.5.2.4.2.5.2.4.2.5.2.8.4.5.2.4.2.5.2.4.2.4.3.5.2.4.2.5.2.4.2.5.2.8.4.5.2.4.2.5.2.8.4.5.2.4.2.5.2.4.2.5.2.8.4.5.2.4.2.5.2.4.2.5.2.8.4.5.2.4.2.5.2.8.4.5.3.4.2.5.2.4.2.5.2.8.4.5.2.4.2.5.2.8.4.5.2.4.2.5.2.4.2.5.2.8.4.5.2.4.2.5.2.8.4.5.2.4.2.5.2.4.2.5.2.8.4.5.2.4.2.5.3.8.4.5.2.4.2.5.2.4.2.5.2.8.4.5.2.4.2.5.2.8.4.5.2.4.2.5.2.4.2.5.2.8.4.5.2.4.2.5.2.8.4.5.2.4.2.5.2.4.2.5.2.4.2.4.3.5.2.4.2.5.2.8.4.5.2.4.2.5.2.4.2.5.2.8.4.5.2.4.2.5.2.8.4.5.2.4.2.5.2.4.2.5.2.8.4.5.2.4.2.5.2.8.4.5.2.4.2.5.3.4.2.5.2.8.4.5.2.4.2.5.2.4.2.5.2.8.4.5.2.4.2.5.2.8.4.5.2.4.2.5.2.4.2.5.2.8.4.5.2.4.2.5.2.8.4.5.2.4.2.5.2.4.2.5.3.8.4.5.2.4.2.5.2.8.4.5.2.4.2.5.2.4.2.5.2.8.4.5.2.4.2.5.2.8.4.5.2.4.2.5.2.4.2.5.2.8.4.5.2.4.2.5.2.8.4.5.2.4.3.5.2.4.2.5.2.8.4.5.2.4.2.5.2.8.4.5.2.4.2.5.2.4.2.5.2.8.4.5.2.4.2.5.2.8.4.5.2.4.2.5.2.4.2.5.2.8.4.5.2.4.2.5.2.4.3.4.2.5.2.4.2.5.2.4.2.5.2.8.4.5.2.4.2.5.2.8.4.5.2.4.2.5.2.4.2.5.2.8.4.5.2.4.2.5.2.4.2.5.2.8.4.5.2.4.2.5.2.4.2.4.3.5.2.4.2.5.2.4.2.5.2.8.4.5.2.4.2.5.2.8.4.5.2.4.2.5.2.4.2.5.2.8.4.5.2.4.2.5.2.8.4.5.2.4.2.5.2.4.2.5.2.8.4.5.2.4.3.5.2.8.4.5.2.4.2.5.2.4.2.5.2.8.4.5.2.4.2.5.2.8.4.5.2.4.2.5.2.4.2.5.2.8.4.5.2.4.2.5.2.8.4.5.2.4.2.5.2.4.2.5.2.4.3.4.2.5.2.4.2.5.2.8.4.5.2.4.2.5.2.4.2.5.2.8.4.5.2.4.2.5.2.8.4.5.2.4.2.5.2.4.2.5.2.8.4.5.2.4.2.5.2.4.2.5.2.4.2.4.3.5.2.4.2.5.2.8.4.5.2.4.2.5.2.4.2.5.2.8.4.5.2.4.2.5.2.8.4.5.2.4.2.5.2.4.2.5.2.8.4.5.2.4.2.5.2.8.4.5.2.4.2.5.2.4.3.5.2.8.4.5.2.4.2.5.2.8.4.5.2.4.2.5.2.4.2.5.2.8.4.5.2.4.2.5.2.8.4.5.2.4.2.5.2.4.2.5.2.8.4.5.2.4.2.5.2.8.4.5.3.4.2.5.2.4.2.5.2.8.4.5.2.4.2.5.2.8.4.5.2.4.2.5.2.4.2.5.2.8.4.5.2.4.2.5.2.1.1"/>
   <path d="m108.5 284 .4.2.5.2.4.2.5.2.4.2.5.2.4.1.4.2.5.2.4.2.5.2.8.4.5.1.4.2.5.2.4.2.5.2.8.4.5.1.4.2.5.2.8.4.5.2.4.2.5.1.4.2.5.2.8.4.5.2.4.2.5.1.8.4.5.2.4.2.5.2.4.2.5.2.4.1.4.2.5.2.4.2.5.2.8.4.5.1.4.2.5.2.4.2.5.2.8.4.5.1.4.2.5.2.8.4.5.2.4.2.5.1.4.2.5.2.8.4.5.2.4.2.5.1.8.4.5.2.4.2.5.2.4.2.5.2.4.1.4.2.5.2.4.2.5.2.8.4.5.1.4.2.5.2.4.2.5.2.8.4.5.1.4.2.5.2.8.4.5.2.4.2.5.1.4.2.5.2.8.4.5.2.4.2.5.1.8.4.5.2.4.2.5.2.4.2.5.2.4.1.4.2.5.2.4.2.5.2.4.2.5.2.4.1.4.2.5.2.4.2.5.2.8.4.5.1.4.2.5.2.4.2.5.2.8.4.5.1.4.2.5.2.8.4.5.2.4.2.5.2.4.1.5.2.8.4.5.2.4.2.5.2.4.1.4.2.5.2.4.2.5.2.4.2.5.2.4.1.4.2.5.2.4.2.5.2.8.4.5.1.4.2.5.2.4.2.5.2.8.4.5.1.4.2.5.2.8.4.5.2.4.2.5.2.4.1.5.2.8.4.5.2.4.2.5.2.4.1.4.2.5.2.4.2.5.2.4.2.5.2.4.1.4.2.5.2.4.2.5.2.8.4.5.1.4.2.5.2.4.2.5.2.8.4.5.1.4.2.5.2.8.4.5.2.4.2.5.2.4.1.5.2.8.4.5.2.4.2.5.2.4.1.5.2.8.4.5.2.4.2.5.2.4.1.4.2.5.2.4.2.5.2.4.2.5.2.4.1.4.2.5.2.4.2.5.2.8.4.5.2.4.1.5.2.4.2.5.2.8.4.5.2.4.1.5.2.8.4.5.2.4.2.5.2.4.1.5.2.8.4.5.2.4.2.5.2.4.1.4.2.5.2.4.2.5.2.4.2.5.2.4.1.4.2.5.2.4.2.5.2.8.4.5.2.4.1.5.2.4.2.5.2.8.4.5.2.4.1.5.2.8.4.5.2.4.2.5.2.4.1.5.2.8.4.5.2.4.2.5.2.4.1.4.2.5.2.4.2.5.2.4.2.5.2.4.1.4.2.5.2.4.2.5.2.8.4.5.2.4.1.5.2.4.2.5.2.8.4.5.2.4.1.5.2.8.4.5.2.4.2.5.2.4.1.5.2.8.4.5.2.4.2.5.2.4.1.5.2.8.4.5.2.4.2.5.2.4.2.4.1.5.2.4.2.5.2.4.2.5.2.4.2.4.1.5.2.4.2.5.2.8.4.5.2.4.1.5.2.4.2.5.2.8.4.5.2.4.1.5.2.8.4.5.2.4.2.5.2.4.1.5.2.8.4.5.2.4.2.5.2.4.2.4.1.5.2.4.2.5.2.4.2.5.2.4.2.4.1.5.2.4.2.5.2.8.4.5.2.4.1.5.2.4.2.5.2.8.4.5.2.4.1.5.2.8.4.5.2.4.2.5.2.4.1.5.2.8.4.5.2.4.2.5.2.4.2.4.1.5.2.4.2.5.2.4.2.5.2.4.2.4.1.5.2.4.2.5.2.8.4.5.2.4.1.5.2.4.2.5.2.8.4.5.2.4.1.5.2.8.4.5.2.4.2.5.2.4.2.5.1.8.4.5.2.4.2.5.2.4.2.5.1.8.4.5.2.4.2.5.2.4.2.4.1.5.2.4.2.5.2.4.2.5.2.4.2.4.1.5.2.4.2.5.2.8.4.5.2.4.1.5.2.4.2.5.2.8.4.5.2.4.2.5.1.8.4.5.2.4.2.5.2.4.2.5.1.8.4.5.2.4.2.5.2.4.2.4.1.5.2.4.2.5.2.4.2.5.2.4.2.4.1.5.2.4.2.5.2.8.4.5.2.4.1.5.2.4.2.5.2.8.4.5.2.4.2.5.1.8.4.5.2.4.2.5.2.4.2.5.1.8.4.5.2.4.2.5.2.4.2.4.1.5.2.4.2.5.2.4.2.5.2.4.2.4.1.5.2.4.2.5.2.8.4.5.2.4.1.5.2.4.2.5.2.8.4.5.2.4.2.5.1.4.2.5.2.8.4.5.2.4.2.5.1.8.4.5.2.4.2.5.2.4.2.5.1.8.4.5.2.4.2.5.2.4.2.4.1.5.2.4.2.5.2.4.2.5.2.8.4.5.1.4.2.5.2.8.4.5.2.4.2.5.1.4.2.5.2.8.4.5.2.4.2.5.1.8.4.5.2.4.2.5.2.4.2.5.1.8.4.5.2.4.2.5.2.4.2.4.1.5.2.4.2.5.2.4.2.5.2.8.4.5.1.4.2.5.2.8.4.5.2.4.2.5.1.4.2.5.2.8.4.5.2.4.2.5.1.8.4.5.2.4.2.5.2.4.2.5.1.8.4.5.2.4.2.5.2.4.2.4.1.5.2.4.2.5.2.4.2.5.2.8.4.5.1.4.2.5.2.8.4.5.2.4.2.5.1.4.2.5.2.4.2"/>
   <path d="m108.5 291.3.4.2.5.2.4.1.5.2.4.2.5.1.8.4.5.2.4.1.5.2.4.2.4.1.5.2.4.2.5.1.4.2.5.2.4.2.4.1.5.2.4.2.5.1.8.4.5.2.4.1.5.2.4.2.5.1.8.4.5.1.4.2.5.2.4.2.4.1.5.2.4.2.5.1.4.2.5.2.4.1.4.2.5.2.4.2.5.1.8.4.5.1.4.2.5.2.4.1.5.2.8.4.5.1.4.2.5.2.4.1.4.2.5.2.4.1.5.2.4.2.5.2.4.1.4.2.5.2.4.1.5.2.4.2.4.1.5.2.4.2.5.2.4.1.5.2.4.2.4.1.5.2.4.2.5.2.4.1.4.2.5.2.4.1.5.2.4.2.5.1.8.4.5.2.4.1.5.2.4.2.4.1.5.2.4.2.5.1.4.2.5.2.4.2.4.1.5.2.4.2.5.1.8.4.5.1.4.2.5.2.4.2.5.1.8.4.5.1.4.2.5.2.4.1.5.2.8.4.5.1.4.2.5.2.4.1.4.2.5.2.4.1.5.2.4.2.5.2.4.1.4.2.5.2.4.1.5.2.8.4.5.1.4.2.5.2.4.1.5.2.4.2.4.1.5.2.4.2.5.2.4.1.4.2.5.2.4.1.5.2.4.2.5.1.8.4.5.2.4.1.5.2.4.2.4.1.5.2.4.2.5.1.4.2.5.2.4.2.4.1.5.2.4.2.5.1.8.4.5.1.4.2.5.2.4.2.5.1.8.4.5.1.4.2.5.2.4.1.4.2.5.2.4.2.5.1.4.2.5.2.4.1.4.2.5.2.4.2.5.1.8.4.5.1.4.2.5.2.4.1.5.2.8.4.5.1.4.2.5.2.4.1.4.2.5.2.4.1.5.2.4.2.5.2.4.1.4.2.5.2.4.1.5.2.4.2.5.1.8.4.5.2.4.1.5.2.4.2.4.1.5.2.4.2.5.1.4.2.5.2.4.2.4.1.5.2.4.2.5.1.8.4.5.1.4.2.5.2.4.2.5.1.8.4.5.1.4.2.5.2.4.2.4.1.5.2.4.2.5.1.4.2.5.2.4.1.4.2.5.2.4.2.5.1.8.4.5.1.4.2.5.2.4.1.5.2.8.4.5.1.4.2.5.2.4.1.4.2.5.2.4.1.5.2.4.2.5.2.4.1.4.2.5.2.4.1.5.2.4.2.4.1.5.2.4.2.5.2.4.1.5.2.4.2.4.1.5.2.4.2.5.2.4.1.4.2.5.2.4.1.5.2.4.2.5.1.8.4.5.2.4.1.5.2.4.2.4.1.5.2.4.2.5.1.4.2.5.2.4.2.4.1.5.2.4.2.5.1.8.4.5.1.4.2.5.2.4.2.5.1.8.4.5.1.4.2.5.2.4.1.5.2.8.4.5.1.4.2.5.2.4.1.4.2.5.2.4.1.5.2.4.2.5.2.4.1.4.2.5.2.4.1.5.2.8.4.5.1.4.2.5.2.4.1.5.2.4.2.4.1.5.2.4.2.5.2.4.1.4.2.5.2.4.1.5.2.4.2.5.1.8.4.5.2.4.1.5.2.4.2.4.1.5.2.4.2.5.1.4.2.5.2.4.2.4.1.5.2.4.2.5.1.8.4.5.1.4.2.5.2.4.2.5.1.8.4.5.1.4.2.5.2.4.1.4.2.5.2.4.2.5.1.4.2.5.2.4.1.4.2.5.2.4.2.5.1.8.4.5.1.4.2.5.2.4.1.5.2.8.4.5.1.4.2.5.2.4.1.4.2.5.2.4.1.5.2.4.2.5.2.4.1.4.2.5.2.4.1.5.2.4.2.4.1.5.2.4.2.5.2.4.1.5.2.4.2.4.1.5.2.4.2.5.1.4.2.5.2.4.2.4.1.5.2.4.2.5.1.8.4.5.1.4.2.5.2.4.2.5.1.8.4.5.1.4.2.5.2.4.2.4.1.5.2.4.2.5.1.4.2.5.2.4.1.4.2.5.2.4.2.5.1.8.4.5.1.4.2.5.2.4.1.5.2.8.4.5.1.4.2.5.2.4.1.4.2.5.2.4.1.5.2.4.2.5.2.4.1.4.2.5.2.4.1.5.2.4.2.4.1.5.2.4.2.5.2.4.1.5.2.4.2.4.1.5.2.4.2.5.1.8.4.5.2.4.1.5.2.4.2.5.1.8.4.5.2.4.1.5.2.4.2.4.1.5.2.4.2.5.1.4.2.5.2.4.2.4.1.5.2.4.2.5.1.8.4.5.1.4.2.5.2.4.2.5.1.8.4.5.1.4.2.5.2.4.1.5.2.8.4.5.1.4.2.5.2.4.1.4.2.5.2.4.1.5.2.4.2.5.2.4.1.4.2.5.2.4.1.5.2.8.4.5.1.4.2.5.2.4.1.5.2.4.2.4.1.5.2.4.2.5.2.4.1.4.2.5.2.4.1.5.2.4.2.5.1.8.4.5.2.4.1.5.2.4.2.4.1.5.2.4.2.5.1.4.2.5.2.4.2.4.1.5.2.4.2.5.1.8.4.5.1.4.2.5.2.4.2.5.1.8.4.5.1.4.2.5.2.4.1.4.2.5.2.4.2.5.1.4.2.5.2.4.1.4.2.5.2.4.2.5.1.8.4.5.1.4.2.5.2.4.1.5.2.8.4.5.1.4.2.5.2.4.1.4.2.5.2.4.1.5.2.4.2.5.2.4.1.4.2.5.2.4.1.5.2.4.2.4.1.5.2.4.2.5.2.4.1.5.2.4.2.4.1.5.2.4.2.5.1.4.2.5.2.4.2.4.1.5.2.4.2.5.1.8.4.5.1.4.2.5.2.4.2.5.1.4.2.3.1"/>
   <path d="m108.5 298.6.4.2.5.1.4.2.5.1.4.2.5.1.8.4.5.1.4.2.5.1.4.2.4.1.5.2.4.1.5.2.4.2.5.1.4.2.4.1.5.2.4.1.5.2.4.1.4.2.5.2.4.1.5.2.4.1.5.2.4.1.4.2.5.1.4.2.5.1.8.4.5.1.4.2.5.1.4.2.5.1.4.2.4.1.5.2.4.2.5.1.4.2.4.1.5.2.4.1.5.2.4.1.5.2.4.1.4.2.5.2.4.1.5.2.4.1.4.2.5.1.4.2.5.1.4.2.5.2.4.1.4.2.5.1.4.2.5.1.4.2.4.1.5.2.4.2.5.1.4.2.5.1.4.2.4.1.5.2.4.1.5.2.4.1.4.2.5.2.4.1.5.2.4.1.5.2.4.1.4.2.5.1.4.2.5.2.4.1.4.2.5.1.4.2.5.1.4.2.5.1.4.2.4.1.5.2.4.2.5.1.4.2.4.1.5.2.4.1.5.2.4.1.5.2.4.2.4.1.5.2.4.1.5.2.4.1.5.2.4.1.4.2.5.2.4.1.5.2.4.1.4.2.5.1.4.2.5.1.4.2.5.1.8.4.5.1.4.2.5.1.4.2.4.1.5.2.4.1.5.2.4.2.5.1.4.2.4.1.5.2.4.1.5.2.4.1.4.2.5.2.4.1.5.2.4.1.5.2.4.1.4.2.5.1.4.2.5.1.8.4.5.1.4.2.5.1.4.2.5.1.4.2.4.1.5.2.4.2.5.1.4.2.4.1.5.2.4.1.5.2.4.1.5.2.4.1.4.2.5.2.4.1.5.2.4.1.4.2.5.1.4.2.5.1.4.2.5.2.4.1.4.2.5.1.4.2.5.1.4.2.4.1.5.2.4.2.5.1.4.2.5.1.4.2.4.1.5.2.4.1.5.2.4.1.4.2.5.2.4.1.5.2.4.1.5.2.4.1.4.2.5.1.4.2.5.2.4.1.5.2.4.1.4.2.5.1.4.2.5.1.4.2.4.1.5.2.4.2.5.1.4.2.5.1.4.2.4.1.5.2.4.1.5.2.4.2.4.1.5.2.4.1.5.2.4.1.5.2.4.1.4.2.5.2.4.1.5.2.4.1.4.2.5.1.4.2.5.1.4.2.5.1.8.4.5.1.4.2.5.1.4.2.4.1.5.2.4.1.5.2.4.2.5.1.4.2.4.1.5.2.4.1.5.2.4.1.4.2.5.1.4.2.5.2.4.1.5.2.4.1.4.2.5.1.4.2.5.1.8.4.5.1.4.2.5.1.4.2.5.1.4.2.4.1.5.2.4.2.5.1.4.2.4.1.5.2.4.1.5.2.4.1.5.2.4.1.4.2.5.2.4.1.5.2.4.1.4.2.5.1.4.2.5.1.4.2.5.2.4.1.4.2.5.1.4.2.5.1.4.2.4.1.5.2.4.1.5.2.4.2.5.1.4.2.4.1.5.2.4.1.5.2.4.1.5.2.4.2.4.1.5.2.4.1.5.2.4.1.4.2.5.1.4.2.5.2.4.1.5.2.4.1.4.2.5.1.4.2.5.1.4.2.4.1.5.2.4.2.5.1.4.2.5.1.4.2.4.1.5.2.4.1.5.2.4.2.4.1.5.2.4.1.5.2.4.1.5.2.4.1.4.2.5.2.4.1.5.2.4.1.4.2.5.1.4.2.5.1.4.2.5.1.8.4.5.1.4.2.5.1.4.2.4.1.5.2.4.1.5.2.4.2.5.1.4.2.4.1.5.2.4.1.5.2.4.1.4.2.5.1.4.2.5.2.4.1.5.2.4.1.4.2.5.1.4.2.5.1.8.4.5.1.4.2.5.1.4.2.5.1.4.2.4.1.5.2.4.2.5.1.4.2.4.1.5.2.4.1.5.2.4.1.5.2.4.1.4.2.5.2.4.1.5.2.4.1.4.2.5.1.4.2.5.1.4.2.5.2.4.1.4.2.5.1.4.2.5.1.4.2.5.1.4.2.4.1.5.2.4.2.5.1.4.2.4.1.5.2.4.1.5.2.4.1.5.2.4.2.4.1.5.2.4.1.5.2.4.1.4.2.5.1.4.2.5.2.4.1.5.2.4.1.4.2.5.1.4.2.5.1.4.2.4.1.5.2.4.2.5.1.4.2.5.1.4.2.4.1.5.2.4.1.5.2.4.2.4.1.5.2.4.1.5.2.4.1.5.2.4.1.4.2.5.1.4.2.5.2.4.1.4.2.5.1.4.2.5.1.4.2.5.1.8.4.5.1.4.2.5.1.4.2.4.1.5.2.4.1.5.2.4.2.5.1.4.2.4.1.5.2.4.1.5.2.4.1.4.2.5.1.4.2.5.2.4.1.5.2.4.1.4.2.5.1.4.2.5.1.8.4.5.1.4.2.5.1.4.2.5.1.4.2.4.1.5.2.4.2.5.1.4.2.5.1.4.2.4.1.5.2.4.1.5.2.4.1.4.2.5.2.4.1.5.2.4.1.5.2.4.1.4.2.5.1.4.2.5.2.4.1.4.2.5.1.4.2.5.1.4.2.5.1.4.2.4.1.5.2.4.2.5.1.4.2.4.1.5.2.4.1.5.2.4.1.5.2.4.2.4.1.5.2.4.1.5.2.4.1.4.2.5.1.4.2.5.2.4.1.5.2.4.1.4.2.5.1.4.2.5.1.4.2.4.1.5.2.4.2.5.1.4.2.5.1.4.2.4.1.5.2.4.1.5.2.4.2.4.1.5.2.4.1.5.2.4.1.5.2.4.1.4.2.5.1.4.2.5.2.4.1.4.2.5.1.4.2.5.1.4.2.5.1.8.4.5.1.4.2.5.1.4.2.4.1.5.2.4.1.5.2.4.2.5.1.4.2.4.1.5.2.4.1.5.2.4.1.4.2.5.1.4.2.5.2.4.1.5.2.4.1.4.2.5.1.4.2.5.1.4.2.5.2.4.1.4.2.5.1.4.2.5.1.4.2.4.1.5.2.4.1.5.2.4.2.5.1.4.2.4.1.5.2.4.1.5.2.4.1.4.2.5.2.4.1.5.2.4.1.5.2.4.1.4.2.5.1.4.2.5.2.4.1.4.2.5.1.4.2h.1"/>
   <path d="m108.5 305.9.4.2.5.1.4.1.5.2.4.1.5.2.8.2.5.2.4.1.5.2.8.2.5.2.4.1.5.2.4.1.5.1.4.2.4.1.5.2.4.1.5.1.4.2.4.1.5.2.4.1.5.2.4.1.5.1.4.2.4.1.5.2.4.1.5.1.4.2.4.1.5.2.4.1.5.1.4.2.5.1.4.2.4.1.5.1.4.2.5.1.4.2.4.1.5.2.4.1.5.1.4.2.5.1.4.2.4.1.5.1.4.2.5.1.4.2.4.1.5.1.4.2.5.1.4.2.5.1.4.1.4.2.5.1.4.2.5.1.4.2.4.1.5.1.4.2.5.1.4.2.5.1.4.1.4.2.5.1.4.2.5.1.4.1.4.2.5.1.4.2.5.1.4.1.5.2.4.1.4.2.5.1.4.2.5.1.4.1.4.2.5.1.4.2.5.1.4.1.5.2.4.1.4.2.5.1.4.1.5.2.4.1.4.2.5.1.4.1.5.2.4.1.5.2.8.2.5.2.4.1.5.2.4.1.5.2.8.2.5.2.4.1.5.2.8.2.5.2.4.1.5.2.4.1.5.1.4.2.4.1.5.2.4.1.5.1.4.2.4.1.5.2.4.1.5.2.4.1.5.1.4.2.4.1.5.2.4.1.5.1.4.2.4.1.5.2.4.1.5.1.4.2.5.1.4.2.4.1.5.1.4.2.5.1.4.2.4.1.5.2.4.1.5.1.4.2.5.1.4.2.4.1.5.1.4.2.5.1.4.2.4.1.5.1.4.2.5.1.4.2.5.1.4.1.4.2.5.1.4.2.5.1.4.2.4.1.5.1.4.2.5.1.4.2.5.1.4.1.4.2.5.1.4.2.5.1.4.1.4.2.5.1.4.2.5.1.4.1.5.2.4.1.4.2.5.1.4.1.5.2.4.1.4.2.5.1.4.2.5.1.4.1.5.2.4.1.4.2.5.1.4.1.5.2.4.1.5.2.8.2.5.2.4.1.5.2.8.2.5.2.4.1.5.2.4.1.5.2.8.2.5.2.4.1.5.2.8.2.5.2.4.1.5.2.4.1.5.1.4.2.4.1.5.2.4.1.5.1.4.2.4.1.5.2.4.1.5.2.4.1.5.1.4.2.4.1.5.2.4.1.5.1.4.2.4.1.5.2.4.1.5.1.4.2.5.1.4.2.4.1.5.1.4.2.5.1.4.2.4.1.5.2.4.1.5.1.4.2.5.1.4.2.4.1.5.1.4.2.5.1.4.2.4.1.5.1.4.2.5.1.4.2.5.1.4.1.4.2.5.1.4.2.5.1.4.1.4.2.5.1.4.2.5.1.4.2.5.1.4.1.4.2.5.1.4.2.5.1.4.1.4.2.5.1.4.2.5.1.4.1.5.2.4.1.4.2.5.1.4.1.5.2.4.1.4.2.5.1.4.2.5.1.4.1.5.2.4.1.4.2.5.1.4.1.5.2.4.1.5.2.8.2.5.2.4.1.5.2.8.2.5.2.4.1.5.2.4.1.5.2.8.2.5.2.4.1.5.2.8.2.5.2.4.1.5.2.4.1.5.1.4.2.4.1.5.2.4.1.5.1.4.2.4.1.5.2.4.1.5.2.4.1.5.1.4.2.4.1.5.2.4.1.5.1.4.2.4.1.5.2.4.1.5.1.4.2.5.1.4.2.4.1.5.1.4.2.5.1.4.2.4.1.5.1.4.2.5.1.4.2.5.1.4.2.4.1.5.1.4.2.5.1.4.2.4.1.5.1.4.2.5.1.4.2.5.1.4.1.4.2.5.1.4.2.5.1.4.1.4.2.5.1.4.2.5.1.4.2.5.1.4.1.4.2.5.1.4.2.5.1.4.1.4.2.5.1.4.2.5.1.4.1.5.2.4.1.4.2.5.1.4.1.5.2.4.1.4.2.5.1.4.2.5.1.4.1.5.2.4.1.4.2.5.1.4.1.5.2.4.1.5.2.8.2.5.2.4.1.5.2.8.2.5.2.4.1.5.2.4.1.5.2.8.2.5.2.4.1.5.2.8.2.5.2.4.1.5.2.4.1.5.1.4.2.4.1.5.2.4.1.5.1.4.2.4.1.5.2.4.1.5.1.4.2.5.1.4.2.4.1.5.2.4.1.5.1.4.2.4.1.5.2.4.1.5.1.4.2.5.1.4.2.4.1.5.1.4.2.5.1.4.2.4.1.5.1.4.2.5.1.4.2.5.1.4.2.4.1.5.1.4.2.5.1.4.2.4.1.5.1.4.2.5.1.4.2.5.1.4.1.4.2.5.1.4.2.5.1.4.1.4.2.5.1.4.2.5.1.4.2.5.1.4.1.4.2.5.1.4.2.5.1.4.1.4.2.5.1.4.2.5.1.4.1.5.2.4.1.4.2.5.1.4.1.5.2.4.1.5.2.4.1.4.2.5.1.4.1.5.2.4.1.4.2.5.1.4.1.5.2.4.1.5.2.8.2.5.2.4.1.5.2.8.2.5.2.4.1.5.2.4.1.5.1.4.2.4.1.5.2.4.1.5.2.8.2.5.2.4.1.5.2.4.1.5.1.4.2.4.1.5.2.4.1.5.1.4.2.4.1.5.2.4.1.5.1.4.2.5.1.4.2.4.1.5.2.4.1.5.1.4.2.4.1.5.2.4.1.5.1.4.2.5.1.4.2.4.1.5.1.4.2.5.1.4.2.4.1.5.1.4.2.5.1.4.2.5.1.4.2.4.1.5.1.4.2.5.1.4.2.4.1.5.1.4.2.5.1.4.2.5.1.4.1.4.2.5.1.4.2.5.1.4.1.4.2.5.1.4.2.5.1.4.2.5.1.4.1.4.2.5.1.4.2.5.1.4.1.4.2.5.1.4.2.5.1.4.1.5.2.4.1.4.2.5.1.4.1.5.2.4.1.5.2.8.2.5.2.4.1.5.2.4.1.4.2.5.1.4.1.5.2.4.1.5.2.8.2.5.2.4.1.5.2.8.2.5.2.4.1.5.2.4.1.5.1.4.2.4.1.5.2.4.1.5.2.8.2.5.2.4.1.5.2.4.1.5.1.4.2.4.1.5.2.4.1.5.1.4.2.4.1.5.2.4.1.5.1.4.2.5.1.4.2.4.1.5.2.8.2"/>
   <path d="m108.5 313.2.4.1.5.2.4.1.5.1.4.1.5.2.8.2.5.1.4.2.5.1.4.1.4.2.5.1.4.1.5.1.4.2.5.1.8.2.5.2.4.1.5.1.4.2.4.1.5.1.4.1.5.2.4.1.5.1.4.2.4.1.5.1.4.1.5.2.8.2.5.1.4.2.5.1.4.1.5.2.8.2.5.1.4.2.5.1.8.2.5.2.4.1.5.1.4.2.5.1.8.2.5.2.4.1.5.1.4.1.4.2.5.1.4.1.5.2.4.1.5.1.4.1.4.2.5.1.4.1.5.1.4.2.4.1.5.1.4.2.5.1.4.1.5.1.4.2.4.1.5.1.4.1.5.2.8.2.5.2.4.1.5.1.4.1.5.2.8.2.5.1.4.2.5.1.4.1.4.2.5.1.4.1.5.1.4.2.5.1.8.2.5.2.4.1.5.1.4.2.4.1.5.1.4.1.5.2.4.1.5.1.4.1.4.2.5.1.4.1.5.2.4.1.5.1.4.1.4.2.5.1.4.1.5.1.4.2.4.1.5.1.4.2.5.1.4.1.5.1.4.2.4.1.5.1.4.1.5.2.8.2.5.2.4.1.5.1.4.1.5.2.8.2.5.2.4.1.5.1.4.1.4.2.5.1.4.1.5.1.4.2.5.1.4.1.4.2.5.1.4.1.5.1.4.2.4.1.5.1.4.1.5.2.4.1.5.1.4.2.4.1.5.1.4.1.5.2.8.2.5.1.4.2.5.1.4.1.5.2.8.2.5.1.4.2.5.1.8.2.5.2.4.1.5.1.4.2.5.1.8.2.5.2.4.1.5.1.4.1.4.2.5.1.4.1.5.2.4.1.5.1.4.1.4.2.5.1.4.1.5.1.4.2.4.1.5.1.4.2.5.1.4.1.5.1.4.2.4.1.5.1.4.1.5.2.4.1.5.1.4.2.4.1.5.1.4.1.5.2.8.2.5.1.4.2.5.1.4.1.5.2.8.2.5.1.4.2.5.1.8.2.5.2.4.1.5.1.4.2.5.1.8.2.5.2.4.1.5.1.4.2.4.1.5.1.4.1.5.2.4.1.5.1.4.1.4.2.5.1.4.1.5.2.8.2.5.1.4.2.5.1.4.1.5.1.4.2.4.1.5.1.4.2.5.1.8.2.5.2.4.1.5.1.4.1.5.2.8.2.5.2.4.1.5.1.4.1.4.2.5.1.4.1.5.1.4.2.5.1.4.1.4.2.5.1.4.1.5.1.4.2.4.1.5.1.4.1.5.2.4.1.5.1.4.2.4.1.5.1.4.1.5.2.8.2.5.1.4.2.5.1.4.1.5.2.8.2.5.1.4.2.5.1.8.2.5.2.4.1.5.1.4.2.5.1.8.2.5.2.4.1.5.1.4.1.5.2.8.2.5.2.4.1.5.1.4.1.4.2.5.1.4.1.5.1.4.2.5.1.4.1.4.2.5.1.4.1.5.1.4.2.4.1.5.1.4.2.5.1.4.1.5.1.4.2.4.1.5.1.4.1.5.2.8.2.5.2.4.1.5.1.4.1.5.2.8.2.5.1.4.2.5.1.4.1.4.2.5.1.4.1.5.1.4.2.5.1.8.2.5.2.4.1.5.1.4.2.4.1.5.1.4.1.5.2.4.1.5.1.4.1.4.2.5.1.4.1.5.2.8.2.5.1.4.2.5.1.4.1.5.1.4.2.4.1.5.1.4.2.5.1.8.2.5.2.4.1.5.1.4.1.5.2.8.2.5.2.4.1.5.1.4.1.4.2.5.1.4.1.5.1.4.2.5.1.4.1.4.2.5.1.4.1.5.1.4.2.4.1.5.1.4.1.5.2.4.1.5.1.4.2.4.1.5.1.4.1.5.2.4.1.5.1.4.1.4.2.5.1.4.1.5.2.8.2.5.1.4.2.5.1.4.1.5.1.4.2.4.1.5.1.4.2.5.1.8.2.5.2.4.1.5.1.4.2.5.1.8.2.5.2.4.1.5.1.4.1.4.2.5.1.4.1.5.2.4.1.5.1.4.1.4.2.5.1.4.1.5.1.4.2.4.1.5.1.4.2.5.1.4.1.5.1.4.2.4.1.5.1.4.1.5.2.8.2.5.2.4.1.5.1.4.1.5.2.8.2.5.1.4.2.5.1.4.1.4.2.5.1.4.1.5.1.4.2.5.1.8.2.5.2.4.1.5.1.4.2.4.1.5.1.4.1.5.2.4.1.5.1.4.1.4.2.5.1.4.1.5.2.8.2.5.1.4.2.5.1.4.1.5.1.4.2.4.1.5.1.4.2.5.1.4.1.5.1.4.2.4.1.5.1.4.1.5.2.8.2.5.2.4.1.5.1.4.1.5.2.8.2.5.1.4.2.5.1.4.1.4.2.5.1.4.1.5.1.4.2.5.1.4.1.4.2.5.1.4.1.5.1.4.2.4.1.5.1.4.1.5.2.4.1.5.1.4.2.4.1.5.1.4.1.5.2.8.2.5.1.4.2.5.1.4.1.5.2.8.2.5.1.4.2.5.1.8.2.5.2.4.1.5.1.4.2.5.1.8.2.5.2.4.1.5.1.4.1.4.2.5.1.4.1.5.2.4.1.5.1.4.1.4.2.5.1.4.1.5.1.4.2.4.1.5.1.4.2.5.1.4.1.5.1.4.2.4.1.5.1.4.1.5.2.8.2.5.2.4.1.5.1.4.1.5.2.8.2.5.1.4.2.5.1.4.1.4.2.5.1.4.1.5.1.4.2.5.1.8.2.5.2.4.1.5.1.4.2.5.1.8.2.5.2.4.1.5.1.4.1.4.2.5.1.4.1.5.2.4.1.5.1.4.1.4.2.5.1.4.1.5.2.8.2.5.1.4.2.5.1.4.1.5.1.4.2.4.1.5.1.4.2.5.1.8.2.5.2.4.1.5.1.4.1.5.2.8.2.5.2.4.1.5.1.4.1.4.2.5.1.4.1.5.1.4.2.5.1.4.1.4.2.5.1.4.1.5.1.4.2.4.1.5.1.4.1.5.2.4.1.5.1.4.2.4.1.5.1.4.1.5.2.8.2.5.1.4.2.5.1.4.1.5.2h.1"/>
   <path d="m108.5 320.5.4.1.5.1.4.1.5.2.4.1.5.1.8.2.5.1.4.1.5.2.8.2.5.1.4.1.5.1.4.1.5.2.8.2.5.1.4.1.5.1.4.1.4.2.5.1.4.1.5.1.4.1.5.1.4.1.4.2.5.1.4.1.5.1.8.2.5.1.4.2.5.1.4.1.5.1.8.2.5.1.4.2.5.1.8.2.5.1.4.1.5.2.4.1.5.1.8.2.5.1.4.1.5.2.8.2.5.1.4.1.5.1.4.1.5.2.8.2.5.1.4.1.5.1.4.1.4.2.5.1.4.1.5.1.4.1.5.1.4.1.4.2.5.1.4.1.5.1.8.2.5.1.4.2.5.1.4.1.5.1.8.2.5.1.4.2.5.1.8.2.5.1.4.1.5.1.4.2.5.1.8.2.5.1.4.1.5.2.8.2.5.1.4.1.5.1.4.1.5.2.8.2.5.1.4.1.5.1.4.1.5.2.8.2.5.1.4.1.5.1.4.1.4.2.5.1.4.1.5.1.4.1.5.1.4.1.4.2.5.1.4.1.5.1.8.2.5.1.4.2.5.1.4.1.5.1.8.2.5.1.4.2.5.1.8.2.5.1.4.1.5.1.4.2.5.1.8.2.5.1.4.1.5.2.8.2.5.1.4.1.5.1.4.1.5.2.8.2.5.1.4.1.5.1.4.1.4.2.5.1.4.1.5.1.4.1.5.1.4.1.4.2.5.1.4.1.5.1.8.2.5.1.4.2.5.1.4.1.5.1.8.2.5.1.4.2.5.1.8.2.5.1.4.1.5.1.4.2.5.1.8.2.5.1.4.1.5.1.4.2.4.1.5.1.4.1.5.1.4.1.5.2.8.2.5.1.4.1.5.1.4.1.5.2.8.2.5.1.4.1.5.1.4.1.4.2.5.1.4.1.5.1.4.1.5.1.4.1.4.2.5.1.4.1.5.1.8.2.5.1.4.2.5.1.4.1.5.1.8.2.5.1.4.2.5.1.8.2.5.1.4.1.5.1.4.2.5.1.8.2.5.1.4.1.5.1.4.2.4.1.5.1.4.1.5.1.4.1.5.2.8.2.5.1.4.1.5.1.4.1.4.2.5.1.4.1.5.1.4.1.5.1.4.1.4.2.5.1.4.1.5.1.8.2.5.1.4.2.5.1.4.1.5.1.8.2.5.1.4.2.5.1.8.2.5.1.4.1.5.1.4.2.5.1.8.2.5.1.4.1.5.1.4.2.4.1.5.1.4.1.5.1.4.1.5.1.4.2.4.1.5.1.4.1.5.1.4.1.4.2.5.1.4.1.5.1.4.1.5.1.4.1.4.2.5.1.4.1.5.1.4.1.5.1.4.1.4.2.5.1.4.1.5.1.8.2.5.1.4.2.5.1.4.1.5.1.8.2.5.1.4.2.5.1.8.2.5.1.4.1.5.1.4.2.5.1.8.2.5.1.4.1.5.1.4.2.4.1.5.1.4.1.5.1.4.1.5.1.4.2.4.1.5.1.4.1.5.1.4.1.4.2.5.1.4.1.5.1.4.1.5.1.4.1.4.2.5.1.4.1.5.1.8.2.5.1.4.2.5.1.4.1.5.1.8.2.5.1.4.2.5.1.8.2.5.1.4.1.5.1.4.2.5.1.8.2.5.1.4.1.5.1.4.2.4.1.5.1.4.1.5.1.4.1.5.1.4.2.4.1.5.1.4.1.5.1.8.2.5.2.4.1.5.1.4.1.5.1.4.1.4.2.5.1.4.1.5.1.8.2.5.1.4.2.5.1.4.1.5.1.8.2.5.1.4.2.5.1.4.1.5.1.8.2.5.1.4.2.5.1.8.2.5.1.4.1.5.1.4.2.5.1.8.2.5.1.4.1.5.1.4.2.4.1.5.1.4.1.5.1.4.1.5.1.4.2.4.1.5.1.4.1.5.1.8.2.5.2.4.1.5.1.4.1.5.1.4.1.4.2.5.1.4.1.5.1.8.2.5.1.4.2.5.1.4.1.5.1.8.2.5.1.4.2.5.1.8.2.5.1.4.1.5.1.4.2.5.1.8.2.5.1.4.1.5.1.4.2.4.1.5.1.4.1.5.1.4.1.5.1.4.2.4.1.5.1.4.1.5.1.8.2.5.2.4.1.5.1.4.1.5.1.8.2.5.2.4.1.5.1.8.2.5.1.4.2.5.1.4.1.5.1.8.2.5.1.4.2.5.1.4.1.5.1.8.2.5.1.4.2.5.1.8.2.5.1.4.1.5.1.4.2.5.1.8.2.5.1.4.1.5.1.4.2.4.1.5.1.4.1.5.1.4.1.5.1.4.2.4.1.5.1.4.1.5.1.8.2.5.2.4.1.5.1.4.1.5.1.8.2.5.2.4.1.5.1.8.2.5.1.4.2.5.1.4.1.5.1.8.2.5.1.4.2.5.1.8.2.5.1.4.1.5.1.4.2.5.1.8.2.5.1.4.1.5.1.4.2.4.1.5.1.4.1.5.1.4.1.5.1.4.2.4.1.5.1.4.1.5.1.8.2.5.2.4.1.5.1.4.1.5.1.8.2.5.2.4.1.5.1.8.2.5.1.4.1.5.2.4.1.5.1.8.2.5.1.4.2.5.1.8.2.5.1.4.1.5.1.4.2.5.1.8.2.5.1.4.1.5.1.4.2.5.1.8.2.5.1.4.1.5.1.4.2.4.1.5.1.4.1.5.1.4.1.5.1.4.2.4.1.5.1.4.1.5.1.8.2.5.2.4.1.5.1.4.1.5.1.8.2.5.2.4.1.5.1.8.2.5.1.4.1.5.2.4.1.5.1.8.2.5.1.4.2.5.1.8.2.5.1.4.1.5.1.4.2.5.1.8.2.5.1.4.1.5.1.4.2.4.1.5.1.4.1.5.1.4.1.5.1.4.2.4.1.5.1.4.1.5.1.8.2.5.2.4.1.5.1.4.1.5.1.8.2.5.2.4.1.5.1.8.2.5.1.4.1.5.2.4.1.5.1.8.2.5.1.4.1.5.2.8.2.5.1"/>
   <path d="m108.5 327.8.4.1.5.1.4.1.5.1.4.1.5.1.8.2.5.1.4.1.5.1.8.2.5.1.4.1.5.1.4.1.5.1.8.2.5.1.4.1.5.1.8.2.5.1.4.2.5.1.4.1.5.1.8.2.5.1.4.1.5.1.8.2.5.1.4.1.5.1.4.1.5.1.8.2.5.1.4.1.5.1.8.2.5.1.4.1.5.1.4.1.5.1.8.2.5.1.4.1.5.1.8.2.5.1.4.1.5.1.4.1.5.1.8.2.5.2.4.1.5.1.8.2.5.1.4.1.5.1.4.1.5.1.8.2.5.1.4.1.5.1.8.2.5.1.4.1.5.1.4.1.5.1.8.2.5.1.4.1.5.1.8.2.5.1.4.1.5.1.4.1.5.1.8.2.5.1.4.1.5.1.8.2.5.1.4.1.5.2.4.1.5.1.8.2.5.1.4.1.5.1.4.1.5.1.8.2.5.1.4.1.5.1.8.2.5.1.4.1.5.1.4.1.5.1.8.2.5.1.4.1.5.1.8.2.5.1.4.1.5.1.4.1.5.1.8.2.5.1.4.1.5.1.8.2.5.1.4.2.5.1.4.1.5.1.8.2.5.1.4.1.5.1.8.2.5.1.4.1.5.1.4.1.5.1.8.2.5.1.4.1.5.1.8.2.5.1.4.1.5.1.4.1.5.1.8.2.5.1.4.1.5.1.8.2.5.1.4.1.5.1.4.1.5.1.8.2.5.2.4.1.5.1.8.2.5.1.4.1.5.1.4.1.5.1.8.2.5.1.4.1.5.1.8.2.5.1.4.1.5.1.4.1.5.1.8.2.5.1.4.1.5.1.4.1.5.1.8.2.5.1.4.1.5.1.8.2.5.1.4.1.5.1.4.1.5.1.4.1.4.2.5.1.4.1.5.1.8.2.5.1.4.1.5.1.4.1.5.1.8.2.5.1.4.1.5.1.8.2.5.1.4.1.5.1.4.1.5.1.8.2.5.1.4.1.5.1.8.2.5.1.4.1.5.1.4.1.5.1.8.2.5.1.4.1.5.1.8.2.5.2.4.1.5.1.4.1.5.1.8.2.5.1.4.1.5.1.8.2.5.1.4.1.5.1.4.1.5.1.8.2.5.1.4.1.5.1.8.2.5.1.4.1.5.1.4.1.5.1.8.2.5.1.4.1.5.1.8.2.5.1.4.1.5.1.4.1.5.1.4.1.4.2.5.1.4.1.5.1.8.2.5.1.4.1.5.1.4.1.5.1.8.2.5.1.4.1.5.1.4.1.5.1.8.2.5.1.4.1.5.1.8.2.5.1.4.1.5.1.4.1.5.1.8.2.5.1.4.1.5.1.8.2.5.1.4.1.5.1.4.1.5.1.4.2.4.1.5.1.4.1.5.1.8.2.5.1.4.1.5.1.4.1.5.1.8.2.5.1.4.1.5.1.8.2.5.1.4.1.5.1.4.1.5.1.8.2.5.1.4.1.5.1.8.2.5.1.4.1.5.1.4.1.5.1.8.2.5.1.4.1.5.1.4.1.4.2.5.1.4.1.5.1.4.1.5.1.8.2.5.1.4.1.5.1.8.2.5.1.4.1.5.1.4.1.5.1.8.2.5.1.4.1.5.1.8.2.5.1.4.1.5.1.4.1.5.1.8.2.5.1.4.1.5.1.8.2.5.1.4.1.5.1.4.1.5.1.4.2.4.1.5.1.4.1.5.1.4.1.5.1.8.2.5.1.4.1.5.1.8.2.5.1.4.1.5.1.4.1.5.1.8.2.5.1.4.1.5.1.8.2.5.1.4.1.5.1.4.1.5.1.8.2.5.1.4.1.5.1.8.2.5.1.4.1.5.1.4.1.5.1.4.2.4.1.5.1.4.1.5.1.8.2.5.1.4.1.5.1.4.1.5.1.8.2.5.1.4.1.5.1.8.2.5.1.4.1.5.1.4.1.5.1.8.2.5.1.4.1.5.1.8.2.5.1.4.1.5.1.4.1.5.1.8.2.5.1.4.1.5.1.4.1.4.2.5.1.4.1.5.1.4.1.5.1.8.2.5.1.4.1.5.1.8.2.5.1.4.1.5.1.4.1.5.1.8.2.5.1.4.1.5.1.4.1.5.1.8.2.5.1.4.1.5.1.8.2.5.1.4.1.5.1.4.1.5.1.8.2.5.1.4.1.5.1.4.2.4.1.5.1.4.1.5.1.4.1.5.1.8.2.5.1.4.1.5.1.8.2.5.1.4.1.5.1.4.1.5.1.8.2.5.1.4.1.5.1.8.2.5.1.4.1.5.1.4.1.5.1.8.2.5.1.4.1.5.1.8.2.5.1.4.1.5.1.4.1.5.2.8.2.5.1.4.1.5.1.8.2.5.1.4.1.5.1.4.1.5.1.8.2.5.1.4.1.5.1.8.2.5.1.4.1.5.1.4.1.5.1.8.2.5.1.4.1.5.1.8.2.5.1.4.1.5.1.4.1.5.1.8.2.5.1.4.1.5.1.4.2.4.1.5.1.4.1.5.1.4.1.5.1.8.2.5.1.4.1.5.1.4.1.5.1.8.2.5.1.4.1.5.1.8.2.5.1.4.1.5.1.4.1.5.1.8.2.5.1.4.1.5.1.8.2.5.1.4.1.5.1.4.1.5.1.8.2.5.1.4.1.5.2.8.2.5.1.4.1.5.1.4.1.5.1.8.2.5.1.4.1.5.1.8.2.5.1.4.1.5.1.4.1.5.1.8.2.5.1.4.1.5.1.8.2.5.1.4.1.5.1.4.1.5.1.8.2.5.1.4.1.5.1.8.2.5.1.4.1.5.1.4.2.5.1.8.2.5.1.4.1.5.1.8.2.5.1.4.1.5.1.4.1.5.1.8.2.5.1.4.1.5.1.8.2.5.1.4.1.5.1.4.1.5.1.8.2.5.1.4.1.5.1.8.2.5.1.4.1.5.1.4.1.5.1.8.2.5.1.2.1"/>
   <path d="m108.5 335.1.4.1.5.1.4.1h.5l.4.1.5.1.8.2.5.1.4.1.5.1.8.2h.5l.4.1.5.1.4.1.5.1.8.2.5.1.4.1.5.1.4.1h.4l.5.1.4.1.5.1.4.1.5.1.8.2.5.1.4.1.5.1h.4l.4.1.5.1.4.1.5.1.4.1.5.1.8.2.5.1.4.1h.5l.8.2.5.1.4.1.5.1.4.1.5.1.8.2.5.1h.4l.5.1.8.2.5.1.4.1.5.1.4.1.5.1.8.2h.5l.4.1.5.1.8.2.5.1.4.1.5.1.4.1.5.1.4.1h.4l.5.1.4.1.5.1.8.2.5.1.4.1.5.1.4.1.5.1h.4l.4.1.5.1.4.1.5.1.8.2.5.1.4.1.5.1h.4l.5.1.8.2.5.1.4.1.5.1.8.2.5.1.4.1h.5l.4.1.5.1.8.2.5.1.4.1.5.1.4.1.5.1.4.1h.4l.5.1.4.1.5.1.8.2.5.1.4.1.5.1.4.1.5.1h.4l.4.1.5.1.4.1.5.1.8.2.5.1.4.1.5.1.4.1h.5l.8.2.5.1.4.1.5.1.8.2.5.1.4.1.5.1h.4l.5.1.8.2.5.1.4.1.5.1.8.2.5.1.4.1h.5l.4.1.5.1.8.2.5.1.4.1.5.1.8.2h.5l.4.1.5.1.4.1.5.1.8.2.5.1.4.1.5.1.4.1h.4l.5.1.4.1.5.1.4.1.5.1.8.2.5.1.4.1.5.1h.4l.4.1.5.1.4.1.5.1.4.1.5.1.8.2.5.1.4.1h.5l.8.2.5.1.4.1.5.1.4.1.5.1.8.2.5.1h.4l.5.1.4.1.5.1.8.2.5.1.4.1.5.1.8.2h.5l.4.1.5.1.4.1.5.1.8.2.5.1.4.1.5.1.4.1h.4l.5.1.4.1.5.1.4.1.5.1.8.2.5.1.4.1.5.1h.4l.4.1.5.1.4.1.5.1.4.1.5.1.8.2.5.1h.4l.5.1.8.2.5.1.4.1.5.1.4.1.5.1.8.2h.5l.4.1.5.1.8.2.5.1.4.1.5.1.4.1.5.1.4.1h.4l.5.1.4.1.5.1.8.2.5.1.4.1.5.1.4.1.5.1h.4l.4.1.5.1.4.1.5.1.8.2.5.1.4.1.5.1.4.1h.5l.8.2.5.1.4.1.5.1.8.2.5.1.4.1.5.1h.4l.5.1.8.2.5.1.4.1.5.1.8.2.5.1.4.1h.5l.4.1.5.1.8.2.5.1.4.1.5.1.4.1.5.1h.4l.4.1.5.1.4.1.5.1.8.2.5.1.4.1.5.1.4.1h.5l.8.2.5.1.4.1.5.1.8.2.5.1.4.1.5.1h.4l.5.1.8.2.5.1.4.1.5.1.8.2.5.1.4.1h.5l.4.1.5.1.8.2.5.1.4.1.5.1.8.2.5.1h.4l.5.1.4.1.5.1.8.2.5.1.4.1.5.1.8.2h.5l.4.1.5.1.4.1.5.1.8.2.5.1.4.1.5.1.4.1h.4l.5.1.4.1.5.1.4.1.5.1.8.2.5.1.4.1.5.1h.4l.4.1.5.1.4.1.5.1.4.1.5.1.8.2.5.1h.4l.5.1.8.2.5.1.4.1.5.1.4.1.5.1.8.2h.5l.4.1.5.1.8.2.5.1.4.1.5.1.4.1.5.1.4.1h.4l.5.1.4.1.5.1.4.1.5.1.8.2.5.1.4.1.5.1h.4l.4.1.5.1.4.1.5.1.4.1.5.1.8.2.5.1.4.1h.5l.8.2.5.1.4.1.5.1.4.1.5.1.8.2.5.1h.4l.5.1.8.2.5.1.4.1.5.1.4.1.5.1.8.2h.5l.4.1.5.1.8.2.5.1.4.1.5.1.4.1.5.1h.4l.4.1.5.1.4.1.5.1.8.2.5.1.4.1.5.1.4.1h.5l.8.2.5.1.4.1.5.1.8.2.5.1.4.1.5.1h.4l.5.1.8.2.5.1.4.1.5.1.8.2.5.1.4.1h.5l.4.1.5.1.8.2.5.1.4.1.5.1.8.2.5.1h.4l.5.1.4.1.5.1.8.2.5.1.4.1.5.1.4.1.5.1h.4l.4.1.5.1.4.1.5.1.8.2.5.1.4.1.5.1.4.1h.5l.8.2.5.1.4.1.5.1.8.2.5.1.4.1.5.1h.4l.5.1.8.2.5.1.4.1.5.1.8.2.5.1h.4l.5.1.4.1.5.1.8.2.5.1.4.1.5.1.8.2h.5l.4.1.5.1.4.1.5.1.8.2.5.1.4.1.5.1.4.1h.4l.5.1.4.1.5.1.4.1.5.1.8.2.5.1.4.1.5.1h.4l.4.1.5.1.4.1.5.1.4.1.5.1.8.2.5.1.4.1h.5l.8.2.5.1.4.1.5.1.4.1.5.1.8.2.5.1h.4l.5.1.8.2.5.1.4.1.5.1.4.1.5.1.8.2h.5l.4.1.5.1.8.2.5.1.4.1.5.1.4.1.5.1h.4l.4.1.5.1.4.1.5.1.4.1.5.1.8.2.5.1.4.1h.5l.8.2.5.1.4.1.5.1.4.1.5.1.8.2.5.1h.4l.5.1.8.2.5.1.4.1.5.1.4.1.5.1.8.2h.5l.4.1.5.1.8.2.5.1.4.1.5.1.4.1.5.1.4.1h.4l.5.1.4.1.5.1.8.2.5.1.4.1.5.1.4.1.5.1h.4l.4.1.5.1.4.1.5.1.8.2.5.1.4.1.5.1.4.1h.5l.8.2.5.1.4.1.5.1.8.2.5.1.4.1.5.1h.4l.5.1.8.2.5.1.4.1.5.1.8.2.5.1h.4l.5.1.4.1.5.1.8.2.5.1.4.1.5.1.8.2h.5l.4.1.5.1.4.1.5.1.8.2.5.1.4.1.5.1.4.1h.4l.5.1.4.1.5.1.4.1.5.1.8.2.5.1.4.1.5.1h.4l.5.1.8.2.5.1.4.1.5.1.8.2.5.1.4.1h.5l.4.1.5.1.8.2.5.1.4.1h.1"/>
   <path d="m108.5 342.4.4.1h.5l.4.1.5.1.4.1h.5l.8.2.5.1.4.1h.5l.8.2.5.1.4.1h.5l.4.1.5.1.8.2h.5l.4.1.5.1.8.2h.5l.4.1.5.1.4.1.5.1h.4l.4.1.5.1.4.1.5.1h.4l.4.1.5.1.4.1.5.1h.4l.5.1.8.2.5.1h.4l.5.1.8.2.5.1h.4l.5.1.4.1.5.1.4.1h.4l.5.1.4.1.5.1.4.1h.4l.5.1.4.1.5.1.4.1h.5l.8.2.5.1.4.1h.5l.8.2.5.1.4.1h.5l.4.1.5.1.8.2h.5l.4.1.5.1.8.2h.5l.4.1.5.1.4.1.5.1h.4l.4.1.5.1.4.1h.5l.8.2.5.1.4.1h.5l.4.1.5.1.8.2h.5l.4.1.5.1.8.2h.5l.4.1.5.1.4.1.5.1h.4l.4.1.5.1.4.1.5.1h.4l.5.1.8.2.5.1h.4l.5.1.8.2.5.1h.4l.5.1.4.1.5.1.4.1h.4l.5.1.4.1.5.1.4.1h.4l.5.1.4.1.5.1.4.1h.5l.8.2.5.1.4.1h.5l.8.2.5.1.4.1h.5l.4.1.5.1.8.2h.5l.4.1.5.1.8.2h.5l.4.1.5.1.4.1.5.1h.4l.4.1.5.1.4.1.5.1h.4l.4.1.5.1.4.1h.5l.4.1.5.1.8.2h.5l.4.1.5.1.8.2h.5l.4.1.5.1.4.1.5.1h.4l.4.1.5.1.4.1.5.1h.4l.4.1.5.1.4.1.5.1h.4l.5.1.8.2.5.1h.4l.5.1.8.2.5.1h.4l.5.1.4.1.5.1.4.1h.4l.5.1.4.1.5.1.4.1h.5l.8.2.5.1.4.1h.5l.8.2.5.1.4.1h.5l.4.1.5.1.8.2h.5l.4.1.5.1.8.2h.5l.4.1.5.1.4.1.5.1h.4l.4.1.5.1.4.1.5.1h.4l.4.1.5.1.4.1.5.1h.4l.5.1.8.2.5.1h.4l.5.1.8.2h.5l.4.1.5.1.4.1.5.1h.4l.4.1.5.1.4.1.5.1h.4l.4.1.5.1.4.1.5.1h.4l.5.1.8.2.5.1h.4l.5.1.8.2.5.1h.4l.5.1.4.1.5.1.4.1h.4l.5.1.4.1.5.1.4.1h.4l.5.1.4.1.5.1.4.1h.5l.8.2.5.1.4.1h.5l.8.2.5.1.4.1h.5l.4.1.5.1.8.2h.5l.4.1.5.1.8.2h.5l.4.1.5.1.4.1.5.1h.4l.4.1.5.1.4.1.5.1h.4l.5.1.8.2.5.1h.4l.5.1.8.2.5.1h.4l.5.1.4.1.5.1.4.1h.4l.5.1.4.1.5.1h.4l.4.1.5.1.4.1.5.1h.4l.5.1.8.2.5.1h.4l.5.1.8.2.5.1h.4l.5.1.4.1.5.1.4.1h.4l.5.1.4.1.5.1.4.1h.4l.5.1.4.1.5.1.4.1h.5l.8.2.5.1.4.1h.5l.8.2.5.1.4.1h.5l.4.1.5.1.8.2h.5l.4.1.5.1.8.2h.5l.4.1.5.1.4.1.5.1h.4l.4.1.5.1.4.1.5.1h.4l.4.1.5.1.4.1.5.1h.4l.5.1.8.2.5.1h.4l.5.1.8.2.5.1h.4l.5.1.4.1.5.1.4.1h.4l.5.1.4.1.5.1.4.1h.4l.5.1.4.1.5.1h.4l.5.1.8.2.5.1h.4l.5.1.4.1.5.1.4.1h.4l.5.1.4.1.5.1.4.1h.4l.5.1.4.1.5.1.4.1h.5l.8.2.5.1.4.1h.5l.8.2.5.1.4.1h.5l.4.1.5.1.8.2h.5l.4.1.5.1.8.2h.5l.4.1.5.1.4.1.5.1h.4l.4.1.5.1.4.1.5.1h.4l.4.1.5.1.4.1.5.1h.4l.5.1.8.2.5.1h.4l.5.1.8.2.5.1h.4l.5.1.4.1.5.1.4.1h.4l.5.1.4.1.5.1.4.1h.4l.5.1.4.1.5.1.4.1h.5l.8.2.5.1.4.1h.5l.8.2.5.1h.4l.5.1.4.1.5.1.4.1h.4l.5.1.4.1.5.1.4.1h.4l.5.1.4.1.5.1.4.1h.5l.8.2.5.1.4.1h.5l.4.1.5.1.8.2h.5l.4.1.5.1.8.2h.5l.4.1.5.1.4.1.5.1h.4l.4.1.5.1.4.1.5.1h.4l.4.1.5.1.4.1.5.1h.4l.5.1.8.2.5.1h.4l.5.1.8.2.5.1h.4l.5.1.4.1.5.1.4.1h.4l.5.1.4.1.5.1.4.1h.4l.5.1.4.1.5.1.4.1h.5l.8.2.5.1.4.1h.5l.8.2.5.1.4.1h.5l.4.1.5.1.4.1h.4l.5.1.4.1.5.1.4.1h.4l.5.1.4.1.5.1.4.1h.5l.8.2.5.1.4.1h.5l.8.2.5.1.4.1h.5l.4.1.5.1.8.2h.5l.4.1.5.1.8.2h.5l.4.1.5.1.4.1.5.1h.4l.4.1.5.1.4.1.5.1h.4l.4.1.5.1.4.1.5.1h.4l.5.1.8.2.5.1h.4l.5.1.4.1.5.1.4.1h.4l.5.1.4.1.5.1.4.1h.4l.5.1.4.1.5.1.4.1h.5l.8.2.5.1.4.1h.5l.8.2.5.1.4.1h.5l.4.1.5.1.8.2h.5l.4.1.5.1.8.2h.5l.4.1.5.1.4.1h.5l.8.2.5.1.4.1h.5l.8.2.5.1.4.1h.5l.4.1.5.1.8.2h.5l.4.1.5.1.8.2h.5l.4.1.5.1.4.1.5.1h.4l.4.1.5.1.4.1.5.1h.4l.4.1.5.1.4.1.5.1h.4l.5.1.8.2.5.1h.4l.5.1.8.2.5.1h.4l.5.1.4.1.5.1.4.1h.4l.5.1.4.1.5.1.4.1h.4l.5.1.4.1.5.1.4.1h.5l.8.2.5.1.4.1h.5l.8.2.5.1.4.1h.5l.4.1.5.1.8.2h.5l.4.1.5.1.4.1.5.1h.4l.4.1.5.1.4.1.5.1h.4l.4.1.5.1.4.1h.5l.4.1.5.1.8.2h.5l.4.1.5.1.8.2h.5l.4.1.5.1.4.1.5.1h.4l.4.1.5.1.4.1.5.1h.4l.4.1.5.1.4.1.5.1h.4l.3.1"/>
   <path d="m108.5 349.7h.4l.5.1.4.1h.5l.4.1.5.1h.4l.4.1.5.1.4.1h.5l.8.2h.5l.4.1.5.1h.4l.5.1.4.1h.4l.5.1.4.1.5.1h.4l.4.1.5.1h.4l.5.1.4.1h.5l.8.2h.5l.4.1.5.1.4.1h.4l.5.1.4.1h.5l.4.1.5.1h.4l.4.1.5.1h.4l.5.1.8.2h.5l.4.1.5.1h.4l.5.1.4.1h.4l.5.1.4.1h.5l.8.2.5.1h.4l.5.1.4.1h.5l.8.2h.5l.4.1.5.1h.4l.4.1.5.1.4.1h.5l.4.1.5.1h.4l.4.1.5.1h.4l.5.1.4.1h.4l.5.1.4.1.5.1h.4l.5.1.4.1h.4l.5.1.4.1h.5l.8.2.5.1h.4l.5.1.4.1h.5l.8.2h.5l.4.1.5.1h.4l.4.1.5.1.4.1h.5l.4.1.5.1h.4l.4.1.5.1h.4l.5.1.4.1h.5l.8.2.5.1h.4l.5.1.4.1h.4l.5.1.4.1h.5l.4.1.5.1h.4l.4.1.5.1.4.1h.5l.8.2h.5l.4.1.5.1h.4l.5.1.4.1h.4l.5.1.4.1.5.1h.4l.4.1.5.1h.4l.5.1.4.1h.5l.8.2h.5l.4.1.5.1.4.1h.4l.5.1.4.1h.5l.4.1.5.1h.4l.4.1.5.1h.4l.5.1.8.2h.5l.4.1.5.1h.4l.5.1.4.1h.4l.5.1.4.1h.5l.8.2.5.1h.4l.5.1.4.1h.5l.8.2h.5l.4.1.5.1h.4l.4.1.5.1.4.1h.5l.4.1.5.1h.4l.4.1.5.1h.4l.5.1.4.1h.4l.5.1.4.1.5.1h.4l.5.1.4.1h.4l.5.1.4.1h.5l.4.1.5.1h.4l.4.1.5.1.4.1h.5l.8.2h.5l.4.1.5.1h.4l.5.1.4.1h.4l.5.1.4.1.5.1h.4l.4.1.5.1h.4l.5.1.4.1h.5l.8.2h.5l.4.1.5.1.4.1h.4l.5.1.4.1h.5l.4.1.5.1h.4l.4.1.5.1h.4l.5.1.8.2h.5l.4.1.5.1h.4l.5.1.4.1h.4l.5.1.4.1h.5l.8.2.5.1h.4l.5.1.4.1h.5l.8.2h.5l.4.1.5.1h.4l.4.1.5.1.4.1h.5l.4.1.5.1h.4l.4.1.5.1h.4l.5.1.4.1h.4l.5.1.4.1.5.1h.4l.5.1.4.1h.4l.5.1.4.1h.5l.8.2h.5l.4.1.5.1.4.1h.5l.8.2h.5l.4.1.5.1h.4l.4.1.5.1h.4l.5.1.4.1.5.1h.4l.4.1.5.1h.4l.5.1.4.1h.5l.8.2h.5l.4.1.5.1.4.1h.4l.5.1.4.1h.5l.4.1.5.1h.4l.4.1.5.1.4.1h.5l.8.2h.5l.4.1.5.1h.4l.5.1.4.1h.4l.5.1.4.1.5.1h.4l.4.1.5.1h.4l.5.1.4.1h.5l.8.2h.5l.4.1.5.1.4.1h.4l.5.1.4.1h.5l.4.1.5.1h.4l.4.1.5.1h.4l.5.1.8.2h.5l.4.1.5.1h.4l.5.1.4.1h.4l.5.1.4.1h.5l.8.2.5.1h.4l.5.1.4.1h.5l.8.2h.5l.4.1.5.1h.4l.4.1.5.1.4.1h.5l.4.1.5.1h.4l.4.1.5.1h.4l.5.1.4.1h.4l.5.1.4.1.5.1h.4l.5.1.4.1h.4l.5.1.4.1h.5l.8.2h.5l.4.1.5.1.4.1h.5l.8.2h.5l.4.1.5.1h.4l.5.1.4.1h.4l.5.1.4.1.5.1h.4l.4.1.5.1h.4l.5.1.4.1h.5l.8.2h.5l.4.1.5.1.4.1h.4l.5.1.4.1h.5l.4.1.5.1h.4l.4.1.5.1h.4l.5.1.8.2h.5l.4.1.5.1h.4l.5.1.4.1h.4l.5.1.4.1h.5l.8.2.5.1h.4l.5.1.4.1h.5l.8.2h.5l.4.1.5.1h.4l.4.1.5.1.4.1h.5l.4.1.5.1h.4l.4.1.5.1h.4l.5.1.4.1h.4l.5.1.4.1.5.1h.4l.5.1.4.1h.4l.5.1.4.1h.5l.8.2h.5l.4.1.5.1.4.1h.5l.8.2h.5l.4.1.5.1h.4l.4.1.5.1h.4l.5.1.4.1.5.1h.4l.4.1.5.1h.4l.5.1.4.1h.5l.8.2h.5l.4.1.5.1.4.1h.4l.5.1.4.1h.5l.4.1.5.1h.4l.4.1.5.1h.4l.5.1.8.2h.5l.4.1.5.1h.4l.5.1.4.1h.4l.5.1.4.1h.5l.8.2.5.1h.4l.5.1.4.1h.5l.8.2h.5l.4.1.5.1h.4l.4.1.5.1.4.1h.5l.4.1.5.1h.4l.4.1.5.1h.4l.5.1.4.1h.4l.5.1.4.1.5.1h.4l.5.1.4.1h.4l.5.1.4.1h.5l.8.2.5.1h.4l.5.1.4.1h.5l.8.2h.5l.4.1.5.1h.4l.4.1.5.1.4.1h.5l.4.1.5.1h.4l.4.1.5.1h.4l.5.1.4.1h.4l.5.1.4.1.5.1h.4l.5.1.4.1h.4l.5.1.4.1h.5l.8.2h.5l.4.1.5.1.4.1h.5l.8.2h.5l.4.1.5.1h.4l.5.1.4.1h.4l.5.1.4.1.5.1h.4l.4.1.5.1h.4l.5.1.4.1h.5l.8.2h.5l.4.1.5.1.4.1h.4l.5.1.4.1h.5l.4.1.5.1h.4l.4.1.5.1h.4l.5.1.8.2h.5l.4.1.5.1h.4l.5.1.4.1h.4l.5.1.4.1h.5l.8.2.5.1h.4l.5.1.4.1h.5l.8.2h.5l.4.1.5.1h.4l.4.1.5.1.4.1h.5l.4.1.5.1h.4l.4.1.5.1h.4l.5.1.4.1h.4l.5.1.4.1.5.1h.4l.5.1.4.1h.4l.5.1.4.1h.5l.8.2h.5l.4.1.5.1.4.1h.5l.8.2h.5l.4.1.5.1h.4l.4.1.5.1h.4l.5.1.4.1.5.1h.4l.4.1.5.1h.4l.5.1.4.1h.4l.5.1.4.1h.5l.4.1.5.1.4.1h.4l.5.1.4.1h.5l.4.1.5.1h.4l.4.1.5.1h.4l.5.1.8.2h.5l.4.1.5.1h.4l.5.1.4.1h.4l.5.1.4.1h.5l.8.2.5.1h.4l.5.1.4.1h.5l.8.2h.5l.4.1.5.1h.4l.4.1.5.1.4.1h.5l.4.1.5.1h.4l.4.1.5.1h.4l.5.1.4.1h.4l.5.1.4.1.5.1h.4l.5.1.4.1h.4l.5.1.4.1h.5l.8.2h.2"/>
   <path d="m108.5 357h.4l.5.1h.4l.5.1.4.1h.5l.4.1h.4l.5.1h.4l.5.1.4.1h.4l.5.1h.4l.5.1.4.1h.5l.4.1h.4l.5.1.4.1h.5l.4.1h.4l.5.1.4.1h.5l.4.1h.5l.8.2h.5l.4.1h.5l.4.1h.4l.5.1.4.1h.5l.4.1h.5l.8.2h.5l.4.1h.5l.8.2h.5l.4.1h.5l.4.1.5.1h.4l.4.1h.5l.4.1h.5l.8.2h.5l.4.1h.5l.4.1.5.1h.4l.4.1h.5l.4.1.5.1h.4l.4.1h.5l.4.1.5.1h.4l.5.1h.4l.4.1.5.1h.4l.5.1h.4l.4.1h.5l.4.1.5.1h.4l.5.1h.4l.4.1.5.1h.4l.5.1h.4l.4.1.5.1h.4l.5.1h.4l.5.1.4.1h.4l.5.1h.4l.5.1.4.1h.4l.5.1h.4l.5.1h.4l.5.1.4.1h.4l.5.1h.4l.5.1.4.1h.5l.4.1h.4l.5.1.4.1h.5l.4.1h.4l.5.1.4.1h.5l.4.1h.5l.8.2h.5l.4.1h.5l.4.1h.4l.5.1.4.1h.5l.4.1h.5l.8.2h.5l.4.1h.5l.8.2h.5l.4.1h.5l.4.1.5.1h.4l.4.1h.5l.4.1h.5l.8.2h.5l.4.1h.5l.4.1.5.1h.4l.4.1h.5l.4.1.5.1h.4l.4.1h.5l.4.1.5.1h.4l.5.1h.4l.4.1.5.1h.4l.5.1h.4l.4.1h.5l.4.1.5.1h.4l.5.1h.4l.4.1.5.1h.4l.5.1h.4l.4.1.5.1h.4l.5.1h.4l.5.1.4.1h.4l.5.1h.4l.5.1.4.1h.4l.5.1h.4l.5.1h.4l.5.1.4.1h.4l.5.1h.4l.5.1.4.1h.5l.4.1h.4l.5.1.4.1h.5l.4.1h.4l.5.1.4.1h.5l.4.1h.5l.8.2h.5l.4.1h.5l.4.1h.4l.5.1.4.1h.5l.4.1h.5l.8.2h.5l.4.1h.5l.8.2h.5l.4.1h.5l.4.1.5.1h.4l.4.1h.5l.4.1h.5l.8.2h.5l.4.1h.5l.4.1.5.1h.4l.4.1h.5l.4.1.5.1h.4l.4.1h.5l.4.1.5.1h.4l.5.1h.4l.4.1.5.1h.4l.5.1h.4l.4.1h.5l.4.1.5.1h.4l.5.1h.4l.4.1.5.1h.4l.5.1h.4l.4.1.5.1h.4l.5.1h.4l.5.1.4.1h.4l.5.1h.4l.5.1.4.1h.4l.5.1h.4l.5.1h.4l.5.1.4.1h.4l.5.1h.4l.5.1.4.1h.4l.5.1h.4l.5.1.4.1h.5l.4.1h.4l.5.1.4.1h.5l.4.1h.5l.8.2h.5l.4.1h.5l.4.1h.4l.5.1.4.1h.5l.4.1h.5l.8.2h.5l.4.1h.5l.8.2h.5l.4.1h.5l.4.1.5.1h.4l.4.1h.5l.4.1h.5l.8.2h.5l.4.1h.5l.4.1.5.1h.4l.4.1h.5l.4.1.5.1h.4l.4.1h.5l.4.1.5.1h.4l.5.1h.4l.4.1.5.1h.4l.5.1h.4l.4.1h.5l.4.1.5.1h.4l.5.1h.4l.4.1.5.1h.4l.5.1h.4l.4.1.5.1h.4l.5.1h.4l.5.1.4.1h.4l.5.1h.4l.5.1.4.1h.4l.5.1h.4l.5.1h.4l.5.1.4.1h.4l.5.1h.4l.5.1.4.1h.4l.5.1h.4l.5.1.4.1h.5l.4.1h.4l.5.1.4.1h.5l.4.1h.4l.5.1.4.1h.5l.4.1h.5l.4.1h.4l.5.1.4.1h.5l.4.1h.5l.8.2h.5l.4.1h.5l.8.2h.5l.4.1h.5l.4.1.5.1h.4l.4.1h.5l.4.1h.5l.8.2h.5l.4.1h.5l.4.1.5.1h.4l.4.1h.5l.4.1.5.1h.4l.4.1h.5l.4.1.5.1h.4l.5.1h.4l.4.1.5.1h.4l.5.1h.4l.4.1h.5l.4.1.5.1h.4l.5.1h.4l.4.1.5.1h.4l.5.1h.4l.4.1.5.1h.4l.5.1h.4l.5.1.4.1h.4l.5.1h.4l.5.1.4.1h.4l.5.1h.4l.5.1h.4l.5.1.4.1h.4l.5.1h.4l.5.1.4.1h.4l.5.1h.4l.5.1.4.1h.5l.4.1h.4l.5.1.4.1h.5l.4.1h.4l.5.1.4.1h.5l.4.1h.5l.4.1h.4l.5.1.4.1h.5l.4.1h.5l.8.2h.5l.4.1h.5l.8.2h.5l.4.1h.5l.4.1.5.1h.4l.4.1h.5l.4.1.5.1h.4l.4.1h.5l.4.1h.5l.4.1.5.1h.4l.4.1h.5l.4.1.5.1h.4l.4.1h.5l.4.1.5.1h.4l.5.1h.4l.4.1.5.1h.4l.5.1h.4l.4.1h.5l.4.1.5.1h.4l.5.1h.4l.4.1.5.1h.4l.5.1h.4l.4.1.5.1h.4l.5.1h.4l.5.1.4.1h.4l.5.1h.4l.5.1.4.1h.4l.5.1h.4l.5.1h.4l.5.1.4.1h.4l.5.1h.4l.5.1.4.1h.4l.5.1h.4l.5.1.4.1h.5l.4.1h.4l.5.1.4.1h.5l.4.1h.4l.5.1.4.1h.5l.4.1h.5l.4.1h.4l.5.1.4.1h.5l.4.1h.4l.5.1.4.1h.5l.4.1h.5l.8.2h.5l.4.1h.5l.4.1.5.1h.4l.4.1h.5l.4.1.5.1h.4l.4.1h.5l.4.1h.5l.4.1.5.1h.4l.4.1h.5l.4.1.5.1h.4l.4.1h.5l.4.1.5.1h.4l.5.1h.4l.4.1.5.1h.4l.5.1h.4l.4.1h.5l.4.1.5.1h.4l.5.1h.4l.4.1.5.1h.4l.5.1h.4l.4.1.5.1h.4l.5.1h.4l.5.1.4.1h.4l.5.1h.4l.5.1.4.1h.4l.5.1h.4l.5.1h.4l.5.1.4.1h.4l.5.1h.4l.5.1.4.1h.4l.5.1h.4l.5.1.4.1h.5l.4.1h.4l.5.1.4.1h.5l.4.1h.4l.5.1.4.1h.5l.4.1h.5l.4.1h.4l.5.1.4.1h.5l.4.1h.4l.5.1.4.1h.5l.4.1h.5l.8.2h.5l.4.1h.5l.8.2h.5l.4.1h.5l.4.1.5.1h.4l.4.1h.5l.4.1h.5l.4.1.5.1h.4l.4.1h.5l.4.1.5.1h.4l.4.1h.5l.4.1.5.1h.4l.5.1h.4l.4.1.5.1h.4l.5.1h.4l.4.1h.5l.4.1.5.1h.4l.5.1h.4l.4.1.5.1h.4l.5.1h.4l.4.1.5.1h.4l.5.1h.4l.5.1.4.1h.4l.5.1h.4l.5.1.4.1h.4l.5.1h.4l.5.1h.4l.5.1.4.1h.4l.5.1h.4l.5.1.4.1h.4l.5.1h.4l.5.1.4.1h.5l.4.1h.4l.5.1.4.1h.5l.4.1h.4l.5.1.4.1h.5l.4.1h.5l.4.1h.4l.4.1"/>
   <path d="m108.5 364.2.4.1h.5l.4.1h.5l.4.1h.5l.4.1h.4l.5.1h.4l.5.1h.4l.4.1h.5l.4.1h.5l.4.1h.5l.4.1h.4l.5.1h.4l.5.1h.4l.4.1h.5l.4.1h.5l.4.1h.5l.4.1h.4l.5.1h.4l.5.1h.4l.4.1h.5l.4.1h.5l.4.1h.5l.4.1h.4l.5.1h.4l.5.1h.4l.4.1h.5l.4.1h.5l.4.1h.5l.4.1h.4l.5.1h.4l.5.1h.4l.4.1h.5l.4.1h.5l.4.1h.5l.4.1h.4l.5.1h.4l.5.1h.4l.4.1h.5l.4.1h.5l.4.1h.5l.4.1h.4l.5.1h.4l.5.1h.4l.4.1h.5l.4.1h.5l.4.1h.5l.4.1h.4l.5.1h.4l.5.1h.4l.4.1h.5l.4.1h.5l.4.1h.5l.4.1h.4l.5.1h.4l.5.1h.4l.4.1h.5l.4.1h.5l.4.1h.5l.4.1h.4l.5.1h.4l.5.1h.4l.5.1h.4l.4.1h.5l.4.1h.5l.4.1h.4l.5.1h.9l.4.1h.5l.4.1h.4l.5.1h.4l.5.1h.4l.4.1h.5l.4.1h.5l.4.1h.5l.4.1h.4l.5.1h.4l.5.1h.4l.4.1h.5l.4.1h.5l.4.1h.5l.4.1h.4l.5.1h.4l.5.1h.4l.4.1h.5l.4.1h.5l.4.1h.5l.4.1h.4l.5.1h.4l.5.1h.4l.4.1h.5l.4.1h.5l.4.1h.5l.4.1h.4l.5.1h.4l.5.1h.4l.4.1h.5l.4.1h.5l.4.1h.5l.4.1h.4l.5.1h.4l.5.1h.4l.4.1h.5l.4.1h.5l.4.1h.5l.4.1h.4l.5.1h.4l.5.1h.4l.4.1h.5l.4.1h.5l.4.1h.5l.4.1h.4l.5.1h.4l.5.1h.4l.5.1h.4l.4.1h.5l.4.1h.5l.4.1h.4l.5.1h.4l.5.1h.4l.5.1h.4l.4.1h.5l.4.1h.5l.4.1h.4l.5.1h.4l.5.1h.4l.5.1h.4l.4.1h.5l.4.1h.5l.4.1h.4l.5.1h.4l.5.1h.4l.5.1h.4l.4.1h.5l.4.1h.5l.4.1h.9l.4.1h.5l.4.1h.5l.4.1h.4l.5.1h.4l.5.1h.4l.4.1h.5l.4.1h.5l.4.1h.5l.4.1h.4l.5.1h.4l.5.1h.4l.4.1h.5l.4.1h.5l.4.1h.5l.4.1h.4l.5.1h.4l.5.1h.4l.4.1h.5l.4.1h.5l.4.1h.5l.4.1h.4l.5.1h.4l.5.1h.4l.4.1h.5l.4.1h.5l.4.1h.5l.4.1h.4l.5.1h.4l.5.1h.4l.4.1h.5l.4.1h.5l.4.1h.5l.4.1h.4l.5.1h.4l.5.1h.4l.5.1h.4l.4.1h.5l.4.1h.5l.4.1h.4l.5.1h.4l.5.1h.4l.5.1h.4l.4.1h.5l.4.1h.5l.4.1h.4l.5.1h.4l.5.1h.4l.5.1h.4l.4.1h.5l.4.1h.5l.4.1h.4l.5.1h.4l.5.1h.4l.5.1h.4l.4.1h.5l.4.1h.5l.4.1h.4l.5.1h.4l.5.1h.4l.5.1h.4l.4.1h.5l.4.1h.5l.4.1h.4l.5.1h.4l.5.1h.4l.5.1h.4l.4.1h.5l.4.1h.9l.4.1h.5l.4.1h.5l.4.1h.5l.4.1h.4l.5.1h.4l.5.1h.4l.4.1h.5l.4.1h.5l.4.1h.5l.4.1h.4l.5.1h.4l.5.1h.4l.4.1h.5l.4.1h.5l.4.1h.5l.4.1h.4l.5.1h.4l.5.1h.4l.4.1h.5l.4.1h.5l.4.1h.5l.4.1h.4l.5.1h.4l.5.1h.4l.5.1h.4l.4.1h.5l.4.1h.5l.4.1h.4l.5.1h.4l.5.1h.4l.5.1h.4l.4.1h.5l.4.1h.5l.4.1h.4l.5.1h.4l.5.1h.4l.5.1h.4l.4.1h.5l.4.1h.5l.4.1h.4l.5.1h.4l.5.1h.4l.5.1h.4l.4.1h.5l.4.1h.5l.4.1h.4l.5.1h.4l.5.1h.4l.5.1h.4l.4.1h.5l.4.1h.5l.4.1h.4l.5.1h.4l.5.1h.4l.5.1h.4l.4.1h.5l.4.1h.5l.4.1h.4l.5.1h.4l.5.1h.4l.5.1h.4l.4.1h.5l.4.1h.5l.4.1h.4l.5.1h.4l.5.1h.4l.5.1h.4l.4.1h.9l.5.1h.4l.4.1h.5l.4.1h.5l.4.1h.5l.4.1h.4l.5.1h.4l.5.1h.4l.5.1h.4l.4.1h.5l.4.1h.5l.4.1h.4l.5.1h.4l.5.1h.4l.5.1h.4l.4.1h.5l.4.1h.5l.4.1h.4l.5.1h.4l.5.1h.4l.5.1h.4l.4.1h.5l.4.1h.5l.4.1h.4l.5.1h.4l.5.1h.4l.5.1h.4l.4.1h.5l.4.1h.5l.4.1h.4l.5.1h.4l.5.1h.4l.5.1h.4l.4.1h.5l.4.1h.5l.4.1h.4l.5.1h.4l.5.1h.4l.5.1h.4l.4.1h.5l.4.1h.5l.4.1h.4l.5.1h.4l.5.1h.4l.5.1h.4l.4.1h.5l.4.1h.5l.4.1h.4l.5.1h.4l.5.1h.4l.5.1h.4l.4.1h.5l.4.1h.5l.4.1h.4l.5.1h.4l.5.1h.4l.5.1h.4l.4.1h.5l.4.1h.5l.4.1h.4l.5.1h.4l.5.1h.4l.5.1h.4l.4.1h.5l.4.1h.5l.4.1h.5l.4.1h.4l.5.1h.4l.5.1h.4l.4.1h.9l.5.1h.4l.5.1h.4l.4.1h.5l.4.1h.5l.4.1h.4l.5.1h.4l.5.1h.4l.5.1h.4l.4.1h.5l.4.1h.5l.4.1h.4l.5.1h.4l.5.1h.4l.5.1h.4l.4.1h.5l.4.1h.5l.4.1h.4l.5.1h.4l.5.1h.4l.5.1h.4l.4.1h.5l.4.1h.5l.4.1h.4l.5.1h.4l.5.1h.4l.5.1h.4l.4.1h.5l.4.1h.5l.4.1h.4l.5.1h.4l.5.1h.4l.5.1h.4l.4.1h.5l.4.1h.5l.4.1h.4l.5.1h.4l.5.1h.4l.5.1h.4l.4.1h.5l.4.1h.5l.4.1h.4l.5.1h.4l.5.1h.4l.5.1h.4l.4.1h.5l.4.1h.5l.4.1h.4l.5.1h.4l.5.1h.4l.5.1h.4l.4.1h.5l.4.1h.5l.4.1h.5l.4.1h.4l.5.1h.4l.5.1h.4l.4.1h.5l.4.1h.5l.4.1h.5l.4.1h.4l.5.1h.4l.5.1h.4l.4.1h.5l.4.1h.5l.4.1h.5l.4.1h.4l.5.1h.4l.5.1h.8l.5.1h.4l.5.1h.4l.5.1h.4l.4.1h.5l.4.1h.5l.4.1h.4l.5.1h.4l.5.1h.4l.5.1h.4l.4.1h.5l.4.1h.5l.4.1h.4l.5.1h.4l.5.1h.4l.5.1h.4l.4.1h.5l.4.1h.5l.4.1h.4l.5.1h.4l.5.1h.4l.5.1h.4l.4.1h.5l.4.1h.5l.4.1h.4l.5.1h.4l.5.1h.4l.5.1h.4l.4.1h.5l.4.1h.5l.4.1h.4l.5.1h.4l.5.1h.2"/>
   <path d="m108.5 371.5.4.1h.5l.4.1h.9l.5.1h.4l.4.1h.9l.5.1h.4l.4.1h.9l.5.1h.4l.5.1h.8l.5.1h.4l.5.1h.4l.4.1h.9l.5.1h.4l.5.1h.8l.5.1h.4l.5.1h.8l.5.1h.4l.5.1h.9l.4.1h.4l.5.1h.9l.4.1h.4l.5.1h.9l.4.1h.5l.4.1h.9l.4.1h.5l.4.1h.9l.4.1h.5l.4.1h.5l.4.1h.9l.4.1h.5l.4.1h.9l.4.1h.5l.4.1h.9l.4.1h.5l.4.1h.9l.4.1h.5l.4.1h.9l.5.1h.4l.4.1h.9l.5.1h.4l.4.1h.9l.5.1h.4l.5.1h.8l.5.1h.4l.5.1h.8l.5.1h.4l.5.1h.4l.5.1h.8l.5.1h.4l.5.1h.9l.4.1h.4l.5.1h.9l.4.1h.4l.5.1h.9l.4.1h.5l.4.1h.9l.4.1h.5l.4.1h.9l.4.1h.5l.4.1h.9l.4.1h.5l.4.1h.9l.4.1h.5l.4.1h.5l.4.1h.9l.4.1h.5l.4.1h.9l.4.1h.5l.4.1h.9l.5.1h.4l.4.1h.9l.5.1h.4l.4.1h.9l.5.1h.4l.5.1h.8l.5.1h.4l.5.1h.8l.5.1h.4l.5.1h.9l.4.1h.4l.5.1h.4l.5.1h.8l.5.1h.4l.5.1h.9l.4.1h.4l.5.1h.9l.4.1h.4l.5.1h.9l.4.1h.5l.4.1h.9l.4.1h.5l.4.1h.9l.4.1h.5l.4.1h.9l.4.1h.5l.4.1h.9l.5.1h.4l.4.1h.5l.4.1h.9l.4.1h.5l.4.1h.9l.5.1h.4l.4.1h.9l.5.1h.4l.4.1h.9l.5.1h.4l.5.1h.8l.5.1h.4l.5.1h.8l.5.1h.4l.5.1h.9l.4.1h.4l.5.1h.9l.4.1h.4l.5.1h.4l.5.1h.9l.4.1h.4l.5.1h.9l.4.1h.4l.5.1h.9l.4.1h.5l.4.1h.9l.4.1h.5l.4.1h.9l.4.1h.5l.4.1h.9l.4.1h.5l.4.1h.9l.4.1h.5l.4.1h.9l.5.1h.4l.4.1h.9l.5.1h.4l.4.1h.5l.4.1h.9l.5.1h.4l.4.1h.9l.5.1h.4l.5.1h.8l.5.1h.4l.5.1h.8l.5.1h.4l.5.1h.9l.4.1h.4l.5.1h.9l.4.1h.4l.5.1h.9l.4.1h.5l.4.1h.9l.4.1h.5l.4.1h.4l.5.1h.9l.4.1h.5l.4.1h.9l.4.1h.5l.4.1h.9l.4.1h.5l.4.1h.9l.4.1h.5l.4.1h.9l.4.1h.5l.4.1h.9l.5.1h.4l.4.1h.9l.5.1h.4l.4.1h.9l.5.1h.4l.5.1h.4l.4.1h.9l.5.1h.4l.4.1h.9l.5.1h.4l.5.1h.8l.5.1h.4l.5.1h.8l.5.1h.4l.5.1h.9l.4.1h.4l.5.1h.9l.4.1h.4l.5.1h.9l.4.1h.5l.4.1h.9l.4.1h.5l.4.1h.5l.4.1h.9l.4.1h.5l.4.1h.9l.4.1h.5l.4.1h.9l.4.1h.5l.4.1h.9l.4.1h.5l.4.1h.9l.5.1h.4l.4.1h.9l.5.1h.4l.4.1h.9l.5.1h.4l.5.1h.8l.5.1h.4l.5.1h.4l.4.1h.9l.5.1h.4l.5.1h.8l.5.1h.4l.5.1h.8l.5.1h.4l.5.1h.9l.4.1h.4l.5.1h.9l.4.1h.4l.5.1h.9l.4.1h.5l.4.1h.9l.4.1h.5l.4.1h.9l.4.1h.5l.4.1h.9l.4.1h.5l.4.1h.5l.4.1h.9l.4.1h.5l.4.1h.9l.4.1h.5l.4.1h.9l.5.1h.4l.4.1h.9l.5.1h.4l.4.1h.9l.5.1h.4l.5.1h.8l.5.1h.4l.5.1h.8l.5.1h.4l.5.1h.9l.4.1h.4l.5.1h.4l.5.1h.8l.5.1h.4l.5.1h.9l.4.1h.4l.5.1h.9l.4.1h.4l.5.1h.9l.4.1h.5l.4.1h.9l.4.1h.5l.4.1h.9l.4.1h.5l.4.1h.9l.4.1h.5l.4.1h.9l.4.1h.5l.4.1h.5l.4.1h.9l.4.1h.5l.4.1h.9l.4.1h.5l.4.1h.9l.5.1h.4l.4.1h.9l.5.1h.4l.4.1h.9l.5.1h.4l.5.1h.8l.5.1h.4l.5.1h.8l.5.1h.4l.5.1h.9l.4.1h.4l.5.1h.4l.5.1h.9l.4.1h.4l.5.1h.9l.4.1h.4l.5.1h.9l.4.1h.5l.4.1h.9l.4.1h.5l.4.1h.9l.4.1h.5l.4.1h.9l.4.1h.5l.4.1h.9l.4.1h.5l.4.1h.9l.5.1h.4l.4.1h.9l.5.1h.4l.4.1h.5l.4.1h.9l.5.1h.4l.4.1h.9l.5.1h.4l.4.1h.9l.5.1h.4l.5.1h.8l.5.1h.4l.5.1h.8l.5.1h.4l.5.1h.9l.4.1h.4l.5.1h.9l.4.1h.4l.5.1h.9l.4.1h.5l.4.1h.4l.5.1h.9l.4.1h.4l.5.1h.9l.4.1h.5l.4.1h.9l.4.1h.5l.4.1h.9l.4.1h.5l.4.1h.9l.4.1h.5l.4.1h.9l.5.1h.4l.4.1h.9l.5.1h.4l.4.1h.9l.5.1h.4l.5.1h.4l.4.1h.9l.5.1h.4l.4.1h.9l.5.1h.4l.5.1h.8l.5.1h.4l.5.1h.8l.5.1h.4l.5.1h.9l.4.1h.4l.5.1h.9l.4.1h.4l.5.1h.9l.4.1h.5l.4.1h.9l.4.1h.5l.4.1h.4l.5.1h.9l.4.1h.5l.4.1h.9l.4.1h.5l.4.1h.9l.4.1h.5l.4.1h.9l.4.1h.5l.4.1h.9l.4.1h.5l.4.1h.9l.5.1h.4l.4.1h.9l.5.1h.4l.4.1h.9l.5.1h.4l.5.1h.4l.4.1h.9l.5.1h.4l.5.1h.8l.5.1h.4l.5.1h.8l.5.1h.4l.5.1h.4"/>
   <path d="m108.5 378.8.4.1h.9l.5.1h.9l.4.1h1.3l.5.1h.8l.5.1h.9l.4.1h.9l.4.1h.9l.5.1h.8l.5.1h.9l.4.1h1.3l.5.1h.9l.4.1h.9l.4.1h.9l.5.1h.8l.5.1h.9l.4.1h1.3l.5.1h.9l.4.1h.9l.4.1h.9l.4.1h.9l.5.1h.9l.4.1h1.3l.5.1h.8l.5.1h.9l.4.1h.9l.4.1h.9l.5.1h.8l.5.1h.9l.4.1h1.3l.5.1h.9l.4.1h.9l.4.1h.9l.5.1h.8l.5.1h.9l.4.1h1.3l.5.1h.9l.4.1h.9l.4.1h.9l.5.1h.8l.5.1h.9l.4.1h.9l.4.1h1.4l.4.1h.9l.4.1h.9l.4.1h.9l.5.1h.9l.4.1h.9l.4.1h1.3l.5.1h.9l.4.1h.9l.4.1h.9l.5.1h.8l.5.1h.9l.4.1h1.3l.5.1h.9l.4.1h.9l.4.1h.9l.5.1h.8l.5.1h.9l.4.1h.9l.4.1h1.4l.4.1h.9l.4.1h.9l.4.1h.9l.5.1h.9l.4.1h.9l.4.1h1.3l.5.1h.9l.4.1h.9l.4.1h.9l.5.1h.9l.4.1h.9l.4.1h.9l.4.1h1.4l.4.1h.9l.4.1h.9l.5.1h.8l.5.1h.9l.4.1h.9l.4.1h1.4l.4.1h.9l.4.1h.9l.5.1h.8l.5.1h.9l.4.1h.9l.4.1h1.4l.4.1h.9l.4.1h.9l.4.1h.9l.5.1h.9l.4.1h.9l.4.1h.9l.4.1h1.4l.4.1h.9l.4.1h.9l.5.1h.8l.5.1h.9l.4.1h.9l.4.1h1.4l.4.1h.9l.4.1h.9l.5.1h.8l.5.1h.9l.4.1h.9l.4.1h.9l.5.1h1.3l.4.1h.9l.5.1h.8l.5.1h.9l.4.1h.9l.4.1h.9l.5.1h1.3l.4.1h.9l.4.1h.9l.5.1h.9l.4.1h.9l.4.1h.9l.4.1h1.4l.4.1h.9l.4.1h.9l.5.1h.8l.5.1h.9l.4.1h.9l.4.1h.9l.5.1h1.3l.4.1h.9l.5.1h.8l.5.1h.9l.4.1h.9l.4.1h.9l.5.1h1.3l.4.1h.9l.4.1h.9l.5.1h.9l.4.1h.9l.4.1h.9l.4.1h.9l.5.1h1.3l.4.1h.9l.5.1h.8l.5.1h.9l.4.1h.9l.4.1h.9l.5.1h1.3l.4.1h.9l.5.1h.8l.5.1h.9l.4.1h.9l.4.1h.9l.5.1h1.3l.4.1h.9l.5.1h.8l.5.1h.9l.4.1h.9l.4.1h.9l.5.1h.8l.5.1h1.3l.4.1h.9l.5.1h.9l.4.1h.9l.4.1h.9l.4.1h.9l.5.1h1.3l.4.1h.9l.5.1h.8l.5.1h.9l.4.1h.9l.4.1h.9l.5.1h1.3l.4.1h.9l.5.1h.8l.5.1h.9l.4.1h.9l.4.1h.9l.5.1h.8l.5.1h1.3l.5.1h.8l.5.1h.9l.4.1h.9l.4.1h.9l.5.1h.8l.5.1h1.3l.4.1h.9l.5.1h.9l.4.1h.9l.4.1h.9l.4.1h.9l.5.1h.9l.4.1h1.3l.5.1h.8l.5.1h.9l.4.1h.9l.4.1h.9l.5.1h.8l.5.1h1.3l.5.1h.8l.5.1h.9l.4.1h.9l.4.1h.9l.5.1h.8l.5.1h1.3l.4.1h.9l.5.1h.9l.4.1h.9l.4.1h.9l.4.1h.9l.5.1h.9l.4.1h1.3l.5.1h.8l.5.1h.9l.4.1h.9l.4.1h.9l.5.1h.9l.4.1h1.3l.5.1h.8l.5.1h.9l.4.1h.9l.4.1h.9l.5.1h.8l.5.1h.9l.4.1h1.3l.5.1h.9l.4.1h.9l.4.1h.9l.5.1h.8l.5.1h.9l.4.1h1.3l.5.1h.9l.4.1h.9l.4.1h.9l.4.1h.9l.5.1h.9l.4.1h1.3l.5.1h.8l.5.1h.9l.4.1h.9l.4.1h.9l.5.1h.8l.5.1h.9l.4.1h1.3l.5.1h.9l.4.1h.9l.4.1h.9l.5.1h.8l.5.1h.9l.4.1h1.3l.5.1h.9l.4.1h.9l.4.1h.9l.5.1h.8l.5.1h.9l.4.1h.9l.4.1h1.4l.4.1h.9l.4.1h.9l.4.1h.9l.5.1h.9l.4.1h.9l.4.1h1.3l.5.1h.9l.4.1h.9l.4.1h.9l.5.1h.8l.5.1h.9l.4.1h1.3l.5.1h.9l.4.1h.9l.4.1h.9l.5.1h.8l.5.1h.9l.4.1h.9l.4.1h1.4l.4.1h.9l.4.1h.9l.4.1h.9l.5.1h.9l.4.1h.9l.4.1h1.3l.5.1h.9l.4.1h.9l.4.1h.9l.5.1h.9l.4.1h.9l.4.1h.9l.4.1h1.4l.4.1h.9l.4.1h.9l.5.1h.8l.5.1h.9l.4.1h.9l.4.1h1.4l.4.1h.3"/>
   <path d="m108.5 386.1h.4l.5.1h1.3l.5.1h1.3l.4.1h1.8l.4.1h1.4l.4.1h1.3l.5.1h1.3l.4.1h1.8l.4.1h1.4l.4.1h1.3l.5.1h1.7l.5.1h1.3l.4.1h1.4l.4.1h1.8l.4.1h1.3l.5.1h1.3l.5.1h1.3l.4.1h1.8l.4.1h1.4l.4.1h1.3l.5.1h1.7l.5.1h1.3l.4.1h1.4l.4.1h1.3l.5.1h1.7l.5.1h1.3l.4.1h1.4l.4.1h1.8l.4.1h1.4l.4.1h1.3l.5.1h1.7l.5.1h1.3l.4.1h1.4l.4.1h1.3l.5.1h1.7l.5.1h1.3l.4.1h1.4l.4.1h1.8l.4.1h1.3l.5.1h1.3l.5.1h1.7l.5.1h1.3l.4.1h1.4l.4.1h1.3l.5.1h1.7l.5.1h1.3l.4.1h1.4l.4.1h1.8l.4.1h1.3l.5.1h1.3l.4.1h1.8l.5.1h1.3l.4.1h1.4l.4.1h1.3l.5.1h1.7l.5.1h1.3l.4.1h1.4l.4.1h1.8l.4.1h1.3l.5.1h1.3l.4.1h1.8l.5.1h1.3l.4.1h1.3l.5.1h1.3l.5.1h1.7l.5.1h1.3l.4.1h1.4l.4.1h1.8l.4.1h1.3l.5.1h1.3l.4.1h1.4l.4.1h1.8l.4.1h1.3l.5.1h1.3l.4.1h1.8l.5.1h1.3l.4.1h1.3l.5.1h1.8l.4.1h1.3l.5.1h1.3l.4.1h1.4l.4.1h1.8l.4.1h1.3l.5.1h1.3l.4.1h1.8l.5.1h1.3l.4.1h1.3l.5.1h1.8l.4.1h1.3l.5.1h1.3l.4.1h1.4l.4.1h1.8l.4.1h1.3l.5.1h1.3l.4.1h1.8l.4.1h1.4l.4.1h1.3l.5.1h1.7l.5.1h1.3l.5.1h1.3l.4.1h1.3l.5.1h1.8l.4.1h1.3l.5.1h1.3l.4.1h1.8l.4.1h1.4l.4.1h1.3l.5.1h1.7l.5.1h1.3l.5.1h1.3l.4.1h1.3l.5.1h1.8l.4.1h1.3l.5.1h1.3l.4.1h1.8l.4.1h1.4l.4.1h1.3l.5.1h1.3l.4.1h1.8l.4.1h1.4l.4.1h1.3l.5.1h1.7l.5.1h1.3l.5.1h1.3l.4.1h1.8l.4.1h1.4l.4.1h1.3l.5.1h1.3l.4.1h1.8l.4.1h1.4l.4.1h1.3l.5.1h1.7l.5.1h1.3l.5.1h1.3l.4.1h1.8l.4.1h1.4l.4.1h1.3l.5.1h1.3l.4.1h1.8l.4.1h1.4l.4.1h1.3l.5.1h1.7l.5.1h1.3l.4.1h1.4l.4.1h1.8l.4.1h1.3l.5.1h1.3l.5.1h1.3l.4.1h1.8l.4.1h1.4l.4.1h1.3l.5.1h1.7l.5.1h1.3l.4.1h1.4l.4.1h1.8l.4.1h1.3l.5.1h1.3l.5.1h1.3l.4.1h1.8l.4.1h1.4l.4.1h1.3l.5.1h1.7l.5.1h1.3l.4.1h1.4l.4.1h1.3l.5.1h1.7l.5.1h1.3l.4.1h1.4l.4.1h1.8l.4.1h1.3l.5.1h1.3l.5.1h1.7l.5.1h1.3l.4.1h1.4l.4.1h1.3l.5.1h1.7l.5.1h1.3l.4.1h1.4l.4.1h1.8l.4.1h1.3l.5.1h1.3l.4.1h1.8l.5.1h1.3l.4.1h1.4l.4.1h1.3l.5.1h1.7l.5.1h1.3l.4.1h1.4l.4.1h1.8l.4.1h1.3l.5.1h1.3l.4.1h1.8l.5.1h1.3l.4.1h1.3l.5.1h1.3l.5.1h1.7l.5.1h1.3l.4.1h1.4l.4.1h1.8l.4.1h1.3l.5.1h1.3l.4.1h1.8l.4.1h1.4l.4.1h1.3l.5.1h1.3l.4.1h1.8l.5.1h1.3l.4.1h1.4l.4.1h1.8l.4.1h1.3l.5.1h1.3l.4.1h1.8l.4.1h1.4l.4.1h1.3l.5.1h1.3l.4.1h1.8l.5.1h1.3l.4.1h1.3l.5.1h1.8l.4.1h.5"/>
   <path d="m108.5 393.4h.9l.4.1h2.2l.5.1h2.6l.5.1h2.6l.5.1h2.2l.4.1h2.7l.4.1h2.2l.5.1h2.6l.4.1h2.3l.4.1h2.6l.5.1h2.6l.5.1h2.2l.4.1h2.7l.4.1h2.2l.5.1h2.6l.5.1h2.2l.4.1h2.7l.4.1h2.7l.4.1h2.2l.5.1h2.6l.4.1h2.3l.4.1h2.6l.5.1h2.6l.5.1h2.2l.4.1h2.7l.4.1h2.2l.5.1h2.6l.5.1h2.2l.4.1h2.7l.4.1h2.7l.4.1h2.2l.4.1h2.7l.4.1h2.2l.5.1h2.6l.5.1h2.6l.5.1h2.2l.4.1h2.7l.4.1h2.2l.5.1h2.6l.5.1h2.2l.4.1h2.7l.4.1h2.7l.4.1h2.2l.4.1h2.7l.4.1h2.2l.5.1h2.6l.5.1h2.2l.4.1h2.7l.4.1h2.7l.4.1h2.2l.5.1h2.6l.5.1h2.2l.4.1h2.7l.4.1h2.7l.4.1h2.2l.4.1h2.7l.4.1h2.2l.5.1h2.6l.5.1h2.2l.4.1h2.7l.4.1h2.7l.4.1h2.2l.5.1h2.6l.5.1h2.2l.4.1h2.7l.4.1h2.6l.5.1h2.2l.4.1h2.7l.4.1h2.2l.5.1h2.6l.5.1h2.2l.4.1h2.7l.4.1h2.7l.4.1h2.2l.5.1h2.6l.5.1h2.2l.4.1h2.7l.4.1h2.6l.5.1h2.2l.4.1h2.7l.4.1h2.2l.5.1h2.6l.5.1h2.2l.4.1h2.7l.4.1h2.7l.4.1h2.2l.5.1h2.6l.5.1h2.2l.4.1h2.7l.4.1h2.2l.4.1h2.7l.4.1h2.7l.4.1h2.2l.5.1h2.6l.5.1h2.2l.4.1h2.7l.4.1h2.7l.4.1h2.2l.5.1h2.6l.4.1h2.3l.4.1h2.6l.5.1h2.2l.4.1h2.7l.4.1h2.7l.4.1h2.2l.5.1h2.6l.5.1h2.2l.4.1h2.7l.4.1h2.7l.4.1h2.2l.5.1h2.6l.4.1h2.3l.4.1h2.6l.5.1h2.2l.4.1h2.7l.4.1h2.7l.4.1h2.2l.5.1h2.6l.5.1h2.2l.4.1h2.7l.4.1h2.7l.4.1h2.2l.5.1h2.6l.4.1h2.3l.4.1h2.6l.5.1h2.2l.4.1h2.7l.4.1h2.7l.4.1h2.2l.5.1h2.6l.5.1h2.2l.4.1h2.7l.4.1h2.2l.5.1h2.6l.4.1h2.7l.4.1h2.3l.4.1h2.6l.5.1h2.2l.4.1h2.7l.4.1h2.7l.4.1h2.2l.5.1h2.6l.5.1h2.2l.4.1h2.7l.4.1h2.2l.5.1h2.6l.4.1h1.3"/>
   <path d="m108.5 400.7h2.2l.5.1h5.7l.4.1h5.3l.5.1h5.3l.4.1h5.8l.4.1h5.3l.4.1h5.8l.4.1h5.3l.5.1h5.7l.5.1h5.3l.4.1h5.3l.4.1h5.8l.4.1h5.3l.5.1h5.7l.5.1h5.3l.4.1h5.7l.5.1h5.3l.4.1h5.3l.5.1h5.7l.5.1h5.3l.4.1h5.7l.5.1h5.3l.4.1h5.8l.4.1h5.3l.4.1h5.8l.4.1h5.3l.5.1h5.3l.4.1h5.8l.4.1h5.3l.4.1h5.8l.4.1h5.3l.5.1h5.7l.5.1h5.3l.4.1h5.3l.4.1h5.8l.4.1h5.3l.5.1h5.7l.5.1h5.3l.4.1h5.7l.5.1h5.3l.4.1h5.3l.5.1h5.7l.5.1h5.3l.4.1h5.7l.5.1h5.3l.4.1h5.8l.4.1h5.3l.4.1h5.3l.5.1h5.7l.5.1h5.3l.4.1h5.8l.4.1h5.3l.4.1h5.8l.4.1h5.3l.5.1h5.3l.4.1h5.8l.4.1h5.3l.4.1h5.8l.4.1h5.3l.5.1h5.7l.5.1h5.3l.4.1h5.3l.4.1h5.8l.4.1h5.3l.5.1h5.7l.4.1h5.3l.5.1h5.7l.5.1h5.3l.4.1h5.3l.5.1h5.7l.4.1h5.3l.5.1h5.7l.5.1h5.3l.4.1h2.8"/>
  </g>
  <path d="m108.5 36.1v371.9h441.3v-371.9z" stroke="#000"/>
 </g>
 <g text-anchor="end">
  <text x="91.8" y="415.8">0</text>
  <text x="91.8" y="341.4">0.2</text>
  <text x="91.8" y="267">0.4</text>
  <text x="91.8" y="192.7">0.6</text>
  <text x="91.8" y="118.3">0.8</text>
  <text x="91.8" y="43.9">1</text>
 </g>
 <g text-anchor="middle">
  <text x="108.5" y="451.8">0</text>
  <text x="196.8" y="451.8">0.2</text>
  <text x="285" y="451.8">0.4</text>
  <text x="373.3" y="451.8">0.6</text>
  <text x="461.5" y="451.8">0.8</text>
  <text x="549.8" y="451.8">1</text>
 </g>
 <text x="414.9" y="79.9" text-anchor="end"><tspan font-style="italic">k</tspan> = 1</text>
</svg>
